<svg width="499" height="81" viewBox="0 0 499 81" fill="none" xmlns="http://www.w3.org/2000/svg">
<mask id="path-1-outside-1_1_3" maskUnits="userSpaceOnUse" x="-2" y="-2" width="503" height="85" fill="black">
<rect fill="white" x="-2" y="-2" width="503" height="85"/>
<path d="M24.696 1.888C31.536 1.888 37.26 2.536 41.868 3.832C46.548 5.056 50.04 7.108 52.344 9.98799C54.72 12.796 55.908 16.612 55.908 21.436C55.908 24.316 55.44 26.944 54.504 29.32C53.568 31.696 52.2 33.64 50.4 35.152C48.672 36.664 46.548 37.636 44.028 38.068V38.608C46.62 39.112 48.96 40.012 51.048 41.308C53.136 42.604 54.792 44.476 56.016 46.924C57.24 49.372 57.852 52.612 57.852 56.644C57.852 61.324 56.7 65.356 54.396 68.74C52.164 72.052 48.924 74.608 44.676 76.408C40.428 78.136 35.388 79 29.556 79H0.72V1.888H24.696ZM26.532 32.452C31.284 32.452 34.56 31.696 36.36 30.184C38.232 28.672 39.168 26.476 39.168 23.596C39.168 20.644 38.088 18.52 35.928 17.224C33.768 15.928 30.348 15.28 25.668 15.28H17.028V32.452H26.532ZM17.028 45.412V65.5H27.72C32.616 65.5 36.036 64.564 37.98 62.692C39.924 60.748 40.896 58.192 40.896 55.024C40.896 53.08 40.464 51.388 39.6 49.948C38.808 48.508 37.404 47.392 35.388 46.6C33.372 45.808 30.636 45.412 27.18 45.412H17.028ZM120.479 79L114.863 60.64H86.7825L81.1665 79H63.5625L90.7785 1.564H110.759L138.083 79H120.479ZM105.359 28.996C104.999 27.772 104.531 26.224 103.955 24.352C103.379 22.48 102.803 20.572 102.227 18.628C101.651 16.684 101.183 14.992 100.823 13.552C100.463 14.992 99.9585 16.792 99.3105 18.952C98.7345 21.04 98.1585 23.056 97.5825 25C97.0785 26.872 96.6825 28.204 96.3945 28.996L90.8865 46.924H110.975L105.359 28.996ZM178.464 14.416C175.368 14.416 172.596 15.028 170.148 16.252C167.772 17.476 165.756 19.24 164.1 21.544C162.444 23.776 161.184 26.512 160.32 29.752C159.528 32.992 159.132 36.628 159.132 40.66C159.132 46.132 159.78 50.812 161.076 54.7C162.444 58.516 164.568 61.432 167.448 63.448C170.328 65.464 174 66.472 178.464 66.472C181.632 66.472 184.764 66.112 187.86 65.392C191.028 64.672 194.448 63.664 198.12 62.368V76.084C194.736 77.452 191.388 78.46 188.076 79.108C184.764 79.756 181.056 80.08 176.952 80.08C169.032 80.08 162.48 78.46 157.296 75.22C152.184 71.908 148.404 67.3 145.956 61.396C143.508 55.42 142.284 48.472 142.284 40.552C142.284 34.72 143.076 29.392 144.66 24.568C146.244 19.672 148.548 15.46 151.572 11.932C154.668 8.404 158.448 5.668 162.912 3.724C167.448 1.78 172.632 0.807996 178.464 0.807996C182.28 0.807996 186.096 1.312 189.912 2.32C193.8 3.256 197.508 4.552 201.036 6.208L195.744 19.492C192.864 18.124 189.948 16.936 186.996 15.928C184.116 14.92 181.272 14.416 178.464 14.416ZM276.497 79H257.921L237.725 46.492L230.813 51.46V79H214.505V1.888H230.813V37.204C231.893 35.692 232.973 34.18 234.053 32.668C235.133 31.156 236.213 29.644 237.293 28.132L258.137 1.888H276.281L249.389 36.016L276.497 79ZM330.612 79H286.224V1.888H330.612V15.28H302.532V32.236H328.668V45.628H302.532V65.5H330.612V79ZM415.022 79H394.286L360.698 20.68H360.266C360.338 22.48 360.41 24.316 360.482 26.188C360.554 27.988 360.626 29.824 360.698 31.696C360.842 33.496 360.95 35.332 361.022 37.204C361.094 39.004 361.166 40.84 361.238 42.712V79H346.658V1.888H367.286L400.766 59.668H401.09C401.018 57.868 400.946 56.104 400.874 54.376C400.802 52.576 400.73 50.812 400.658 49.084C400.658 47.284 400.622 45.52 400.55 43.792C400.478 41.992 400.406 40.192 400.334 38.392V1.888H415.022V79ZM498.449 39.688C498.449 48.328 496.793 55.564 493.481 61.396C490.169 67.228 485.345 71.62 479.009 74.572C472.745 77.524 465.185 79 456.329 79H434.513V1.888H458.705C466.769 1.888 473.753 3.328 479.657 6.208C485.633 9.088 490.241 13.336 493.481 18.952C496.793 24.496 498.449 31.408 498.449 39.688ZM481.493 40.12C481.493 34.432 480.665 29.752 479.009 26.08C477.353 22.408 474.869 19.708 471.557 17.98C468.317 16.18 464.321 15.28 459.569 15.28H450.821V65.5H457.841C465.833 65.5 471.773 63.376 475.661 59.128C479.549 54.88 481.493 48.544 481.493 40.12Z"/>
</mask>
<path d="M41.868 3.832L41.3265 5.7573L41.3442 5.76227L41.3619 5.76691L41.868 3.832ZM52.344 9.98799L50.7823 11.2374L50.7995 11.2589L50.8172 11.2799L52.344 9.98799ZM54.504 29.32L52.6432 28.5869L52.6432 28.587L54.504 29.32ZM50.4 35.152L49.1136 33.6206L49.0982 33.6336L49.083 33.6468L50.4 35.152ZM44.028 38.068L43.6901 36.0968L42.028 36.3817V38.068H44.028ZM44.028 38.608H42.028V40.2566L43.6463 40.5712L44.028 38.608ZM51.048 41.308L52.1027 39.6087L52.1027 39.6087L51.048 41.308ZM56.016 46.924L57.8049 46.0296L57.8049 46.0296L56.016 46.924ZM54.396 68.74L52.7428 67.6144L52.7375 67.6223L54.396 68.74ZM44.676 76.408L45.4296 78.2606L45.443 78.2551L45.4563 78.2495L44.676 76.408ZM0.72 79H-1.28V81H0.72V79ZM0.72 1.888V-0.112005H-1.28V1.888H0.72ZM36.36 30.184L35.1033 28.6281L35.0884 28.6402L35.0736 28.6526L36.36 30.184ZM17.028 15.28V13.28H15.028V15.28H17.028ZM17.028 32.452H15.028V34.452H17.028V32.452ZM17.028 45.412V43.412H15.028V45.412H17.028ZM17.028 65.5H15.028V67.5H17.028V65.5ZM37.98 62.692L39.3673 64.1326L39.3809 64.1196L39.3942 64.1062L37.98 62.692ZM39.6 49.948L37.8476 50.9118L37.8657 50.9448L37.885 50.977L39.6 49.948ZM24.696 3.888C31.4243 3.888 36.9523 4.52704 41.3265 5.7573L42.4095 1.90669C37.5677 0.544947 31.6477 -0.112005 24.696 -0.112005V3.888ZM41.3619 5.76691C45.755 6.91586 48.8203 8.7849 50.7823 11.2374L53.9057 8.7386C51.2597 5.43109 47.341 3.19614 42.3741 1.89708L41.3619 5.76691ZM50.8172 11.2799C52.8033 13.6271 53.908 16.9356 53.908 21.436H57.908C57.908 16.2884 56.6367 11.9649 53.8708 8.69611L50.8172 11.2799ZM53.908 21.436C53.908 24.097 53.4762 26.4723 52.6432 28.5869L56.3648 30.053C57.4038 27.4157 57.908 24.535 57.908 21.436H53.908ZM52.6432 28.587C51.8184 30.6806 50.637 32.3409 49.1136 33.6206L51.6864 36.6834C53.763 34.9391 55.3176 32.7114 56.3648 30.053L52.6432 28.587ZM49.083 33.6468C47.6629 34.8894 45.8894 35.7197 43.6901 36.0968L44.3659 40.0392C47.2066 39.5523 49.6811 38.4386 51.717 36.6572L49.083 33.6468ZM42.028 38.068V38.608H46.028V38.068H42.028ZM43.6463 40.5712C46.0176 41.0323 48.1266 41.8487 49.9933 43.0073L52.1027 39.6087C49.7934 38.1753 47.2224 37.1917 44.4097 36.6448L43.6463 40.5712ZM49.9933 43.0073C51.7319 44.0864 53.1493 45.6627 54.2272 47.8184L57.8049 46.0296C56.4347 43.2893 54.5401 41.1216 52.1027 39.6087L49.9933 43.0073ZM54.2272 47.8184C55.2623 49.8887 55.852 52.787 55.852 56.644H59.852C59.852 52.437 59.2177 48.8553 57.8049 46.0296L54.2272 47.8184ZM55.852 56.644C55.852 60.9818 54.7896 64.6082 52.7428 67.6144L56.0492 69.8656C58.6104 66.1038 59.852 61.6662 59.852 56.644H55.852ZM52.7375 67.6223C50.754 70.5656 47.8437 72.8936 43.8957 74.5665L45.4563 78.2495C50.0043 76.3224 53.574 73.5384 56.0545 69.8577L52.7375 67.6223ZM43.9224 74.5554C39.9691 76.1635 35.197 77 29.556 77V81C35.579 81 40.8869 80.1085 45.4296 78.2606L43.9224 74.5554ZM29.556 77H0.72V81H29.556V77ZM2.72 79V1.888H-1.28V79H2.72ZM0.72 3.888H24.696V-0.112005H0.72V3.888ZM26.532 34.452C31.3493 34.452 35.2652 33.7156 37.6464 31.7154L35.0736 28.6526C33.8548 29.6764 31.2187 30.452 26.532 30.452V34.452ZM37.6167 31.7399C40.0527 29.7723 41.168 26.9482 41.168 23.596H37.168C37.168 26.0038 36.4113 27.5717 35.1033 28.6281L37.6167 31.7399ZM41.168 23.596C41.168 20.0841 39.8324 17.2343 36.957 15.509L34.899 18.939C36.3436 19.8057 37.168 21.2039 37.168 23.596H41.168ZM36.957 15.509C34.319 13.9262 30.4469 13.28 25.668 13.28V17.28C30.2491 17.28 33.217 17.9298 34.899 18.939L36.957 15.509ZM25.668 13.28H17.028V17.28H25.668V13.28ZM15.028 15.28V32.452H19.028V15.28H15.028ZM17.028 34.452H26.532V30.452H17.028V34.452ZM15.028 45.412V65.5H19.028V45.412H15.028ZM17.028 67.5H27.72V63.5H17.028V67.5ZM27.72 67.5C32.7522 67.5 36.8452 66.5613 39.3673 64.1326L36.5927 61.2514C35.2268 62.5667 32.4798 63.5 27.72 63.5V67.5ZM39.3942 64.1062C41.771 61.7295 42.896 58.6349 42.896 55.024H38.896C38.896 57.7491 38.077 59.7665 36.5658 61.2778L39.3942 64.1062ZM42.896 55.024C42.896 52.7755 42.3932 50.7161 41.315 48.919L37.885 50.977C38.5348 52.0599 38.896 53.3845 38.896 55.024H42.896ZM41.3524 48.9842C40.2723 47.0203 38.4304 45.6464 36.1193 44.7385L34.6567 48.4615C36.3776 49.1376 37.3437 49.9957 37.8476 50.9118L41.3524 48.9842ZM36.1193 44.7385C33.7733 43.8168 30.7549 43.412 27.18 43.412V47.412C30.5171 47.412 32.9707 47.7992 34.6567 48.4615L36.1193 44.7385ZM27.18 43.412H17.028V47.412H27.18V43.412ZM120.479 79L118.566 79.585L118.999 81H120.479V79ZM114.863 60.64L116.775 60.055L116.342 58.64H114.863V60.64ZM86.7825 60.64V58.64H85.3028L84.87 60.055L86.7825 60.64ZM81.1665 79V81H82.6462L83.079 79.585L81.1665 79ZM63.5625 79L61.6756 78.3368L60.7396 81H63.5625V79ZM90.7785 1.564V-0.436001H89.3615L88.8916 0.900837L90.7785 1.564ZM110.759 1.564L112.645 0.898496L112.174 -0.436001H110.759V1.564ZM138.083 79V81H140.909L139.969 78.3345L138.083 79ZM105.359 28.996L103.44 29.5603L103.445 29.5771L103.45 29.5939L105.359 28.996ZM103.955 24.352L102.043 24.9402L102.043 24.9402L103.955 24.352ZM102.227 18.628L100.309 19.1962L100.309 19.1962L102.227 18.628ZM100.823 13.552L102.763 13.0669L98.8822 13.0669L100.823 13.552ZM99.3105 18.952L97.3949 18.3773L97.3884 18.3986L97.3825 18.4201L99.3105 18.952ZM97.5825 25L95.6649 24.4318L95.6578 24.4559L95.6513 24.4801L97.5825 25ZM96.3945 28.996L94.5149 28.3125L94.4976 28.3602L94.4827 28.4086L96.3945 28.996ZM90.8865 46.924L88.9747 46.3366L88.1798 48.924H90.8865V46.924ZM110.975 46.924V48.924H113.697L112.883 46.3261L110.975 46.924ZM122.391 78.415L116.775 60.055L112.95 61.225L118.566 79.585L122.391 78.415ZM114.863 58.64H86.7825V62.64H114.863V58.64ZM84.87 60.055L79.254 78.415L83.079 79.585L88.695 61.225L84.87 60.055ZM81.1665 77H63.5625V81H81.1665V77ZM65.4494 79.6632L92.6654 2.22716L88.8916 0.900837L61.6756 78.3368L65.4494 79.6632ZM90.7785 3.564H110.759V-0.436001H90.7785V3.564ZM108.872 2.2295L136.196 79.6655L139.969 78.3345L112.645 0.898496L108.872 2.2295ZM138.083 77H120.479V81H138.083V77ZM107.277 28.4317C106.914 27.1967 106.443 25.6401 105.866 23.7638L102.043 24.9402C102.618 26.8079 103.083 28.3473 103.44 29.5603L107.277 28.4317ZM105.866 23.7638C105.292 21.8987 104.718 19.9974 104.144 18.0598L100.309 19.1962C100.887 21.1466 101.465 23.0613 102.043 24.9402L105.866 23.7638ZM104.144 18.0598C103.574 16.1342 103.114 14.4711 102.763 13.0669L98.8822 14.0371C99.2512 15.5129 99.7275 17.2338 100.309 19.1962L104.144 18.0598ZM98.8822 13.0669C98.5325 14.4657 98.038 16.2335 97.3949 18.3773L101.226 19.5267C101.879 17.3505 102.392 15.5183 102.763 14.0371L98.8822 13.0669ZM97.3825 18.4201C96.8096 20.4968 96.2371 22.5007 95.6649 24.4318L99.5001 25.5682C100.08 23.6113 100.659 21.5832 101.238 19.4839L97.3825 18.4201ZM95.6513 24.4801C95.1481 26.349 94.771 27.6083 94.5149 28.3125L98.2741 29.6795C98.594 28.7997 99.0089 27.395 99.5137 25.5199L95.6513 24.4801ZM94.4827 28.4086L88.9747 46.3366L92.7983 47.5114L98.3063 29.5834L94.4827 28.4086ZM90.8865 48.924H110.975V44.924H90.8865V48.924ZM112.883 46.3261L107.267 28.3981L103.45 29.5939L109.066 47.5219L112.883 46.3261ZM170.148 16.252L169.253 14.4631L169.242 14.4685L169.232 14.474L170.148 16.252ZM164.1 21.544L165.706 22.7357L165.715 22.7236L165.724 22.7113L164.1 21.544ZM160.32 29.752L158.387 29.2367L158.382 29.2568L158.377 29.2771L160.32 29.752ZM161.076 54.7L159.178 55.3325L159.185 55.3538L159.193 55.3749L161.076 54.7ZM167.448 63.448L166.301 65.0865L166.301 65.0865L167.448 63.448ZM187.86 65.392L187.416 63.4417L187.407 63.444L187.86 65.392ZM198.12 62.368H200.12V59.5412L197.454 60.482L198.12 62.368ZM198.12 76.084L198.869 77.9382L200.12 77.4327V76.084H198.12ZM188.076 79.108L188.46 81.0708L188.46 81.0708L188.076 79.108ZM157.296 75.22L156.208 76.8985L156.222 76.9074L156.236 76.916L157.296 75.22ZM145.956 61.396L144.105 62.1541L144.108 62.162L145.956 61.396ZM144.66 24.568L146.56 25.1919L146.562 25.1836L144.66 24.568ZM151.572 11.932L150.068 10.6128L150.061 10.6216L150.053 10.6304L151.572 11.932ZM162.912 3.724L162.124 1.88568L162.113 1.89033L162.912 3.724ZM189.912 2.32L189.401 4.25367L189.422 4.25929L189.443 4.26444L189.912 2.32ZM201.036 6.208L202.894 6.94817L203.591 5.19802L201.885 4.39752L201.036 6.208ZM195.744 19.492L194.885 21.2986L196.812 22.2137L197.602 20.2322L195.744 19.492ZM186.996 15.928L186.335 17.8157L186.342 17.8182L186.349 17.8207L186.996 15.928ZM178.464 12.416C175.098 12.416 172.013 13.083 169.253 14.4631L171.042 18.0409C173.178 16.973 175.637 16.416 178.464 16.416V12.416ZM169.232 14.474C166.557 15.8517 164.304 17.8323 162.476 20.3767L165.724 22.7113C167.207 20.6477 168.986 19.1003 171.063 18.0299L169.232 14.474ZM162.493 20.3523C160.659 22.8243 159.303 25.8018 158.387 29.2367L162.252 30.2673C163.064 27.2222 164.228 24.7277 165.706 22.7357L162.493 20.3523ZM158.377 29.2771C157.54 32.7008 157.132 36.5 157.132 40.66H161.132C161.132 36.756 161.515 33.2832 162.262 30.2269L158.377 29.2771ZM157.132 40.66C157.132 46.2795 157.796 51.1851 159.178 55.3325L162.973 54.0675C161.763 50.4389 161.132 45.9845 161.132 40.66H157.132ZM159.193 55.3749C160.678 59.5188 163.032 62.7981 166.301 65.0865L168.594 61.8095C166.103 60.0659 164.209 57.5132 162.958 54.0251L159.193 55.3749ZM166.301 65.0865C169.597 67.3943 173.7 68.472 178.464 68.472V64.472C174.299 64.472 171.058 63.5337 168.594 61.8095L166.301 65.0865ZM178.464 68.472C181.785 68.472 185.069 68.0944 188.313 67.34L187.407 63.444C184.459 64.1296 181.479 64.472 178.464 64.472V68.472ZM188.303 67.3423C191.559 66.6022 195.054 65.5708 198.785 64.254L197.454 60.482C193.841 61.7572 190.496 62.7418 187.416 63.4417L188.303 67.3423ZM196.12 62.368V76.084H200.12V62.368H196.12ZM197.37 74.2298C194.095 75.5539 190.869 76.5236 187.692 77.1452L188.46 81.0708C191.906 80.3964 195.376 79.3501 198.869 77.9382L197.37 74.2298ZM187.692 77.1452C184.53 77.7638 180.953 78.08 176.952 78.08V82.08C181.158 82.08 184.997 81.7482 188.46 81.0708L187.692 77.1452ZM176.952 78.08C169.297 78.08 163.14 76.5146 158.356 73.524L156.236 76.916C161.819 80.4054 168.766 82.08 176.952 82.08V78.08ZM158.383 73.5415C153.628 70.4609 150.104 66.1794 147.803 60.63L144.108 62.162C146.703 68.4206 150.739 73.3551 156.208 76.8985L158.383 73.5415ZM147.806 60.6379C145.476 54.9503 144.284 48.2692 144.284 40.552H140.284C140.284 48.6748 141.539 55.8897 144.105 62.1541L147.806 60.6379ZM144.284 40.552C144.284 34.901 145.051 29.7872 146.56 25.1919L142.759 23.9441C141.1 28.9968 140.284 34.539 140.284 40.552H144.284ZM146.562 25.1836C148.074 20.5123 150.256 16.5401 153.09 13.2336L150.053 10.6304C146.839 14.3799 144.413 18.8316 142.757 23.9524L146.562 25.1836ZM153.075 13.2512C155.969 9.95278 159.506 7.38863 163.71 5.55767L162.113 1.89033C157.389 3.94736 153.366 6.85522 150.068 10.6128L153.075 13.2512ZM163.699 5.56229C167.945 3.74255 172.854 2.808 178.464 2.808V-1.192C172.409 -1.192 166.95 -0.182559 162.124 1.88571L163.699 5.56229ZM178.464 2.808C182.101 2.808 185.746 3.28819 189.401 4.25367L190.422 0.38632C186.445 -0.664195 182.458 -1.192 178.464 -1.192V2.808ZM189.443 4.26444C193.203 5.16963 196.783 6.4214 200.186 8.01847L201.885 4.39752C198.232 2.6826 194.396 1.34236 190.38 0.375549L189.443 4.26444ZM199.178 5.46782L193.886 18.7518L197.602 20.2322L202.894 6.94817L199.178 5.46782ZM196.602 17.6854C193.654 16.2854 190.668 15.0685 187.642 14.0353L186.349 17.8207C189.227 18.8035 192.073 19.9626 194.885 21.2986L196.602 17.6854ZM187.656 14.0403C184.582 12.9644 181.515 12.416 178.464 12.416V16.416C181.028 16.416 183.649 16.8756 186.335 17.8157L187.656 14.0403ZM276.497 79V81H280.123L278.189 77.9331L276.497 79ZM257.921 79L256.222 80.0554L256.809 81H257.921V79ZM237.725 46.492L239.424 45.4366L238.295 43.6194L236.558 44.868L237.725 46.492ZM230.813 51.46L229.646 49.836L228.813 50.4345V51.46H230.813ZM230.813 79V81H232.813V79H230.813ZM214.505 79H212.505V81H214.505V79ZM214.505 1.888V-0.112005H212.505V1.888H214.505ZM230.813 1.888H232.813V-0.112005H230.813V1.888ZM230.813 37.204H228.813V43.4449L232.441 38.3665L230.813 37.204ZM234.053 32.668L235.681 33.8305L235.681 33.8305L234.053 32.668ZM237.293 28.132L235.727 26.8881L235.695 26.928L235.666 26.9695L237.293 28.132ZM258.137 1.888V-0.112005H257.172L256.571 0.644115L258.137 1.888ZM276.281 1.888L277.852 3.12583L280.403 -0.112005H276.281V1.888ZM249.389 36.016L247.818 34.7782L246.944 35.8879L247.697 37.0829L249.389 36.016ZM276.497 77H257.921V81H276.497V77ZM259.62 77.9446L239.424 45.4366L236.026 47.5474L256.222 80.0554L259.62 77.9446ZM236.558 44.868L229.646 49.836L231.98 53.084L238.892 48.116L236.558 44.868ZM228.813 51.46V79H232.813V51.46H228.813ZM230.813 77H214.505V81H230.813V77ZM216.505 79V1.888H212.505V79H216.505ZM214.505 3.888H230.813V-0.112005H214.505V3.888ZM228.813 1.888V37.204H232.813V1.888H228.813ZM232.441 38.3665C233.521 36.8545 234.601 35.3425 235.681 33.8305L232.426 31.5055C231.346 33.0175 230.266 34.5295 229.186 36.0415L232.441 38.3665ZM235.681 33.8305C236.761 32.3185 237.841 30.8065 238.921 29.2945L235.666 26.9695C234.586 28.4815 233.506 29.9935 232.426 31.5055L235.681 33.8305ZM238.859 29.3759L259.703 3.13188L256.571 0.644115L235.727 26.8881L238.859 29.3759ZM258.137 3.888H276.281V-0.112005H258.137V3.888ZM274.71 0.650158L247.818 34.7782L250.96 37.2538L277.852 3.12583L274.71 0.650158ZM247.697 37.0829L274.805 80.0669L278.189 77.9331L251.081 34.9491L247.697 37.0829ZM330.612 79V81H332.612V79H330.612ZM286.224 79H284.224V81H286.224V79ZM286.224 1.888V-0.112005H284.224V1.888H286.224ZM330.612 1.888H332.612V-0.112005H330.612V1.888ZM330.612 15.28V17.28H332.612V15.28H330.612ZM302.532 15.28V13.28H300.532V15.28H302.532ZM302.532 32.236H300.532V34.236H302.532V32.236ZM328.668 32.236H330.668V30.236H328.668V32.236ZM328.668 45.628V47.628H330.668V45.628H328.668ZM302.532 45.628V43.628H300.532V45.628H302.532ZM302.532 65.5H300.532V67.5H302.532V65.5ZM330.612 65.5H332.612V63.5H330.612V65.5ZM330.612 77H286.224V81H330.612V77ZM288.224 79V1.888H284.224V79H288.224ZM286.224 3.888H330.612V-0.112005H286.224V3.888ZM328.612 1.888V15.28H332.612V1.888H328.612ZM330.612 13.28H302.532V17.28H330.612V13.28ZM300.532 15.28V32.236H304.532V15.28H300.532ZM302.532 34.236H328.668V30.236H302.532V34.236ZM326.668 32.236V45.628H330.668V32.236H326.668ZM328.668 43.628H302.532V47.628H328.668V43.628ZM300.532 45.628V65.5H304.532V45.628H300.532ZM302.532 67.5H330.612V63.5H302.532V67.5ZM328.612 65.5V79H332.612V65.5H328.612ZM415.022 79V81H417.022V79H415.022ZM394.286 79L392.552 79.9981L393.129 81H394.286V79ZM360.698 20.68L362.431 19.6818L361.854 18.68H360.698V20.68ZM360.266 20.68V18.68H358.184L358.267 20.7599L360.266 20.68ZM360.482 26.188L358.483 26.2649L358.483 26.2679L360.482 26.188ZM360.698 31.696L358.699 31.7729L358.701 31.8142L358.704 31.8555L360.698 31.696ZM361.022 37.204L359.023 37.2809L359.023 37.2839L361.022 37.204ZM361.238 42.712H363.238V42.6735L363.236 42.6351L361.238 42.712ZM361.238 79V81H363.238V79H361.238ZM346.658 79H344.658V81H346.658V79ZM346.658 1.888V-0.112005H344.658V1.888H346.658ZM367.286 1.888L369.016 0.885285L368.438 -0.112005H367.286V1.888ZM400.766 59.668L399.035 60.6707L399.613 61.668H400.766V59.668ZM401.09 59.668V61.668H403.171L403.088 59.5881L401.09 59.668ZM400.874 54.376L398.875 54.4559L398.875 54.4593L400.874 54.376ZM400.658 49.084H398.658V49.1256L398.659 49.1673L400.658 49.084ZM400.55 43.792L398.551 43.8719L398.551 43.8753L400.55 43.792ZM400.334 38.392H398.334V38.432L398.335 38.4719L400.334 38.392ZM400.334 1.888V-0.112005H398.334V1.888H400.334ZM415.022 1.888H417.022V-0.112005H415.022V1.888ZM415.022 77H394.286V81H415.022V77ZM396.019 78.0019L362.431 19.6818L358.964 21.6781L392.552 79.9981L396.019 78.0019ZM360.698 18.68H360.266V22.68H360.698V18.68ZM358.267 20.7599C358.339 22.5589 358.411 24.3938 358.483 26.2649L362.48 26.1111C362.408 24.2381 362.336 22.4011 362.264 20.6001L358.267 20.7599ZM358.483 26.2679C358.555 28.0669 358.627 29.9018 358.699 31.7729L362.696 31.6191C362.624 29.7461 362.552 27.9091 362.48 26.1081L358.483 26.2679ZM358.704 31.8555C358.846 33.627 358.952 35.4354 359.023 37.2809L363.02 37.1271C362.947 35.2286 362.837 33.365 362.691 31.5365L358.704 31.8555ZM359.023 37.2839C359.095 39.0829 359.167 40.9178 359.239 42.7889L363.236 42.6351C363.164 40.7621 363.092 38.9251 363.02 37.1241L359.023 37.2839ZM359.238 42.712V79H363.238V42.712H359.238ZM361.238 77H346.658V81H361.238V77ZM348.658 79V1.888H344.658V79H348.658ZM346.658 3.888H367.286V-0.112005H346.658V3.888ZM365.555 2.8907L399.035 60.6707L402.496 58.6653L369.016 0.885285L365.555 2.8907ZM400.766 61.668H401.09V57.668H400.766V61.668ZM403.088 59.5881C403.016 57.787 402.944 56.0219 402.872 54.2927L398.875 54.4593C398.947 56.1861 399.019 57.949 399.091 59.7479L403.088 59.5881ZM402.872 54.2961C402.8 52.495 402.728 50.7299 402.656 49.0007L398.659 49.1673C398.731 50.8941 398.803 52.657 398.875 54.4559L402.872 54.2961ZM402.658 49.084C402.658 47.2574 402.621 45.4656 402.548 43.7087L398.551 43.8753C398.622 45.5744 398.658 47.3106 398.658 49.084H402.658ZM402.548 43.7121C402.476 41.9121 402.404 40.1121 402.332 38.3121L398.335 38.4719C398.407 40.2719 398.479 42.0719 398.551 43.8719L402.548 43.7121ZM402.334 38.392V1.888H398.334V38.392H402.334ZM400.334 3.888H415.022V-0.112005H400.334V3.888ZM413.022 1.888V79H417.022V1.888H413.022ZM493.481 61.396L495.22 62.3836L495.22 62.3836L493.481 61.396ZM479.009 74.572L478.164 72.7591L478.156 72.7628L479.009 74.572ZM434.513 79H432.513V81H434.513V79ZM434.513 1.888V-0.112005H432.513V1.888H434.513ZM479.657 6.208L478.78 8.00555L478.789 8.00969L479.657 6.208ZM493.481 18.952L491.749 19.9514L491.756 19.9646L491.764 19.9777L493.481 18.952ZM479.009 26.08L480.832 25.2578L479.009 26.08ZM471.557 17.98L470.586 19.7283L470.609 19.741L470.632 19.7532L471.557 17.98ZM450.821 15.28V13.28H448.821V15.28H450.821ZM450.821 65.5H448.821V67.5H450.821V65.5ZM475.661 59.128L474.186 57.7777L474.186 57.7777L475.661 59.128ZM496.449 39.688C496.449 48.0792 494.84 54.9522 491.742 60.4083L495.22 62.3836C498.746 56.1758 500.449 48.5768 500.449 39.688H496.449ZM491.742 60.4083C488.644 65.8631 484.141 69.9747 478.164 72.7591L479.854 76.3849C486.549 73.2653 491.694 68.5929 495.22 62.3836L491.742 60.4083ZM478.156 72.7628C472.223 75.5592 464.97 77 456.329 77V81C465.4 81 473.267 79.4888 479.862 76.3812L478.156 72.7628ZM456.329 77H434.513V81H456.329V77ZM436.513 79V1.888H432.513V79H436.513ZM434.513 3.888H458.705V-0.112005H434.513V3.888ZM458.705 3.888C466.533 3.888 473.204 5.28561 478.78 8.00553L480.534 4.41046C474.302 1.37038 467.005 -0.112005 458.705 -0.112005V3.888ZM478.789 8.00969C484.412 10.7195 488.714 14.6921 491.749 19.9514L495.213 17.9525C491.768 11.9799 486.854 7.45651 480.525 4.40631L478.789 8.00969ZM491.764 19.9777C494.845 25.1357 496.449 31.669 496.449 39.688H500.449C500.449 31.147 498.741 23.8563 495.198 17.9263L491.764 19.9777ZM483.493 40.12C483.493 34.2572 482.642 29.2717 480.832 25.2578L477.186 26.9022C478.688 30.2323 479.493 34.6068 479.493 40.12H483.493ZM480.832 25.2578C479.007 21.2113 476.224 18.1589 472.482 16.2068L470.632 19.7532C473.514 21.2571 475.699 23.6047 477.186 26.9022L480.832 25.2578ZM472.528 16.2317C468.919 14.2264 464.567 13.28 459.569 13.28V17.28C464.075 17.28 467.715 18.1336 470.586 19.7283L472.528 16.2317ZM459.569 13.28H450.821V17.28H459.569V13.28ZM448.821 15.28V65.5H452.821V15.28H448.821ZM450.821 67.5H457.841V63.5H450.821V67.5ZM457.841 67.5C466.169 67.5 472.74 65.2812 477.136 60.4783L474.186 57.7777C470.805 61.4708 465.497 63.5 457.841 63.5V67.5ZM477.136 60.4783C481.489 55.7223 483.493 48.816 483.493 40.12H479.493C479.493 48.272 477.609 54.0377 474.186 57.7777L477.136 60.4783Z" fill="#2C507A" mask="url(#path-1-outside-1_1_3)"/>
</svg>
