<svg width="754" height="81" viewBox="0 0 754 81" fill="none" xmlns="http://www.w3.org/2000/svg">
<mask id="path-1-outside-1_1_4" maskUnits="userSpaceOnUse" x="-2" y="-2" width="758" height="85" fill="black">
<rect fill="white" x="-2" y="-2" width="758" height="85"/>
<path d="M25.344 1.888C35.28 1.888 42.516 4.048 47.052 8.368C51.66 12.616 53.964 18.484 53.964 25.972C53.964 29.356 53.46 32.596 52.452 35.692C51.444 38.716 49.752 41.452 47.376 43.9C45.072 46.276 42.012 48.148 38.196 49.516C34.38 50.884 29.664 51.568 24.048 51.568H17.028V79H0.72V1.888H25.344ZM24.48 15.28H17.028V38.176H22.428C25.524 38.176 28.188 37.78 30.42 36.988C32.652 36.196 34.38 34.936 35.604 33.208C36.828 31.48 37.44 29.248 37.44 26.512C37.44 22.696 36.396 19.888 34.308 18.088C32.22 16.216 28.944 15.28 24.48 15.28ZM91.0004 1.888C97.9844 1.888 103.744 2.75199 108.28 4.47999C112.816 6.13599 116.2 8.692 118.432 12.148C120.664 15.532 121.78 19.816 121.78 25C121.78 28.528 121.096 31.624 119.728 34.288C118.432 36.88 116.668 39.112 114.436 40.984C112.276 42.784 109.936 44.26 107.416 45.412L130.096 79H111.952L93.5924 49.408H84.8444V79H68.5364V1.888H91.0004ZM89.8124 15.28H84.8444V36.124H90.1364C93.7364 36.124 96.6524 35.728 98.8844 34.936C101.116 34.144 102.736 32.956 103.744 31.372C104.752 29.716 105.256 27.736 105.256 25.432C105.256 22.984 104.68 21.04 103.528 19.6C102.448 18.088 100.756 17.008 98.4524 16.36C96.2204 15.64 93.3404 15.28 89.8124 15.28ZM209.817 40.336C209.817 46.312 209.061 51.748 207.549 56.644C206.109 61.468 203.877 65.644 200.853 69.172C197.901 72.7 194.085 75.4 189.405 77.272C184.797 79.144 179.361 80.08 173.097 80.08C166.833 80.08 161.361 79.144 156.681 77.272C152.073 75.328 148.257 72.628 145.233 69.172C142.281 65.644 140.049 61.432 138.537 56.536C137.097 51.64 136.377 46.204 136.377 40.228C136.377 32.236 137.673 25.288 140.265 19.384C142.929 13.48 146.961 8.908 152.361 5.668C157.833 2.356 164.781 0.699997 173.205 0.699997C181.557 0.699997 188.433 2.356 193.833 5.668C199.233 8.908 203.229 13.516 205.821 19.492C208.485 25.396 209.817 32.344 209.817 40.336ZM153.549 40.336C153.549 45.736 154.233 50.38 155.601 54.268C156.969 58.156 159.093 61.144 161.973 63.232C164.853 65.32 168.561 66.364 173.097 66.364C177.777 66.364 181.521 65.32 184.329 63.232C187.209 61.144 189.297 58.156 190.593 54.268C191.961 50.38 192.645 45.736 192.645 40.336C192.645 32.2 191.133 25.828 188.109 21.22C185.085 16.612 180.117 14.308 173.205 14.308C168.597 14.308 164.853 15.352 161.973 17.44C159.093 19.528 156.969 22.516 155.601 26.404C154.233 30.292 153.549 34.936 153.549 40.336ZM252.221 79H235.913V15.496H214.961V1.888H273.173V15.496H252.221V79ZM352.938 40.336C352.938 46.312 352.182 51.748 350.67 56.644C349.23 61.468 346.998 65.644 343.974 69.172C341.022 72.7 337.206 75.4 332.526 77.272C327.918 79.144 322.482 80.08 316.218 80.08C309.954 80.08 304.482 79.144 299.802 77.272C295.194 75.328 291.378 72.628 288.354 69.172C285.402 65.644 283.17 61.432 281.658 56.536C280.218 51.64 279.498 46.204 279.498 40.228C279.498 32.236 280.794 25.288 283.386 19.384C286.05 13.48 290.082 8.908 295.482 5.668C300.954 2.356 307.902 0.699997 316.326 0.699997C324.678 0.699997 331.554 2.356 336.954 5.668C342.354 8.908 346.35 13.516 348.942 19.492C351.606 25.396 352.938 32.344 352.938 40.336ZM296.67 40.336C296.67 45.736 297.354 50.38 298.722 54.268C300.09 58.156 302.214 61.144 305.094 63.232C307.974 65.32 311.682 66.364 316.218 66.364C320.898 66.364 324.642 65.32 327.45 63.232C330.33 61.144 332.418 58.156 333.714 54.268C335.082 50.38 335.766 45.736 335.766 40.336C335.766 32.2 334.254 25.828 331.23 21.22C328.206 16.612 323.238 14.308 316.326 14.308C311.718 14.308 307.974 15.352 305.094 17.44C302.214 19.528 300.09 22.516 298.722 26.404C297.354 30.292 296.67 34.936 296.67 40.336ZM395.342 79H379.034V15.496H358.082V1.888H416.294V15.496H395.342V79ZM452.161 33.64L468.253 1.888H485.857L460.261 48.976V79H444.061V49.516L418.465 1.888H436.177L452.161 33.64ZM520.203 1.888C530.139 1.888 537.375 4.048 541.911 8.368C546.519 12.616 548.823 18.484 548.823 25.972C548.823 29.356 548.319 32.596 547.311 35.692C546.303 38.716 544.611 41.452 542.235 43.9C539.931 46.276 536.871 48.148 533.055 49.516C529.239 50.884 524.523 51.568 518.907 51.568H511.887V79H495.579V1.888H520.203ZM519.339 15.28H511.887V38.176H517.287C520.383 38.176 523.047 37.78 525.279 36.988C527.511 36.196 529.239 34.936 530.463 33.208C531.687 31.48 532.299 29.248 532.299 26.512C532.299 22.696 531.255 19.888 529.167 18.088C527.079 16.216 523.803 15.28 519.339 15.28ZM592.232 79H557.132V69.712L566.528 65.392V15.496L557.132 11.176V1.888H592.232V11.176L582.836 15.496V65.392L592.232 69.712V79ZM673.736 79H653L619.412 20.68H618.98C619.052 22.48 619.124 24.316 619.196 26.188C619.268 27.988 619.34 29.824 619.412 31.696C619.556 33.496 619.664 35.332 619.736 37.204C619.808 39.004 619.88 40.84 619.952 42.712V79H605.372V1.888H626L659.48 59.668H659.804C659.732 57.868 659.66 56.104 659.588 54.376C659.516 52.576 659.444 50.812 659.372 49.084C659.372 47.284 659.336 45.52 659.264 43.792C659.192 41.992 659.12 40.192 659.048 38.392V1.888H673.736V79ZM722.496 35.692H753.06V75.652C749.028 77.02 744.816 78.1 740.424 78.892C736.104 79.684 731.172 80.08 725.628 80.08C717.996 80.08 711.48 78.568 706.08 75.544C700.752 72.52 696.684 68.056 693.876 62.152C691.14 56.248 689.772 48.976 689.772 40.336C689.772 32.272 691.32 25.288 694.416 19.384C697.584 13.48 702.156 8.908 708.132 5.668C714.108 2.428 721.416 0.807996 730.056 0.807996C734.16 0.807996 738.192 1.24 742.152 2.104C746.112 2.968 749.712 4.12 752.952 5.56L747.552 18.628C745.176 17.404 742.476 16.396 739.452 15.604C736.428 14.812 733.26 14.416 729.948 14.416C725.196 14.416 721.056 15.496 717.528 17.656C714.072 19.816 711.372 22.876 709.428 26.836C707.556 30.724 706.62 35.332 706.62 40.66C706.62 45.7 707.304 50.164 708.672 54.052C710.04 57.94 712.2 61 715.152 63.232C718.104 65.392 721.956 66.472 726.708 66.472C728.292 66.472 729.66 66.436 730.812 66.364C732.036 66.22 733.152 66.076 734.16 65.932C735.168 65.716 736.14 65.536 737.076 65.392V49.3H722.496V35.692Z"/>
</mask>
<path d="M47.052 8.368L45.6727 9.81627L45.6845 9.82747L45.6964 9.83848L47.052 8.368ZM52.452 35.692L54.3494 36.3245L54.3537 36.3112L52.452 35.692ZM47.376 43.9L45.9408 42.507L45.9402 42.5077L47.376 43.9ZM38.196 49.516L38.8709 51.3987L38.8709 51.3987L38.196 49.516ZM17.028 51.568V49.568H15.028V51.568H17.028ZM17.028 79V81H19.028V79H17.028ZM0.72 79H-1.28V81H0.72V79ZM0.72 1.888V-0.112005H-1.28V1.888H0.72ZM17.028 15.28V13.28H15.028V15.28H17.028ZM17.028 38.176H15.028V40.176H17.028V38.176ZM30.42 36.988L29.7512 35.1031L29.7512 35.1031L30.42 36.988ZM35.604 33.208L33.972 32.052L33.972 32.052L35.604 33.208ZM34.308 18.088L32.9729 19.5771L32.9874 19.5901L33.0021 19.6028L34.308 18.088ZM25.344 3.888C35.0551 3.888 41.6751 6.00907 45.6727 9.81627L48.4313 6.91972C43.3569 2.08692 35.5049 -0.112005 25.344 -0.112005V3.888ZM45.6964 9.83848C49.8142 13.6345 51.964 18.9245 51.964 25.972H55.964C55.964 18.0435 53.5058 11.5974 48.4076 6.89751L45.6964 9.83848ZM51.964 25.972C51.964 29.1541 51.4906 32.1845 50.5503 35.0728L54.3537 36.3112C55.4294 33.0074 55.964 29.5579 55.964 25.972H51.964ZM50.5546 35.0595C49.6482 37.7788 48.1226 40.2592 45.9408 42.507L48.8112 45.2929C51.3814 42.6448 53.2398 39.6532 54.3494 36.3245L50.5546 35.0595ZM45.9402 42.5077C43.8915 44.6204 41.1129 46.3457 37.5211 47.6333L38.8709 51.3987C42.9111 49.9503 46.2525 47.9316 48.8118 45.2923L45.9402 42.5077ZM37.5211 47.6333C33.9874 48.9001 29.5161 49.568 24.048 49.568V53.568C29.8119 53.568 34.7726 52.8679 38.8709 51.3987L37.5211 47.6333ZM24.048 49.568H17.028V53.568H24.048V49.568ZM15.028 51.568V79H19.028V51.568H15.028ZM17.028 77H0.72V81H17.028V77ZM2.72 79V1.888H-1.28V79H2.72ZM0.72 3.888H25.344V-0.112005H0.72V3.888ZM24.48 13.28H17.028V17.28H24.48V13.28ZM15.028 15.28V38.176H19.028V15.28H15.028ZM17.028 40.176H22.428V36.176H17.028V40.176ZM22.428 40.176C25.6857 40.176 28.5875 39.7604 31.0888 38.8729L29.7512 35.1031C27.7885 35.7996 25.3623 36.176 22.428 36.176V40.176ZM31.0888 38.8729C33.6614 37.96 35.7459 36.4677 37.2361 34.364L33.972 32.052C33.0141 33.4043 31.6426 34.432 29.7512 35.1031L31.0888 38.8729ZM37.2361 34.364C38.7608 32.2114 39.44 29.5415 39.44 26.512H35.44C35.44 28.9545 34.8952 30.7486 33.972 32.052L37.2361 34.364ZM39.44 26.512C39.44 22.3475 38.293 18.8828 35.6139 16.5732L33.0021 19.6028C34.499 20.8932 35.44 23.0445 35.44 26.512H39.44ZM35.6431 16.5989C33.0242 14.2509 29.1599 13.28 24.48 13.28V17.28C28.7281 17.28 31.4158 18.1811 32.9729 19.5771L35.6431 16.5989ZM108.28 4.47999L107.568 6.34897L107.581 6.35393L107.595 6.35871L108.28 4.47999ZM118.432 12.148L116.752 13.233L116.758 13.2411L116.763 13.2492L118.432 12.148ZM119.728 34.288L117.949 33.3744L117.944 33.384L117.94 33.3936L119.728 34.288ZM114.436 40.984L115.717 42.5204L115.722 42.5164L114.436 40.984ZM107.416 45.412L106.585 43.593L104.438 44.5746L105.759 46.5312L107.416 45.412ZM130.096 79V81H133.86L131.754 77.8808L130.096 79ZM111.952 79L110.253 80.0544L110.84 81H111.952V79ZM93.5924 49.408L95.2919 48.3536L94.7052 47.408H93.5924V49.408ZM84.8444 49.408V47.408H82.8444V49.408H84.8444ZM84.8444 79V81H86.8444V79H84.8444ZM68.5364 79H66.5364V81H68.5364V79ZM68.5364 1.888V-0.112005H66.5364V1.888H68.5364ZM84.8444 15.28V13.28H82.8444V15.28H84.8444ZM84.8444 36.124H82.8444V38.124H84.8444V36.124ZM98.8844 34.936L99.5532 36.8209L99.5532 36.8209L98.8844 34.936ZM103.744 31.372L105.432 32.4457L105.442 32.4289L105.453 32.4119L103.744 31.372ZM103.528 19.6L101.901 20.7625L101.933 20.8068L101.967 20.8494L103.528 19.6ZM98.4524 16.36L97.8384 18.2634L97.8745 18.275L97.9109 18.2853L98.4524 16.36ZM91.0004 3.888C97.8389 3.888 103.336 4.73666 107.568 6.34897L108.992 2.61102C104.153 0.767326 98.1299 -0.112005 91.0004 -0.112005V3.888ZM107.595 6.35871C111.795 7.89229 114.796 10.2035 116.752 13.233L120.112 11.0629C117.605 7.18044 113.838 4.37969 108.966 2.60128L107.595 6.35871ZM116.763 13.2492C118.727 16.2263 119.78 20.0991 119.78 25H123.78C123.78 19.5329 122.602 14.8377 120.102 11.0468L116.763 13.2492ZM119.78 25C119.78 28.2667 119.148 31.0393 117.949 33.3744L121.508 35.2016C123.044 32.2087 123.78 28.7893 123.78 25H119.78ZM117.94 33.3936C116.767 35.7394 115.175 37.7546 113.151 39.4516L115.722 42.5164C118.162 40.4694 120.098 38.0206 121.517 35.1824L117.94 33.3936ZM113.156 39.4476C111.13 41.1356 108.941 42.516 106.585 43.593L108.248 47.2309C110.932 46.004 113.422 44.4324 115.717 42.5204L113.156 39.4476ZM105.759 46.5312L128.439 80.1192L131.754 77.8808L109.074 44.2928L105.759 46.5312ZM130.096 77H111.952V81H130.096V77ZM113.652 77.9456L95.2919 48.3536L91.8929 50.4624L110.253 80.0544L113.652 77.9456ZM93.5924 47.408H84.8444V51.408H93.5924V47.408ZM82.8444 49.408V79H86.8444V49.408H82.8444ZM84.8444 77H68.5364V81H84.8444V77ZM70.5364 79V1.888H66.5364V79H70.5364ZM68.5364 3.888H91.0004V-0.112005H68.5364V3.888ZM89.8124 13.28H84.8444V17.28H89.8124V13.28ZM82.8444 15.28V36.124H86.8444V15.28H82.8444ZM84.8444 38.124H90.1364V34.124H84.8444V38.124ZM90.1364 38.124C93.8583 38.124 97.0253 37.7179 99.5532 36.8209L98.2156 33.0511C96.2795 33.7381 93.6145 34.124 90.1364 34.124V38.124ZM99.5532 36.8209C102.094 35.9193 104.127 34.4953 105.432 32.4457L102.057 30.2982C101.345 31.4167 100.139 32.3687 98.2156 33.0511L99.5532 36.8209ZM105.453 32.4119C106.685 30.3879 107.256 28.0331 107.256 25.432H103.256C103.256 27.4389 102.82 29.0441 102.036 30.3321L105.453 32.4119ZM107.256 25.432C107.256 22.679 106.607 20.2464 105.09 18.3506L101.967 20.8494C102.754 21.8336 103.256 23.289 103.256 25.432H107.256ZM105.156 18.4375C103.743 16.4597 101.608 15.17 98.9939 14.4347L97.9109 18.2853C99.9046 18.846 101.154 19.7163 101.901 20.7625L105.156 18.4375ZM99.0664 14.4566C96.5629 13.649 93.4548 13.28 89.8124 13.28V17.28C93.226 17.28 95.8779 17.631 97.8384 18.2634L99.0664 14.4566ZM207.549 56.644L205.638 56.0539L205.636 56.0629L205.633 56.0719L207.549 56.644ZM200.853 69.172L199.335 67.8704L199.327 67.8794L199.319 67.8886L200.853 69.172ZM189.405 77.272L188.662 75.415L188.653 75.4191L189.405 77.272ZM156.681 77.272L155.904 79.1147L155.921 79.122L155.939 79.129L156.681 77.272ZM145.233 69.172L143.699 70.4554L143.714 70.4724L143.728 70.489L145.233 69.172ZM138.537 56.536L136.619 57.1003L136.622 57.1133L136.626 57.1261L138.537 56.536ZM140.265 19.384L138.442 18.5614L138.438 18.5707L138.434 18.58L140.265 19.384ZM152.361 5.668L153.39 7.383L153.397 7.379L152.361 5.668ZM193.833 5.668L192.788 7.37287L192.796 7.37797L192.804 7.38298L193.833 5.668ZM205.821 19.492L203.986 20.2878L203.992 20.3012L203.998 20.3146L205.821 19.492ZM161.973 63.232L163.147 61.6128L163.147 61.6128L161.973 63.232ZM184.329 63.232L183.155 61.6128L183.146 61.6199L183.136 61.6271L184.329 63.232ZM190.593 54.268L188.707 53.6042L188.701 53.6198L188.696 53.6355L190.593 54.268ZM188.109 21.22L186.437 22.3173L186.437 22.3173L188.109 21.22ZM161.973 17.44L160.799 15.8208L160.799 15.8208L161.973 17.44ZM155.601 26.404L153.715 25.7402L155.601 26.404ZM207.817 40.336C207.817 46.1444 207.082 51.3777 205.638 56.0539L209.46 57.2341C211.04 52.1183 211.817 46.4796 211.817 40.336H207.817ZM205.633 56.0719C204.266 60.6502 202.162 64.5723 199.335 67.8704L202.372 70.4736C205.593 66.7157 207.952 62.2858 209.466 57.2161L205.633 56.0719ZM199.319 67.8886C196.599 71.1392 193.065 73.6538 188.663 75.415L190.148 79.129C195.105 77.1462 199.203 74.2608 202.387 70.4554L199.319 67.8886ZM188.653 75.4191C184.337 77.1723 179.168 78.08 173.097 78.08V82.08C179.555 82.08 185.258 81.1157 190.158 79.1249L188.653 75.4191ZM173.097 78.08C167.028 78.08 161.818 77.1727 157.424 75.415L155.939 79.129C160.904 81.1153 166.638 82.08 173.097 82.08V78.08ZM157.459 75.4293C153.105 73.5924 149.546 71.0631 146.738 67.855L143.728 70.489C146.969 74.1929 151.042 77.0636 155.904 79.1147L157.459 75.4293ZM146.767 67.8886C144.004 64.5863 141.891 60.6169 140.448 55.9459L136.626 57.1261C138.208 62.2471 140.558 66.7017 143.699 70.4554L146.767 67.8886ZM140.456 55.9717C139.078 51.2871 138.377 46.0447 138.377 40.228H134.377C134.377 46.3633 135.116 51.9929 136.619 57.1003L140.456 55.9717ZM138.377 40.228C138.377 32.4484 139.639 25.7856 142.097 20.188L138.434 18.58C135.707 24.7904 134.377 32.0236 134.377 40.228H138.377ZM142.088 20.2066C144.59 14.6627 148.35 10.4071 153.39 7.38298L151.332 3.95301C145.572 7.40894 141.269 12.2973 138.442 18.5614L142.088 20.2066ZM153.397 7.379C158.472 4.30701 165.034 2.7 173.205 2.7V-1.3C164.529 -1.3 157.194 0.404986 151.326 3.957L153.397 7.379ZM173.205 2.7C181.303 2.7 187.787 4.30612 192.788 7.37287L194.879 3.96312C189.079 0.405878 181.812 -1.3 173.205 -1.3V2.7ZM192.804 7.38298C197.833 10.4005 201.554 14.6808 203.986 20.2878L207.656 18.6962C204.904 12.3512 200.633 7.41554 194.862 3.95301L192.804 7.38298ZM203.998 20.3146C206.522 25.907 207.817 32.563 207.817 40.336H211.817C211.817 32.125 210.449 24.885 207.644 18.6694L203.998 20.3146ZM151.549 40.336C151.549 45.8959 152.252 50.776 153.715 54.9318L157.488 53.6042C156.214 49.984 155.549 45.5761 155.549 40.336H151.549ZM153.715 54.9318C155.196 59.1406 157.54 62.4884 160.799 64.8512L163.147 61.6128C160.646 59.7996 158.743 57.1713 157.488 53.6042L153.715 54.9318ZM160.799 64.8512C164.104 67.2473 168.256 68.364 173.097 68.364V64.364C168.866 64.364 165.602 63.3927 163.147 61.6128L160.799 64.8512ZM173.097 68.364C178.063 68.364 182.27 67.2557 185.523 64.8369L183.136 61.6271C180.773 63.3843 177.491 64.364 173.097 64.364V68.364ZM185.503 64.8512C188.771 62.4819 191.083 59.1224 192.491 54.9005L188.696 53.6355C187.511 57.1896 185.647 59.8061 183.155 61.6128L185.503 64.8512ZM192.48 54.9318C193.942 50.776 194.645 45.8959 194.645 40.336H190.645C190.645 45.5761 189.98 49.984 188.707 53.6042L192.48 54.9318ZM194.645 40.336C194.645 31.9851 193.098 25.1773 189.781 20.1227L186.437 22.3173C189.168 26.4787 190.645 32.4149 190.645 40.336H194.645ZM189.781 20.1227C186.292 14.8061 180.597 12.308 173.205 12.308V16.308C179.638 16.308 183.878 18.4179 186.437 22.3173L189.781 20.1227ZM173.205 12.308C168.3 12.308 164.109 13.4211 160.799 15.8208L163.147 19.0592C165.597 17.2829 168.895 16.308 173.205 16.308V12.308ZM160.799 15.8208C157.54 18.1836 155.196 21.5313 153.715 25.7402L157.488 27.0678C158.743 23.5006 160.646 20.8724 163.147 19.0592L160.799 15.8208ZM153.715 25.7402C152.252 29.896 151.549 34.7761 151.549 40.336H155.549C155.549 35.0959 156.214 30.688 157.488 27.0678L153.715 25.7402ZM252.221 79V81H254.221V79H252.221ZM235.913 79H233.913V81H235.913V79ZM235.913 15.496H237.913V13.496H235.913V15.496ZM214.961 15.496H212.961V17.496H214.961V15.496ZM214.961 1.888V-0.112005H212.961V1.888H214.961ZM273.173 1.888H275.173V-0.112005H273.173V1.888ZM273.173 15.496V17.496H275.173V15.496H273.173ZM252.221 15.496V13.496H250.221V15.496H252.221ZM252.221 77H235.913V81H252.221V77ZM237.913 79V15.496H233.913V79H237.913ZM235.913 13.496H214.961V17.496H235.913V13.496ZM216.961 15.496V1.888H212.961V15.496H216.961ZM214.961 3.888H273.173V-0.112005H214.961V3.888ZM271.173 1.888V15.496H275.173V1.888H271.173ZM273.173 13.496H252.221V17.496H273.173V13.496ZM250.221 15.496V79H254.221V15.496H250.221ZM350.67 56.644L348.759 56.0539L348.757 56.0629L348.754 56.0719L350.67 56.644ZM343.974 69.172L342.456 67.8704L342.448 67.8794L342.441 67.8886L343.974 69.172ZM332.526 77.272L331.784 75.415L331.774 75.4191L332.526 77.272ZM299.802 77.272L299.025 79.1147L299.042 79.122L299.06 79.129L299.802 77.272ZM288.354 69.172L286.821 70.4554L286.835 70.4724L286.849 70.489L288.354 69.172ZM281.658 56.536L279.74 57.1003L279.743 57.1133L279.747 57.1261L281.658 56.536ZM283.386 19.384L281.563 18.5614L281.559 18.5707L281.555 18.58L283.386 19.384ZM295.482 5.668L296.511 7.383L296.518 7.379L295.482 5.668ZM336.954 5.668L335.909 7.37287L335.917 7.37797L335.925 7.38298L336.954 5.668ZM348.942 19.492L347.108 20.2878L347.113 20.3012L347.119 20.3146L348.942 19.492ZM305.094 63.232L306.268 61.6128L306.268 61.6128L305.094 63.232ZM327.45 63.232L326.276 61.6128L326.267 61.6199L326.257 61.6271L327.45 63.232ZM333.714 54.268L331.828 53.6042L331.822 53.6198L331.817 53.6355L333.714 54.268ZM331.23 21.22L329.558 22.3173L329.558 22.3173L331.23 21.22ZM305.094 17.44L303.92 15.8208L303.92 15.8208L305.094 17.44ZM298.722 26.404L296.836 25.7402L298.722 26.404ZM350.938 40.336C350.938 46.1444 350.204 51.3777 348.759 56.0539L352.581 57.2341C354.161 52.1183 354.938 46.4796 354.938 40.336H350.938ZM348.754 56.0719C347.387 60.6502 345.283 64.5723 342.456 67.8704L345.493 70.4736C348.714 66.7157 351.073 62.2858 352.587 57.2161L348.754 56.0719ZM342.441 67.8886C339.721 71.1392 336.187 73.6538 331.784 75.415L333.269 79.129C338.226 77.1462 342.324 74.2608 345.508 70.4554L342.441 67.8886ZM331.774 75.4191C327.458 77.1723 322.289 78.08 316.218 78.08V82.08C322.676 82.08 328.379 81.1157 333.279 79.1249L331.774 75.4191ZM316.218 78.08C310.149 78.08 304.939 77.1727 300.545 75.415L299.06 79.129C304.026 81.1153 309.76 82.08 316.218 82.08V78.08ZM300.58 75.4293C296.226 73.5924 292.667 71.0631 289.86 67.855L286.849 70.489C290.09 74.1929 294.163 77.0636 299.025 79.1147L300.58 75.4293ZM289.888 67.8886C287.125 64.5863 285.012 60.6169 283.569 55.9459L279.747 57.1261C281.329 62.2471 283.68 66.7017 286.821 70.4554L289.888 67.8886ZM283.577 55.9717C282.199 51.2871 281.498 46.0447 281.498 40.228H277.498C277.498 46.3633 278.237 51.9929 279.74 57.1003L283.577 55.9717ZM281.498 40.228C281.498 32.4484 282.76 25.7856 285.218 20.188L281.555 18.58C278.829 24.7904 277.498 32.0236 277.498 40.228H281.498ZM285.209 20.2066C287.711 14.6627 291.471 10.4071 296.511 7.38298L294.453 3.95301C288.694 7.40894 284.39 12.2973 281.563 18.5614L285.209 20.2066ZM296.518 7.379C301.593 4.30701 308.155 2.7 316.326 2.7V-1.3C307.65 -1.3 300.315 0.404986 294.447 3.957L296.518 7.379ZM316.326 2.7C324.424 2.7 330.909 4.30612 335.909 7.37287L338 3.96312C332.2 0.405878 324.933 -1.3 316.326 -1.3V2.7ZM335.925 7.38298C340.955 10.4005 344.676 14.6808 347.108 20.2878L350.777 18.6962C348.025 12.3512 343.754 7.41554 337.983 3.95301L335.925 7.38298ZM347.119 20.3146C349.643 25.907 350.938 32.563 350.938 40.336H354.938C354.938 32.125 353.57 24.885 350.765 18.6694L347.119 20.3146ZM294.67 40.336C294.67 45.8959 295.374 50.776 296.836 54.9318L300.609 53.6042C299.335 49.984 298.67 45.5761 298.67 40.336H294.67ZM296.836 54.9318C298.317 59.1406 300.661 62.4884 303.92 64.8512L306.268 61.6128C303.767 59.7996 301.864 57.1713 300.609 53.6042L296.836 54.9318ZM303.92 64.8512C307.225 67.2473 311.377 68.364 316.218 68.364V64.364C311.988 64.364 308.723 63.3927 306.268 61.6128L303.92 64.8512ZM316.218 68.364C321.185 68.364 325.391 67.2557 328.644 64.8369L326.257 61.6271C323.894 63.3843 320.612 64.364 316.218 64.364V68.364ZM328.624 64.8512C331.892 62.4819 334.204 59.1224 335.612 54.9005L331.817 53.6355C330.632 57.1896 328.768 59.8061 326.276 61.6128L328.624 64.8512ZM335.601 54.9318C337.063 50.776 337.766 45.8959 337.766 40.336H333.766C333.766 45.5761 333.102 49.984 331.828 53.6042L335.601 54.9318ZM337.766 40.336C337.766 31.9851 336.22 25.1773 332.902 20.1227L329.558 22.3173C332.289 26.4787 333.766 32.4149 333.766 40.336H337.766ZM332.902 20.1227C329.413 14.8061 323.718 12.308 316.326 12.308V16.308C322.759 16.308 326.999 18.4179 329.558 22.3173L332.902 20.1227ZM316.326 12.308C311.421 12.308 307.23 13.4211 303.92 15.8208L306.268 19.0592C308.718 17.2829 312.016 16.308 316.326 16.308V12.308ZM303.92 15.8208C300.661 18.1836 298.317 21.5313 296.836 25.7402L300.609 27.0678C301.864 23.5006 303.767 20.8724 306.268 19.0592L303.92 15.8208ZM296.836 25.7402C295.374 29.896 294.67 34.7761 294.67 40.336H298.67C298.67 35.0959 299.335 30.688 300.609 27.0678L296.836 25.7402ZM395.342 79V81H397.342V79H395.342ZM379.034 79H377.034V81H379.034V79ZM379.034 15.496H381.034V13.496H379.034V15.496ZM358.082 15.496H356.082V17.496H358.082V15.496ZM358.082 1.888V-0.112005H356.082V1.888H358.082ZM416.294 1.888H418.294V-0.112005H416.294V1.888ZM416.294 15.496V17.496H418.294V15.496H416.294ZM395.342 15.496V13.496H393.342V15.496H395.342ZM395.342 77H379.034V81H395.342V77ZM381.034 79V15.496H377.034V79H381.034ZM379.034 13.496H358.082V17.496H379.034V13.496ZM360.082 15.496V1.888H356.082V15.496H360.082ZM358.082 3.888H416.294V-0.112005H358.082V3.888ZM414.294 1.888V15.496H418.294V1.888H414.294ZM416.294 13.496H395.342V17.496H416.294V13.496ZM393.342 15.496V79H397.342V15.496H393.342ZM452.161 33.64L450.374 34.5393L452.155 38.076L453.945 34.5441L452.161 33.64ZM468.253 1.888V-0.112005H467.024L466.469 0.983872L468.253 1.888ZM485.857 1.888L487.614 2.84316L489.22 -0.112005H485.857V1.888ZM460.261 48.976L458.504 48.0208L458.261 48.4676V48.976H460.261ZM460.261 79V81H462.261V79H460.261ZM444.061 79H442.061V81H444.061V79ZM444.061 49.516H446.061V49.0126L445.823 48.5692L444.061 49.516ZM418.465 1.888V-0.112005H415.119L416.703 2.83476L418.465 1.888ZM436.177 1.888L437.963 0.98871L437.409 -0.112005H436.177V1.888ZM453.945 34.5441L470.037 2.79212L466.469 0.983872L450.377 32.7359L453.945 34.5441ZM468.253 3.888H485.857V-0.112005H468.253V3.888ZM484.1 0.932833L458.504 48.0208L462.018 49.9312L487.614 2.84316L484.1 0.932833ZM458.261 48.976V79H462.261V48.976H458.261ZM460.261 77H444.061V81H460.261V77ZM446.061 79V49.516H442.061V79H446.061ZM445.823 48.5692L420.227 0.941225L416.703 2.83476L442.299 50.4628L445.823 48.5692ZM418.465 3.888H436.177V-0.112005H418.465V3.888ZM434.39 2.78728L450.374 34.5393L453.947 32.7407L437.963 0.98871L434.39 2.78728ZM541.911 8.368L540.532 9.81627L540.544 9.82747L540.556 9.83848L541.911 8.368ZM547.311 35.692L549.209 36.3245L549.213 36.3112L547.311 35.692ZM542.235 43.9L540.8 42.507L540.8 42.5077L542.235 43.9ZM533.055 49.516L533.73 51.3987L533.73 51.3987L533.055 49.516ZM511.887 51.568V49.568H509.887V51.568H511.887ZM511.887 79V81H513.887V79H511.887ZM495.579 79H493.579V81H495.579V79ZM495.579 1.888V-0.112005H493.579V1.888H495.579ZM511.887 15.28V13.28H509.887V15.28H511.887ZM511.887 38.176H509.887V40.176H511.887V38.176ZM525.279 36.988L524.611 35.1031L524.611 35.1031L525.279 36.988ZM530.463 33.208L528.831 32.052L528.831 32.052L530.463 33.208ZM529.167 18.088L527.832 19.5771L527.847 19.5901L527.861 19.6028L529.167 18.088ZM520.203 3.888C529.914 3.888 536.535 6.00907 540.532 9.81627L543.291 6.91972C538.216 2.08692 530.364 -0.112005 520.203 -0.112005V3.888ZM540.556 9.83848C544.674 13.6345 546.823 18.9245 546.823 25.972H550.823C550.823 18.0435 548.365 11.5974 543.267 6.89751L540.556 9.83848ZM546.823 25.972C546.823 29.1541 546.35 32.1845 545.41 35.0728L549.213 36.3112C550.289 33.0074 550.823 29.5579 550.823 25.972H546.823ZM545.414 35.0595C544.508 37.7788 542.982 40.2592 540.8 42.507L543.671 45.2929C546.241 42.6448 548.099 39.6532 549.209 36.3245L545.414 35.0595ZM540.8 42.5077C538.751 44.6204 535.972 46.3457 532.38 47.6333L533.73 51.3987C537.771 49.9503 541.112 47.9316 543.671 45.2923L540.8 42.5077ZM532.38 47.6333C528.847 48.9001 524.375 49.568 518.907 49.568V53.568C524.671 53.568 529.632 52.8679 533.73 51.3987L532.38 47.6333ZM518.907 49.568H511.887V53.568H518.907V49.568ZM509.887 51.568V79H513.887V51.568H509.887ZM511.887 77H495.579V81H511.887V77ZM497.579 79V1.888H493.579V79H497.579ZM495.579 3.888H520.203V-0.112005H495.579V3.888ZM519.339 13.28H511.887V17.28H519.339V13.28ZM509.887 15.28V38.176H513.887V15.28H509.887ZM511.887 40.176H517.287V36.176H511.887V40.176ZM517.287 40.176C520.545 40.176 523.447 39.7604 525.948 38.8729L524.611 35.1031C522.648 35.7996 520.222 36.176 517.287 36.176V40.176ZM525.948 38.8729C528.521 37.96 530.605 36.4677 532.095 34.364L528.831 32.052C527.873 33.4043 526.502 34.432 524.611 35.1031L525.948 38.8729ZM532.095 34.364C533.62 32.2114 534.299 29.5415 534.299 26.512H530.299C530.299 28.9545 529.755 30.7486 528.831 32.052L532.095 34.364ZM534.299 26.512C534.299 22.3475 533.152 18.8828 530.473 16.5732L527.861 19.6028C529.358 20.8932 530.299 23.0445 530.299 26.512H534.299ZM530.502 16.5989C527.884 14.2509 524.019 13.28 519.339 13.28V17.28C523.587 17.28 526.275 18.1811 527.832 19.5771L530.502 16.5989ZM592.232 79V81H594.232V79H592.232ZM557.132 79H555.132V81H557.132V79ZM557.132 69.712L556.296 67.8949L555.132 68.4303V69.712H557.132ZM566.528 65.392L567.363 67.2091L568.528 66.6737V65.392H566.528ZM566.528 15.496H568.528V14.2143L567.363 13.6789L566.528 15.496ZM557.132 11.176H555.132V12.4577L556.296 12.9931L557.132 11.176ZM557.132 1.888V-0.112005H555.132V1.888H557.132ZM592.232 1.888H594.232V-0.112005H592.232V1.888ZM592.232 11.176L593.067 12.9931L594.232 12.4577V11.176H592.232ZM582.836 15.496L582 13.6789L580.836 14.2143V15.496H582.836ZM582.836 65.392H580.836V66.6737L582 67.2091L582.836 65.392ZM592.232 69.712H594.232V68.4303L593.067 67.8949L592.232 69.712ZM592.232 77H557.132V81H592.232V77ZM559.132 79V69.712H555.132V79H559.132ZM557.967 71.5291L567.363 67.2091L565.692 63.5749L556.296 67.8949L557.967 71.5291ZM568.528 65.392V15.496H564.528V65.392H568.528ZM567.363 13.6789L557.967 9.35886L556.296 12.9931L565.692 17.3131L567.363 13.6789ZM559.132 11.176V1.888H555.132V11.176H559.132ZM557.132 3.888H592.232V-0.112005H557.132V3.888ZM590.232 1.888V11.176H594.232V1.888H590.232ZM591.396 9.35886L582 13.6789L583.671 17.3131L593.067 12.9931L591.396 9.35886ZM580.836 15.496V65.392H584.836V15.496H580.836ZM582 67.2091L591.396 71.5291L593.067 67.8949L583.671 63.5749L582 67.2091ZM590.232 69.712V79H594.232V69.712H590.232ZM673.736 79V81H675.736V79H673.736ZM653 79L651.267 79.9981L651.844 81H653V79ZM619.412 20.68L621.145 19.6818L620.568 18.68H619.412V20.68ZM618.98 20.68V18.68H616.899L616.982 20.7599L618.98 20.68ZM619.196 26.188L617.198 26.2649L617.198 26.2679L619.196 26.188ZM619.412 31.696L617.414 31.7729L617.415 31.8142L617.419 31.8555L619.412 31.696ZM619.736 37.204L617.738 37.2809L617.738 37.2839L619.736 37.204ZM619.952 42.712H621.952V42.6735L621.951 42.6351L619.952 42.712ZM619.952 79V81H621.952V79H619.952ZM605.372 79H603.372V81H605.372V79ZM605.372 1.888V-0.112005H603.372V1.888H605.372ZM626 1.888L627.731 0.885285L627.153 -0.112005H626V1.888ZM659.48 59.668L657.75 60.6707L658.328 61.668H659.48V59.668ZM659.804 59.668V61.668H661.886L661.803 59.5881L659.804 59.668ZM659.588 54.376L657.59 54.4559L657.59 54.4593L659.588 54.376ZM659.372 49.084H657.372V49.1256L657.374 49.1673L659.372 49.084ZM659.264 43.792L657.266 43.8719L657.266 43.8753L659.264 43.792ZM659.048 38.392H657.048V38.432L657.05 38.4719L659.048 38.392ZM659.048 1.888V-0.112005H657.048V1.888H659.048ZM673.736 1.888H675.736V-0.112005H673.736V1.888ZM673.736 77H653V81H673.736V77ZM654.733 78.0019L621.145 19.6818L617.679 21.6781L651.267 79.9981L654.733 78.0019ZM619.412 18.68H618.98V22.68H619.412V18.68ZM616.982 20.7599C617.054 22.5589 617.126 24.3938 617.198 26.2649L621.195 26.1111C621.123 24.2381 621.051 22.4011 620.979 20.6001L616.982 20.7599ZM617.198 26.2679C617.27 28.0669 617.342 29.9018 617.414 31.7729L621.411 31.6191C621.339 29.7461 621.267 27.9091 621.195 26.1081L617.198 26.2679ZM617.419 31.8555C617.56 33.627 617.667 35.4354 617.738 37.2809L621.735 37.1271C621.662 35.2286 621.552 33.365 621.406 31.5365L617.419 31.8555ZM617.738 37.2839C617.81 39.0829 617.882 40.9178 617.954 42.7889L621.951 42.6351C621.879 40.7621 621.807 38.9251 621.735 37.1241L617.738 37.2839ZM617.952 42.712V79H621.952V42.712H617.952ZM619.952 77H605.372V81H619.952V77ZM607.372 79V1.888H603.372V79H607.372ZM605.372 3.888H626V-0.112005H605.372V3.888ZM624.27 2.8907L657.75 60.6707L661.211 58.6653L627.731 0.885285L624.27 2.8907ZM659.48 61.668H659.804V57.668H659.48V61.668ZM661.803 59.5881C661.731 57.787 661.659 56.0219 661.587 54.2927L657.59 54.4593C657.662 56.1861 657.734 57.949 657.806 59.7479L661.803 59.5881ZM661.587 54.2961C661.515 52.495 661.443 50.7299 661.371 49.0007L657.374 49.1673C657.446 50.8941 657.518 52.657 657.59 54.4559L661.587 54.2961ZM661.372 49.084C661.372 47.2574 661.336 45.4656 661.263 43.7087L657.266 43.8753C657.337 45.5744 657.372 47.3106 657.372 49.084H661.372ZM661.263 43.7121C661.191 41.9121 661.119 40.1121 661.047 38.3121L657.05 38.4719C657.122 40.2719 657.194 42.0719 657.266 43.8719L661.263 43.7121ZM661.048 38.392V1.888H657.048V38.392H661.048ZM659.048 3.888H673.736V-0.112005H659.048V3.888ZM671.736 1.888V79H675.736V1.888H671.736ZM722.496 35.692V33.692H720.496V35.692H722.496ZM753.06 35.692H755.06V33.692H753.06V35.692ZM753.06 75.652L753.702 77.546L755.06 77.0854V75.652H753.06ZM740.424 78.892L740.069 76.9237L740.063 76.9248L740.424 78.892ZM706.08 75.544L705.093 77.2834L705.103 77.289L706.08 75.544ZM693.876 62.152L692.061 62.9929L692.065 63.002L692.07 63.011L693.876 62.152ZM694.416 19.384L692.653 18.4384L692.649 18.4467L692.645 18.4552L694.416 19.384ZM742.152 2.104L741.725 4.05803L741.725 4.05803L742.152 2.104ZM752.952 5.56L754.8 6.3238L755.544 4.52351L753.764 3.73238L752.952 5.56ZM747.552 18.628L746.636 20.4059L748.57 21.4021L749.4 19.3918L747.552 18.628ZM739.452 15.604L738.945 17.5387L738.945 17.5387L739.452 15.604ZM717.528 17.656L716.484 15.9503L716.476 15.9551L716.468 15.96L717.528 17.656ZM709.428 26.836L707.632 25.9547L707.629 25.9615L707.626 25.9684L709.428 26.836ZM708.672 54.052L706.785 54.7158L706.785 54.7158L708.672 54.052ZM715.152 63.232L713.946 64.8273L713.958 64.8368L713.971 64.8461L715.152 63.232ZM730.812 66.364L730.937 68.3601L730.991 68.3567L731.045 68.3503L730.812 66.364ZM734.16 65.932L734.443 67.9119L734.511 67.9021L734.579 67.8876L734.16 65.932ZM737.076 65.392L737.38 67.3687L739.076 67.1078V65.392H737.076ZM737.076 49.3H739.076V47.3H737.076V49.3ZM722.496 49.3H720.496V51.3H722.496V49.3ZM722.496 37.692H753.06V33.692H722.496V37.692ZM751.06 35.692V75.652H755.06V35.692H751.06ZM752.417 73.758C748.484 75.0927 744.368 76.1485 740.069 76.9237L740.779 80.8603C745.264 80.0515 749.572 78.9473 753.702 77.546L752.417 73.758ZM740.063 76.9248C735.888 77.6902 731.081 78.08 725.628 78.08V82.08C731.263 82.08 736.319 81.6778 740.784 80.8592L740.063 76.9248ZM725.628 78.08C718.259 78.08 712.096 76.621 707.057 73.799L705.103 77.289C710.863 80.515 717.733 82.08 725.628 82.08V78.08ZM707.067 73.8046C702.12 70.997 698.326 66.8528 695.682 61.293L692.07 63.011C695.041 69.2592 699.383 74.043 705.093 77.2834L707.067 73.8046ZM695.69 61.3111C693.11 55.7421 691.772 48.7762 691.772 40.336H687.772C687.772 49.1758 689.17 56.7539 692.061 62.9929L695.69 61.3111ZM691.772 40.336C691.772 32.5284 693.27 25.8762 696.187 20.3128L692.645 18.4552C689.37 24.6998 687.772 32.0156 687.772 40.336H691.772ZM696.178 20.3296C699.159 14.7749 703.447 10.483 709.085 7.42621L707.179 3.90978C700.865 7.33299 696.009 12.1851 692.653 18.4384L696.178 20.3296ZM709.085 7.42621C714.7 4.38219 721.661 2.808 730.056 2.808V-1.192C721.171 -1.192 713.516 0.473801 707.179 3.90978L709.085 7.42621ZM730.056 2.808C734.018 2.808 737.907 3.22497 741.725 4.05803L742.578 0.149967C738.476 -0.744975 734.301 -1.192 730.056 -1.192V2.808ZM741.725 4.05803C745.571 4.89712 749.04 6.00991 752.14 7.38762L753.764 3.73238C750.384 2.23008 746.652 1.03887 742.578 0.149967L741.725 4.05803ZM751.103 4.7962L745.703 17.8642L749.4 19.3918L754.8 6.3238L751.103 4.7962ZM748.468 16.85C745.942 15.5488 743.101 14.4923 739.959 13.6693L738.945 17.5387C741.851 18.2997 744.41 19.2592 746.636 20.4059L748.468 16.85ZM739.959 13.6693C736.76 12.8314 733.421 12.416 729.948 12.416V16.416C733.099 16.416 736.096 16.7926 738.945 17.5387L739.959 13.6693ZM729.948 12.416C724.883 12.416 720.37 13.5706 716.484 15.9503L718.572 19.3617C721.741 17.4214 725.508 16.416 729.948 16.416V12.416ZM716.468 15.96C712.67 18.3339 709.727 21.6885 707.632 25.9547L711.223 27.7173C713.017 24.0635 715.474 21.2981 718.588 19.352L716.468 15.96ZM707.626 25.9684C705.597 30.183 704.62 35.1006 704.62 40.66H708.62C708.62 35.5634 709.515 31.265 711.23 27.7036L707.626 25.9684ZM704.62 40.66C704.62 45.8775 705.328 50.573 706.785 54.7158L710.558 53.3882C709.28 49.755 708.62 45.5225 708.62 40.66H704.62ZM706.785 54.7158C708.268 58.9307 710.645 62.3319 713.946 64.8273L716.358 61.6367C713.754 59.6681 711.811 56.9493 710.558 53.3882L706.785 54.7158ZM713.971 64.8461C717.355 67.3226 721.658 68.472 726.708 68.472V64.472C722.254 64.472 718.852 63.4614 716.333 61.6179L713.971 64.8461ZM726.708 68.472C728.319 68.472 729.731 68.4355 730.937 68.3601L730.687 64.3679C729.589 64.4365 728.264 64.472 726.708 64.472V68.472ZM731.045 68.3503C732.283 68.2048 733.415 68.0587 734.443 67.9119L733.877 63.9521C732.888 64.0933 731.789 64.2352 730.578 64.3777L731.045 68.3503ZM734.579 67.8876C735.552 67.6791 736.486 67.5063 737.38 67.3687L736.772 63.4153C735.794 63.5657 734.784 63.7529 733.741 63.9764L734.579 67.8876ZM739.076 65.392V49.3H735.076V65.392H739.076ZM737.076 47.3H722.496V51.3H737.076V47.3ZM724.496 49.3V35.692H720.496V49.3H724.496Z" fill="#2C507A" mask="url(#path-1-outside-1_1_4)"/>
</svg>
