<svg width="518" height="81" viewBox="0 0 518 81" fill="none" xmlns="http://www.w3.org/2000/svg">
<mask id="path-1-outside-1_1_3" maskUnits="userSpaceOnUse" x="-2" y="-2" width="524" height="85" fill="black">
<rect fill="white" x="-2" y="-2" width="524" height="85"/>
<path d="M16.812 79H0.72V1.888H44.892V15.28H16.812V35.152H42.948V48.544H16.812V79ZM129.977 40.336C129.977 46.312 129.221 51.748 127.709 56.644C126.269 61.468 124.037 65.644 121.013 69.172C118.061 72.7 114.245 75.4 109.565 77.272C104.957 79.144 99.5214 80.08 93.2574 80.08C86.9934 80.08 81.5214 79.144 76.8414 77.272C72.2334 75.328 68.4174 72.628 65.3934 69.172C62.4414 65.644 60.2094 61.432 58.6974 56.536C57.2574 51.64 56.5374 46.204 56.5374 40.228C56.5374 32.236 57.8334 25.288 60.4254 19.384C63.0894 13.48 67.1214 8.908 72.5214 5.668C77.9934 2.356 84.9414 0.699997 93.3654 0.699997C101.717 0.699997 108.593 2.356 113.993 5.668C119.393 8.908 123.389 13.516 125.981 19.492C128.645 25.396 129.977 32.344 129.977 40.336ZM73.7094 40.336C73.7094 45.736 74.3934 50.38 75.7614 54.268C77.1294 58.156 79.2534 61.144 82.1334 63.232C85.0134 65.32 88.7214 66.364 93.2574 66.364C97.9374 66.364 101.681 65.32 104.489 63.232C107.369 61.144 109.457 58.156 110.753 54.268C112.121 50.38 112.805 45.736 112.805 40.336C112.805 32.2 111.293 25.828 108.269 21.22C105.245 16.612 100.277 14.308 93.3654 14.308C88.7574 14.308 85.0134 15.352 82.1334 17.44C79.2534 19.528 77.1294 22.516 75.7614 26.404C74.3934 30.292 73.7094 34.936 73.7094 40.336ZM208.698 51.784C208.698 57.112 207.51 61.936 205.134 66.256C202.83 70.504 199.302 73.888 194.55 76.408C189.87 78.856 183.93 80.08 176.73 80.08C166.506 80.08 158.73 77.488 153.402 72.304C148.074 67.048 145.41 60.136 145.41 51.568V1.888H161.718V49.084C161.718 55.42 163.014 59.884 165.606 62.476C168.198 65.068 172.05 66.364 177.162 66.364C180.762 66.364 183.678 65.752 185.91 64.528C188.142 63.304 189.762 61.396 190.77 58.804C191.85 56.212 192.39 52.936 192.39 48.976V1.888H208.698V51.784ZM295.947 79H275.211L241.623 20.68H241.191C241.263 22.48 241.335 24.316 241.407 26.188C241.479 27.988 241.551 29.824 241.623 31.696C241.767 33.496 241.875 35.332 241.947 37.204C242.019 39.004 242.091 40.84 242.163 42.712V79H227.583V1.888H248.211L281.691 59.668H282.015C281.943 57.868 281.871 56.104 281.799 54.376C281.727 52.576 281.655 50.812 281.583 49.084C281.583 47.284 281.547 45.52 281.475 43.792C281.403 41.992 281.331 40.192 281.259 38.392V1.888H295.947V79ZM379.375 39.688C379.375 48.328 377.719 55.564 374.407 61.396C371.095 67.228 366.271 71.62 359.935 74.572C353.671 77.524 346.111 79 337.255 79H315.439V1.888H339.631C347.695 1.888 354.679 3.328 360.583 6.208C366.559 9.088 371.167 13.336 374.407 18.952C377.719 24.496 379.375 31.408 379.375 39.688ZM362.419 40.12C362.419 34.432 361.591 29.752 359.935 26.08C358.279 22.408 355.795 19.708 352.483 17.98C349.243 16.18 345.247 15.28 340.495 15.28H331.747V65.5H338.767C346.759 65.5 352.699 63.376 356.587 59.128C360.475 54.88 362.419 48.544 362.419 40.12ZM439.772 79H395.384V1.888H439.772V15.28H411.692V32.236H437.828V45.628H411.692V65.5H439.772V79ZM478.282 1.888C485.266 1.888 491.026 2.75199 495.562 4.47999C500.098 6.13599 503.482 8.692 505.714 12.148C507.946 15.532 509.062 19.816 509.062 25C509.062 28.528 508.378 31.624 507.01 34.288C505.714 36.88 503.95 39.112 501.718 40.984C499.558 42.784 497.218 44.26 494.698 45.412L517.378 79H499.234L480.874 49.408H472.126V79H455.818V1.888H478.282ZM477.094 15.28H472.126V36.124H477.418C481.018 36.124 483.934 35.728 486.166 34.936C488.398 34.144 490.018 32.956 491.026 31.372C492.034 29.716 492.538 27.736 492.538 25.432C492.538 22.984 491.962 21.04 490.81 19.6C489.73 18.088 488.038 17.008 485.734 16.36C483.502 15.64 480.622 15.28 477.094 15.28Z"/>
</mask>
<path d="M16.812 79V81H18.812V79H16.812ZM0.72 79H-1.28V81H0.72V79ZM0.72 1.888V-0.112005H-1.28V1.888H0.72ZM44.892 1.888H46.892V-0.112005H44.892V1.888ZM44.892 15.28V17.28H46.892V15.28H44.892ZM16.812 15.28V13.28H14.812V15.28H16.812ZM16.812 35.152H14.812V37.152H16.812V35.152ZM42.948 35.152H44.948V33.152H42.948V35.152ZM42.948 48.544V50.544H44.948V48.544H42.948ZM16.812 48.544V46.544H14.812V48.544H16.812ZM16.812 77H0.72V81H16.812V77ZM2.72 79V1.888H-1.28V79H2.72ZM0.72 3.888H44.892V-0.112005H0.72V3.888ZM42.892 1.888V15.28H46.892V1.888H42.892ZM44.892 13.28H16.812V17.28H44.892V13.28ZM14.812 15.28V35.152H18.812V15.28H14.812ZM16.812 37.152H42.948V33.152H16.812V37.152ZM40.948 35.152V48.544H44.948V35.152H40.948ZM42.948 46.544H16.812V50.544H42.948V46.544ZM14.812 48.544V79H18.812V48.544H14.812ZM127.709 56.644L125.798 56.0539L125.796 56.0629L125.793 56.0719L127.709 56.644ZM121.013 69.172L119.495 67.8704L119.487 67.8794L119.48 67.8886L121.013 69.172ZM109.565 77.272L108.823 75.415L108.813 75.4191L109.565 77.272ZM76.8414 77.272L76.064 79.1147L76.0813 79.122L76.0987 79.129L76.8414 77.272ZM65.3934 69.172L63.8596 70.4554L63.8737 70.4724L63.8883 70.489L65.3934 69.172ZM58.6974 56.536L56.7787 57.1003L56.7825 57.1133L56.7865 57.1261L58.6974 56.536ZM60.4254 19.384L58.6024 18.5614L58.5982 18.5707L58.5941 18.58L60.4254 19.384ZM72.5214 5.668L73.5504 7.383L73.557 7.379L72.5214 5.668ZM113.993 5.668L112.948 7.37287L112.956 7.37797L112.964 7.38298L113.993 5.668ZM125.981 19.492L124.147 20.2878L124.152 20.3012L124.158 20.3146L125.981 19.492ZM82.1334 63.232L83.3074 61.6128L83.3074 61.6128L82.1334 63.232ZM104.489 63.232L103.316 61.6128L103.306 61.6199L103.296 61.6271L104.489 63.232ZM110.753 54.268L108.867 53.6042L108.861 53.6198L108.856 53.6355L110.753 54.268ZM108.269 21.22L106.597 22.3173L106.597 22.3173L108.269 21.22ZM82.1334 17.44L80.9595 15.8208L80.9595 15.8208L82.1334 17.44ZM75.7614 26.404L73.8748 25.7402L75.7614 26.404ZM127.977 40.336C127.977 46.1444 127.243 51.3777 125.798 56.0539L129.62 57.2341C131.2 52.1183 131.977 46.4796 131.977 40.336H127.977ZM125.793 56.0719C124.426 60.6502 122.322 64.5723 119.495 67.8704L122.532 70.4736C125.753 66.7157 128.113 62.2858 129.626 57.2161L125.793 56.0719ZM119.48 67.8886C116.76 71.1392 113.226 73.6538 108.823 75.415L110.308 79.129C115.265 77.1462 119.363 74.2608 122.547 70.4554L119.48 67.8886ZM108.813 75.4191C104.497 77.1723 99.3278 78.08 93.2574 78.08V82.08C99.7151 82.08 105.418 81.1157 110.318 79.1249L108.813 75.4191ZM93.2574 78.08C87.1882 78.08 81.9783 77.1727 77.5842 75.415L76.0987 79.129C81.0646 81.1153 86.7987 82.08 93.2574 82.08V78.08ZM77.6188 75.4293C73.2648 73.5924 69.7057 71.0631 66.8986 67.855L63.8883 70.489C67.1292 74.1929 71.202 77.0636 76.064 79.1147L77.6188 75.4293ZM66.9273 67.8886C64.1642 64.5863 62.0509 60.6169 60.6084 55.9459L56.7865 57.1261C58.3679 62.2471 60.7187 66.7017 63.8596 70.4554L66.9273 67.8886ZM60.6162 55.9717C59.2384 51.2871 58.5374 46.0447 58.5374 40.228H54.5374C54.5374 46.3633 55.2765 51.9929 56.7787 57.1003L60.6162 55.9717ZM58.5374 40.228C58.5374 32.4484 59.7992 25.7856 62.2567 20.188L58.5941 18.58C55.8676 24.7904 54.5374 32.0236 54.5374 40.228H58.5374ZM62.2484 20.2066C64.75 14.6627 68.5103 10.4071 73.5504 7.38298L71.4924 3.95301C65.7326 7.40894 61.4289 12.2973 58.6024 18.5614L62.2484 20.2066ZM73.557 7.379C78.6325 4.30701 85.1937 2.7 93.3654 2.7V-1.3C84.6892 -1.3 77.3544 0.404986 71.4858 3.957L73.557 7.379ZM93.3654 2.7C101.463 2.7 107.948 4.30612 112.948 7.37287L115.039 3.96312C109.239 0.405878 101.972 -1.3 93.3654 -1.3V2.7ZM112.964 7.38298C117.994 10.4005 121.715 14.6808 124.147 20.2878L127.816 18.6962C125.064 12.3512 120.793 7.41554 115.022 3.95301L112.964 7.38298ZM124.158 20.3146C126.682 25.907 127.977 32.563 127.977 40.336H131.977C131.977 32.125 130.609 24.885 127.804 18.6694L124.158 20.3146ZM71.7094 40.336C71.7094 45.8959 72.4126 50.776 73.8748 54.9318L77.6481 53.6042C76.3743 49.984 75.7094 45.5761 75.7094 40.336H71.7094ZM73.8748 54.9318C75.3557 59.1406 77.7004 62.4884 80.9595 64.8512L83.3074 61.6128C80.8065 59.7996 78.9032 57.1713 77.6481 53.6042L73.8748 54.9318ZM80.9595 64.8512C84.2645 67.2473 88.4163 68.364 93.2574 68.364V64.364C89.0266 64.364 85.7624 63.3927 83.3074 61.6128L80.9595 64.8512ZM93.2574 68.364C98.2236 68.364 102.43 67.2557 105.683 64.8369L103.296 61.6271C100.933 63.3843 97.6513 64.364 93.2574 64.364V68.364ZM105.663 64.8512C108.931 62.4819 111.243 59.1224 112.651 54.9005L108.856 53.6355C107.671 57.1896 105.808 59.8061 103.316 61.6128L105.663 64.8512ZM112.64 54.9318C114.102 50.776 114.805 45.8959 114.805 40.336H110.805C110.805 45.5761 110.141 49.984 108.867 53.6042L112.64 54.9318ZM114.805 40.336C114.805 31.9851 113.259 25.1773 109.942 20.1227L106.597 22.3173C109.328 26.4787 110.805 32.4149 110.805 40.336H114.805ZM109.942 20.1227C106.453 14.8061 100.757 12.308 93.3654 12.308V16.308C99.798 16.308 104.038 18.4179 106.597 22.3173L109.942 20.1227ZM93.3654 12.308C88.4602 12.308 84.2695 13.4211 80.9595 15.8208L83.3074 19.0592C85.7574 17.2829 89.0547 16.308 93.3654 16.308V12.308ZM80.9595 15.8208C77.7004 18.1836 75.3557 21.5313 73.8748 25.7402L77.6481 27.0678C78.9032 23.5006 80.8065 20.8724 83.3074 19.0592L80.9595 15.8208ZM73.8748 25.7402C72.4126 29.896 71.7094 34.7761 71.7094 40.336H75.7094C75.7094 35.0959 76.3743 30.688 77.6481 27.0678L73.8748 25.7402ZM205.134 66.256L203.382 65.2921L203.376 65.3025L205.134 66.256ZM194.55 76.408L195.477 78.1802L195.487 78.1749L194.55 76.408ZM153.402 72.304L151.998 73.7278L152.008 73.7375L153.402 72.304ZM145.41 1.888V-0.112005H143.41V1.888H145.41ZM161.718 1.888H163.718V-0.112005H161.718V1.888ZM165.606 62.476L164.192 63.8902L164.192 63.8902L165.606 62.476ZM185.91 64.528L184.949 62.7744L184.949 62.7744L185.91 64.528ZM190.77 58.804L188.924 58.0348L188.915 58.0568L188.906 58.0791L190.77 58.804ZM192.39 1.888V-0.112005H190.39V1.888H192.39ZM208.698 1.888H210.698V-0.112005H208.698V1.888ZM206.698 51.784C206.698 56.8029 205.583 61.291 203.382 65.2922L206.887 67.2198C209.438 62.581 210.698 57.4211 210.698 51.784H206.698ZM203.376 65.3025C201.281 69.166 198.058 72.2839 193.613 74.6411L195.487 78.1749C200.546 75.4921 204.38 71.842 206.893 67.2095L203.376 65.3025ZM193.623 74.6358C189.314 76.8898 183.719 78.08 176.73 78.08V82.08C184.142 82.08 190.427 80.8222 195.477 78.1802L193.623 74.6358ZM176.73 78.08C166.828 78.08 159.63 75.5728 154.797 70.8705L152.008 73.7375C157.831 79.4032 166.184 82.08 176.73 82.08V78.08ZM154.807 70.8802C149.916 66.0554 147.41 59.6852 147.41 51.568H143.41C143.41 60.5868 146.233 68.0406 151.998 73.7278L154.807 70.8802ZM147.41 51.568V1.888H143.41V51.568H147.41ZM145.41 3.888H161.718V-0.112005H145.41V3.888ZM159.718 1.888V49.084H163.718V1.888H159.718ZM159.718 49.084C159.718 55.5909 161.031 60.7287 164.192 63.8902L167.021 61.0618C164.998 59.0393 163.718 55.2491 163.718 49.084H159.718ZM164.192 63.8902C167.287 66.9848 171.733 68.364 177.162 68.364V64.364C172.368 64.364 169.11 63.1512 167.021 61.0618L164.192 63.8902ZM177.162 68.364C180.967 68.364 184.248 67.7204 186.872 66.2816L184.949 62.7744C183.108 63.7836 180.558 64.364 177.162 64.364V68.364ZM186.872 66.2816C189.556 64.81 191.473 62.5157 192.634 59.5289L188.906 58.0791C188.052 60.2763 186.729 61.798 184.949 62.7744L186.872 66.2816ZM192.617 59.5732C193.831 56.6594 194.39 53.0997 194.39 48.976H190.39C190.39 52.7723 189.87 55.7646 188.924 58.0348L192.617 59.5732ZM194.39 48.976V1.888H190.39V48.976H194.39ZM192.39 3.888H208.698V-0.112005H192.39V3.888ZM206.698 1.888V51.784H210.698V1.888H206.698ZM295.947 79V81H297.947V79H295.947ZM275.211 79L273.478 79.9981L274.055 81H275.211V79ZM241.623 20.68L243.356 19.6818L242.779 18.68H241.623V20.68ZM241.191 20.68V18.68H239.11L239.193 20.7599L241.191 20.68ZM241.407 26.188L239.409 26.2649L239.409 26.2679L241.407 26.188ZM241.623 31.696L239.625 31.7729L239.626 31.8142L239.63 31.8555L241.623 31.696ZM241.947 37.204L239.949 37.2809L239.949 37.2839L241.947 37.204ZM242.163 42.712H244.163V42.6735L244.162 42.6351L242.163 42.712ZM242.163 79V81H244.163V79H242.163ZM227.583 79H225.583V81H227.583V79ZM227.583 1.888V-0.112005H225.583V1.888H227.583ZM248.211 1.888L249.942 0.885285L249.364 -0.112005H248.211V1.888ZM281.691 59.668L279.961 60.6707L280.539 61.668H281.691V59.668ZM282.015 59.668V61.668H284.097L284.014 59.5881L282.015 59.668ZM281.799 54.376L279.801 54.4559L279.801 54.4593L281.799 54.376ZM281.583 49.084H279.583V49.1256L279.585 49.1673L281.583 49.084ZM281.475 43.792L279.477 43.8719L279.477 43.8753L281.475 43.792ZM281.259 38.392H279.259V38.432L279.261 38.4719L281.259 38.392ZM281.259 1.888V-0.112005H279.259V1.888H281.259ZM295.947 1.888H297.947V-0.112005H295.947V1.888ZM295.947 77H275.211V81H295.947V77ZM276.944 78.0019L243.356 19.6818L239.89 21.6781L273.478 79.9981L276.944 78.0019ZM241.623 18.68H241.191V22.68H241.623V18.68ZM239.193 20.7599C239.265 22.5589 239.337 24.3938 239.409 26.2649L243.406 26.1111C243.334 24.2381 243.262 22.4011 243.19 20.6001L239.193 20.7599ZM239.409 26.2679C239.481 28.0669 239.553 29.9018 239.625 31.7729L243.622 31.6191C243.55 29.7461 243.478 27.9091 243.406 26.1081L239.409 26.2679ZM239.63 31.8555C239.771 33.627 239.878 35.4354 239.949 37.2809L243.946 37.1271C243.873 35.2286 243.763 33.365 243.617 31.5365L239.63 31.8555ZM239.949 37.2839C240.021 39.0829 240.093 40.9178 240.165 42.7889L244.162 42.6351C244.09 40.7621 244.018 38.9251 243.946 37.1241L239.949 37.2839ZM240.163 42.712V79H244.163V42.712H240.163ZM242.163 77H227.583V81H242.163V77ZM229.583 79V1.888H225.583V79H229.583ZM227.583 3.888H248.211V-0.112005H227.583V3.888ZM246.481 2.8907L279.961 60.6707L283.422 58.6653L249.942 0.885285L246.481 2.8907ZM281.691 61.668H282.015V57.668H281.691V61.668ZM284.014 59.5881C283.942 57.787 283.87 56.0219 283.798 54.2927L279.801 54.4593C279.873 56.1861 279.945 57.949 280.017 59.7479L284.014 59.5881ZM283.798 54.2961C283.726 52.495 283.654 50.7299 283.582 49.0007L279.585 49.1673C279.657 50.8941 279.729 52.657 279.801 54.4559L283.798 54.2961ZM283.583 49.084C283.583 47.2574 283.547 45.4656 283.474 43.7087L279.477 43.8753C279.548 45.5744 279.583 47.3106 279.583 49.084H283.583ZM283.474 43.7121C283.402 41.9121 283.33 40.1121 283.258 38.3121L279.261 38.4719C279.333 40.2719 279.405 42.0719 279.477 43.8719L283.474 43.7121ZM283.259 38.392V1.888H279.259V38.392H283.259ZM281.259 3.888H295.947V-0.112005H281.259V3.888ZM293.947 1.888V79H297.947V1.888H293.947ZM374.407 61.396L376.146 62.3836L376.146 62.3836L374.407 61.396ZM359.935 74.572L359.09 72.7591L359.082 72.7628L359.935 74.572ZM315.439 79H313.439V81H315.439V79ZM315.439 1.888V-0.112005H313.439V1.888H315.439ZM360.583 6.208L359.706 8.00555L359.714 8.00969L360.583 6.208ZM374.407 18.952L372.674 19.9514L372.682 19.9646L372.69 19.9777L374.407 18.952ZM359.935 26.08L361.758 25.2578L359.935 26.08ZM352.483 17.98L351.511 19.7283L351.534 19.741L351.558 19.7532L352.483 17.98ZM331.747 15.28V13.28H329.747V15.28H331.747ZM331.747 65.5H329.747V67.5H331.747V65.5ZM356.587 59.128L355.111 57.7777L355.111 57.7777L356.587 59.128ZM377.375 39.688C377.375 48.0792 375.766 54.9522 372.668 60.4083L376.146 62.3836C379.671 56.1758 381.375 48.5768 381.375 39.688H377.375ZM372.668 60.4083C369.57 65.8631 365.066 69.9747 359.09 72.7591L360.779 76.3849C367.475 73.2653 372.62 68.5929 376.146 62.3836L372.668 60.4083ZM359.082 72.7628C353.148 75.5592 345.895 77 337.255 77V81C346.326 81 354.193 79.4888 360.787 76.3812L359.082 72.7628ZM337.255 77H315.439V81H337.255V77ZM317.439 79V1.888H313.439V79H317.439ZM315.439 3.888H339.631V-0.112005H315.439V3.888ZM339.631 3.888C347.459 3.888 354.13 5.28561 359.706 8.00553L361.46 4.41046C355.227 1.37038 347.931 -0.112005 339.631 -0.112005V3.888ZM359.714 8.00969C365.337 10.7195 369.64 14.6921 372.674 19.9514L376.139 17.9525C372.693 11.9799 367.78 7.45651 361.451 4.40631L359.714 8.00969ZM372.69 19.9777C375.771 25.1357 377.375 31.669 377.375 39.688H381.375C381.375 31.147 379.666 23.8563 376.124 17.9263L372.69 19.9777ZM364.419 40.12C364.419 34.2572 363.568 29.2717 361.758 25.2578L358.112 26.9022C359.613 30.2323 360.419 34.6068 360.419 40.12H364.419ZM361.758 25.2578C359.933 21.2113 357.149 18.1589 353.408 16.2068L351.558 19.7532C354.44 21.2571 356.624 23.6047 358.112 26.9022L361.758 25.2578ZM353.454 16.2317C349.845 14.2264 345.493 13.28 340.495 13.28V17.28C345.001 17.28 348.641 18.1336 351.511 19.7283L353.454 16.2317ZM340.495 13.28H331.747V17.28H340.495V13.28ZM329.747 15.28V65.5H333.747V15.28H329.747ZM331.747 67.5H338.767V63.5H331.747V67.5ZM338.767 67.5C347.095 67.5 353.666 65.2812 358.062 60.4783L355.111 57.7777C351.731 61.4708 346.422 63.5 338.767 63.5V67.5ZM358.062 60.4783C362.415 55.7223 364.419 48.816 364.419 40.12H360.419C360.419 48.272 358.534 54.0377 355.111 57.7777L358.062 60.4783ZM439.772 79V81H441.772V79H439.772ZM395.384 79H393.384V81H395.384V79ZM395.384 1.888V-0.112005H393.384V1.888H395.384ZM439.772 1.888H441.772V-0.112005H439.772V1.888ZM439.772 15.28V17.28H441.772V15.28H439.772ZM411.692 15.28V13.28H409.692V15.28H411.692ZM411.692 32.236H409.692V34.236H411.692V32.236ZM437.828 32.236H439.828V30.236H437.828V32.236ZM437.828 45.628V47.628H439.828V45.628H437.828ZM411.692 45.628V43.628H409.692V45.628H411.692ZM411.692 65.5H409.692V67.5H411.692V65.5ZM439.772 65.5H441.772V63.5H439.772V65.5ZM439.772 77H395.384V81H439.772V77ZM397.384 79V1.888H393.384V79H397.384ZM395.384 3.888H439.772V-0.112005H395.384V3.888ZM437.772 1.888V15.28H441.772V1.888H437.772ZM439.772 13.28H411.692V17.28H439.772V13.28ZM409.692 15.28V32.236H413.692V15.28H409.692ZM411.692 34.236H437.828V30.236H411.692V34.236ZM435.828 32.236V45.628H439.828V32.236H435.828ZM437.828 43.628H411.692V47.628H437.828V43.628ZM409.692 45.628V65.5H413.692V45.628H409.692ZM411.692 67.5H439.772V63.5H411.692V67.5ZM437.772 65.5V79H441.772V65.5H437.772ZM495.562 4.47999L494.85 6.34897L494.863 6.35393L494.876 6.35871L495.562 4.47999ZM505.714 12.148L504.034 13.233L504.039 13.2411L504.044 13.2492L505.714 12.148ZM507.01 34.288L505.231 33.3744L505.226 33.384L505.221 33.3936L507.01 34.288ZM501.718 40.984L502.998 42.5204L503.003 42.5164L501.718 40.984ZM494.698 45.412L493.866 43.593L491.719 44.5746L493.04 46.5312L494.698 45.412ZM517.378 79V81H521.141L519.035 77.8808L517.378 79ZM499.234 79L497.534 80.0544L498.121 81H499.234V79ZM480.874 49.408L482.573 48.3536L481.986 47.408H480.874V49.408ZM472.126 49.408V47.408H470.126V49.408H472.126ZM472.126 79V81H474.126V79H472.126ZM455.818 79H453.818V81H455.818V79ZM455.818 1.888V-0.112005H453.818V1.888H455.818ZM472.126 15.28V13.28H470.126V15.28H472.126ZM472.126 36.124H470.126V38.124H472.126V36.124ZM486.166 34.936L486.834 36.8209L486.834 36.8209L486.166 34.936ZM491.026 31.372L492.713 32.4457L492.724 32.4289L492.734 32.4119L491.026 31.372ZM490.81 19.6L489.182 20.7625L489.214 20.8068L489.248 20.8494L490.81 19.6ZM485.734 16.36L485.12 18.2634L485.156 18.275L485.192 18.2853L485.734 16.36ZM478.282 3.888C485.12 3.888 490.617 4.73666 494.85 6.34897L496.274 2.61102C491.434 0.767326 485.411 -0.112005 478.282 -0.112005V3.888ZM494.876 6.35871C499.076 7.89229 502.077 10.2035 504.034 13.233L507.394 11.0629C504.886 7.18044 501.119 4.37969 496.248 2.60128L494.876 6.35871ZM504.044 13.2492C506.008 16.2263 507.062 20.0991 507.062 25H511.062C511.062 19.5329 509.884 14.8377 507.383 11.0468L504.044 13.2492ZM507.062 25C507.062 28.2667 506.43 31.0393 505.231 33.3744L508.789 35.2016C510.326 32.2087 511.062 28.7893 511.062 25H507.062ZM505.221 33.3936C504.048 35.7394 502.456 37.7546 500.432 39.4516L503.003 42.5164C505.444 40.4694 507.379 38.0206 508.799 35.1824L505.221 33.3936ZM500.437 39.4476C498.412 41.1356 496.222 42.516 493.866 43.593L495.529 47.2309C498.213 46.004 500.704 44.4324 502.998 42.5204L500.437 39.4476ZM493.04 46.5312L515.72 80.1192L519.035 77.8808L496.355 44.2928L493.04 46.5312ZM517.378 77H499.234V81H517.378V77ZM500.933 77.9456L482.573 48.3536L479.174 50.4624L497.534 80.0544L500.933 77.9456ZM480.874 47.408H472.126V51.408H480.874V47.408ZM470.126 49.408V79H474.126V49.408H470.126ZM472.126 77H455.818V81H472.126V77ZM457.818 79V1.888H453.818V79H457.818ZM455.818 3.888H478.282V-0.112005H455.818V3.888ZM477.094 13.28H472.126V17.28H477.094V13.28ZM470.126 15.28V36.124H474.126V15.28H470.126ZM472.126 38.124H477.418V34.124H472.126V38.124ZM477.418 38.124C481.14 38.124 484.307 37.7179 486.834 36.8209L485.497 33.0511C483.561 33.7381 480.896 34.124 477.418 34.124V38.124ZM486.834 36.8209C489.375 35.9193 491.409 34.4953 492.713 32.4457L489.338 30.2982C488.627 31.4167 487.42 32.3687 485.497 33.0511L486.834 36.8209ZM492.734 32.4119C493.966 30.3879 494.538 28.0331 494.538 25.432H490.538C490.538 27.4389 490.101 29.0441 489.317 30.3321L492.734 32.4119ZM494.538 25.432C494.538 22.679 493.888 20.2464 492.371 18.3506L489.248 20.8494C490.035 21.8336 490.538 23.289 490.538 25.432H494.538ZM492.437 18.4375C491.024 16.4597 488.889 15.17 486.275 14.4347L485.192 18.2853C487.186 18.846 488.435 19.7163 489.182 20.7625L492.437 18.4375ZM486.348 14.4566C483.844 13.649 480.736 13.28 477.094 13.28V17.28C480.507 17.28 483.159 17.631 485.12 18.2634L486.348 14.4566Z" fill="#2C507A" mask="url(#path-1-outside-1_1_3)"/>
</svg>
