<svg width="633" height="81" viewBox="0 0 633 81" fill="none" xmlns="http://www.w3.org/2000/svg">
<mask id="path-1-outside-1_1_3" maskUnits="userSpaceOnUse" x="-2" y="-2" width="638" height="85" fill="black">
<rect fill="white" x="-2" y="-2" width="638" height="85"/>
<path d="M33.336 79L14.76 18.52H14.328C14.4 19.96 14.508 22.12 14.652 25C14.796 27.88 14.94 30.976 15.084 34.288C15.228 37.528 15.3 40.48 15.3 43.144V79H0.72V1.888H22.968L41.22 60.856H41.544L60.876 1.888H83.124V79H67.896V42.496C67.896 40.048 67.932 37.24 68.004 34.072C68.148 30.904 68.256 27.916 68.328 25.108C68.472 22.228 68.58 20.068 68.652 18.628H68.22L48.348 79H33.336ZM149.799 79L144.183 60.64H116.103L110.487 79H92.8828L120.099 1.564H140.079L167.403 79H149.799ZM134.679 28.996C134.319 27.772 133.851 26.224 133.275 24.352C132.699 22.48 132.123 20.572 131.547 18.628C130.971 16.684 130.503 14.992 130.143 13.552C129.783 14.992 129.279 16.792 128.631 18.952C128.055 21.04 127.479 23.056 126.903 25C126.399 26.872 126.003 28.204 125.715 28.996L120.207 46.924H140.295L134.679 28.996ZM199.633 1.888C206.617 1.888 212.377 2.75199 216.913 4.47999C221.449 6.13599 224.833 8.692 227.065 12.148C229.297 15.532 230.413 19.816 230.413 25C230.413 28.528 229.729 31.624 228.361 34.288C227.065 36.88 225.301 39.112 223.069 40.984C220.909 42.784 218.569 44.26 216.049 45.412L238.729 79H220.585L202.225 49.408H193.477V79H177.169V1.888H199.633ZM198.445 15.28H193.477V36.124H198.769C202.369 36.124 205.285 35.728 207.517 34.936C209.749 34.144 211.369 32.956 212.377 31.372C213.385 29.716 213.889 27.736 213.889 25.432C213.889 22.984 213.313 21.04 212.161 19.6C211.081 18.088 209.389 17.008 207.085 16.36C204.853 15.64 201.973 15.28 198.445 15.28ZM310.458 79H291.882L271.686 46.492L264.774 51.46V79H248.466V1.888H264.774V37.204C265.854 35.692 266.934 34.18 268.014 32.668C269.094 31.156 270.174 29.644 271.254 28.132L292.098 1.888H310.242L283.35 36.016L310.458 79ZM364.573 79H320.185V1.888H364.573V15.28H336.493V32.236H362.629V45.628H336.493V65.5H364.573V79ZM410.318 79H394.01V15.496H373.058V1.888H431.27V15.496H410.318V79ZM471.997 79H436.897V69.712L446.293 65.392V15.496L436.897 11.176V1.888H471.997V11.176L462.601 15.496V65.392L471.997 69.712V79ZM553.502 79H532.766L499.178 20.68H498.746C498.818 22.48 498.89 24.316 498.962 26.188C499.034 27.988 499.106 29.824 499.178 31.696C499.322 33.496 499.43 35.332 499.502 37.204C499.574 39.004 499.646 40.84 499.718 42.712V79H485.138V1.888H505.766L539.246 59.668H539.57C539.498 57.868 539.426 56.104 539.354 54.376C539.282 52.576 539.21 50.812 539.138 49.084C539.138 47.284 539.102 45.52 539.03 43.792C538.958 41.992 538.886 40.192 538.814 38.392V1.888H553.502V79ZM602.261 35.692H632.825V75.652C628.793 77.02 624.581 78.1 620.189 78.892C615.869 79.684 610.937 80.08 605.393 80.08C597.761 80.08 591.245 78.568 585.845 75.544C580.517 72.52 576.449 68.056 573.641 62.152C570.905 56.248 569.537 48.976 569.537 40.336C569.537 32.272 571.085 25.288 574.181 19.384C577.349 13.48 581.921 8.908 587.897 5.668C593.873 2.428 601.181 0.807996 609.821 0.807996C613.925 0.807996 617.957 1.24 621.917 2.104C625.877 2.968 629.477 4.12 632.717 5.56L627.317 18.628C624.941 17.404 622.241 16.396 619.217 15.604C616.193 14.812 613.025 14.416 609.713 14.416C604.961 14.416 600.821 15.496 597.293 17.656C593.837 19.816 591.137 22.876 589.193 26.836C587.321 30.724 586.385 35.332 586.385 40.66C586.385 45.7 587.069 50.164 588.437 54.052C589.805 57.94 591.965 61 594.917 63.232C597.869 65.392 601.721 66.472 606.473 66.472C608.057 66.472 609.425 66.436 610.577 66.364C611.801 66.22 612.917 66.076 613.925 65.932C614.933 65.716 615.905 65.536 616.841 65.392V49.3H602.261V35.692Z"/>
</mask>
<path d="M33.336 79L31.4241 79.5872L31.8581 81H33.336V79ZM14.76 18.52L16.6719 17.9328L16.2379 16.52H14.76V18.52ZM14.328 18.52V16.52H12.2255L12.3305 18.6199L14.328 18.52ZM14.652 25L12.6545 25.0999L12.6545 25.0999L14.652 25ZM15.084 34.288L13.0859 34.3749L13.086 34.3768L15.084 34.288ZM15.3 79V81H17.3V79H15.3ZM0.72 79H-1.28V81H0.72V79ZM0.72 1.888V-0.112005H-1.28V1.888H0.72ZM22.968 1.888L24.8786 1.29663L24.4426 -0.112005H22.968V1.888ZM41.22 60.856L39.3094 61.4474L39.7454 62.856H41.22V60.856ZM41.544 60.856V62.856H42.9931L43.4445 61.479L41.544 60.856ZM60.876 1.888V-0.112005H59.4269L58.9755 1.26495L60.876 1.888ZM83.124 1.888H85.124V-0.112005H83.124V1.888ZM83.124 79V81H85.124V79H83.124ZM67.896 79H65.896V81H67.896V79ZM68.004 34.072L66.0061 33.9812L66.005 34.0039L66.0045 34.0266L68.004 34.072ZM68.328 25.108L66.3305 25.0081L66.3293 25.0324L66.3287 25.0567L68.328 25.108ZM68.652 18.628L70.6495 18.7279L70.7545 16.628H68.652V18.628ZM68.22 18.628V16.628H66.7728L66.3203 18.0027L68.22 18.628ZM48.348 79V81H49.7952L50.2477 79.6253L48.348 79ZM35.2479 78.4128L16.6719 17.9328L12.8481 19.1072L31.4241 79.5872L35.2479 78.4128ZM14.76 16.52H14.328V20.52H14.76V16.52ZM12.3305 18.6199C12.4025 20.0599 12.5105 22.2199 12.6545 25.0999L16.6495 24.9001C16.5055 22.0201 16.3975 19.8601 16.3255 18.4201L12.3305 18.6199ZM12.6545 25.0999C12.7983 27.975 12.9421 31.0666 13.0859 34.3749L17.0821 34.2011C16.938 30.8854 16.7938 27.785 16.6495 24.9001L12.6545 25.0999ZM13.086 34.3768C13.2289 37.5933 13.3 40.5151 13.3 43.144H17.3C17.3 40.4449 17.2271 37.4627 17.082 34.1992L13.086 34.3768ZM13.3 43.144V79H17.3V43.144H13.3ZM15.3 77H0.72V81H15.3V77ZM2.72 79V1.888H-1.28V79H2.72ZM0.72 3.888H22.968V-0.112005H0.72V3.888ZM21.0574 2.47936L39.3094 61.4474L43.1306 60.2646L24.8786 1.29663L21.0574 2.47936ZM41.22 62.856H41.544V58.856H41.22V62.856ZM43.4445 61.479L62.7765 2.51104L58.9755 1.26495L39.6435 60.2329L43.4445 61.479ZM60.876 3.888H83.124V-0.112005H60.876V3.888ZM81.124 1.888V79H85.124V1.888H81.124ZM83.124 77H67.896V81H83.124V77ZM69.896 79V42.496H65.896V79H69.896ZM69.896 42.496C69.896 40.0668 69.9317 37.2744 70.0035 34.1174L66.0045 34.0266C65.9323 37.2056 65.896 40.0292 65.896 42.496H69.896ZM70.0019 34.1628C70.1465 30.9833 70.255 27.982 70.3273 25.1593L66.3287 25.0567C66.257 27.85 66.1495 30.8247 66.0061 33.9812L70.0019 34.1628ZM70.3255 25.2079C70.4695 22.3279 70.5775 20.1679 70.6495 18.7279L66.6545 18.5281C66.5825 19.9681 66.4745 22.1281 66.3305 25.0081L70.3255 25.2079ZM68.652 16.628H68.22V20.628H68.652V16.628ZM66.3203 18.0027L46.4483 78.3747L50.2477 79.6253L70.1197 19.2533L66.3203 18.0027ZM48.348 77H33.336V81H48.348V77ZM149.799 79L147.886 79.585L148.319 81H149.799V79ZM144.183 60.64L146.095 60.055L145.663 58.64H144.183V60.64ZM116.103 60.64V58.64H114.623L114.19 60.055L116.103 60.64ZM110.487 79V81H111.967L112.399 79.585L110.487 79ZM92.8828 79L90.996 78.3368L90.06 81H92.8828V79ZM120.099 1.564V-0.436001H118.682L118.212 0.900837L120.099 1.564ZM140.079 1.564L141.965 0.898496L141.494 -0.436001H140.079V1.564ZM167.403 79V81H170.229L169.289 78.3345L167.403 79ZM134.679 28.996L132.76 29.5603L132.765 29.5771L132.77 29.5939L134.679 28.996ZM133.275 24.352L131.363 24.9402L131.363 24.9402L133.275 24.352ZM131.547 18.628L129.629 19.1962L129.629 19.1962L131.547 18.628ZM130.143 13.552L132.083 13.0669L128.203 13.0669L130.143 13.552ZM128.631 18.952L126.715 18.3773L126.709 18.3986L126.703 18.4201L128.631 18.952ZM126.903 25L124.985 24.4318L124.978 24.4559L124.972 24.4801L126.903 25ZM125.715 28.996L123.835 28.3125L123.818 28.3602L123.803 28.4086L125.715 28.996ZM120.207 46.924L118.295 46.3366L117.5 48.924H120.207V46.924ZM140.295 46.924V48.924H143.017L142.203 46.3261L140.295 46.924ZM151.711 78.415L146.095 60.055L142.27 61.225L147.886 79.585L151.711 78.415ZM144.183 58.64H116.103V62.64H144.183V58.64ZM114.19 60.055L108.574 78.415L112.399 79.585L118.015 61.225L114.19 60.055ZM110.487 77H92.8828V81H110.487V77ZM94.7697 79.6632L121.986 2.22716L118.212 0.900837L90.996 78.3368L94.7697 79.6632ZM120.099 3.564H140.079V-0.436001H120.099V3.564ZM138.193 2.2295L165.517 79.6655L169.289 78.3345L141.965 0.898496L138.193 2.2295ZM167.403 77H149.799V81H167.403V77ZM136.598 28.4317C136.234 27.1967 135.764 25.6401 135.186 23.7638L131.363 24.9402C131.938 26.8079 132.403 28.3473 132.76 29.5603L136.598 28.4317ZM135.186 23.7638C134.612 21.8987 134.039 19.9974 133.464 18.0598L129.629 19.1962C130.207 21.1466 130.785 23.0613 131.363 24.9402L135.186 23.7638ZM133.464 18.0598C132.894 16.1342 132.434 14.4711 132.083 13.0669L128.203 14.0371C128.571 15.5129 129.048 17.2338 129.629 19.1962L133.464 18.0598ZM128.203 13.0669C127.853 14.4657 127.358 16.2335 126.715 18.3773L130.546 19.5267C131.199 17.3505 131.713 15.5183 132.083 14.0371L128.203 13.0669ZM126.703 18.4201C126.13 20.4968 125.557 22.5007 124.985 24.4318L128.82 25.5682C129.4 23.6113 129.98 21.5832 130.559 19.4839L126.703 18.4201ZM124.972 24.4801C124.468 26.349 124.091 27.6083 123.835 28.3125L127.594 29.6795C127.914 28.7997 128.329 27.395 128.834 25.5199L124.972 24.4801ZM123.803 28.4086L118.295 46.3366L122.119 47.5114L127.627 29.5834L123.803 28.4086ZM120.207 48.924H140.295V44.924H120.207V48.924ZM142.203 46.3261L136.587 28.3981L132.77 29.5939L138.386 47.5219L142.203 46.3261ZM216.913 4.47999L216.201 6.34897L216.214 6.35393L216.227 6.35871L216.913 4.47999ZM227.065 12.148L225.385 13.233L225.39 13.2411L225.396 13.2492L227.065 12.148ZM228.361 34.288L226.582 33.3744L226.577 33.384L226.572 33.3936L228.361 34.288ZM223.069 40.984L224.35 42.5204L224.354 42.5164L223.069 40.984ZM216.049 45.412L215.218 43.593L213.071 44.5746L214.392 46.5312L216.049 45.412ZM238.729 79V81H242.493L240.387 77.8808L238.729 79ZM220.585 79L218.886 80.0544L219.472 81H220.585V79ZM202.225 49.408L203.925 48.3536L203.338 47.408H202.225V49.408ZM193.477 49.408V47.408H191.477V49.408H193.477ZM193.477 79V81H195.477V79H193.477ZM177.169 79H175.169V81H177.169V79ZM177.169 1.888V-0.112005H175.169V1.888H177.169ZM193.477 15.28V13.28H191.477V15.28H193.477ZM193.477 36.124H191.477V38.124H193.477V36.124ZM207.517 34.936L208.186 36.8209L208.186 36.8209L207.517 34.936ZM212.377 31.372L214.065 32.4457L214.075 32.4289L214.086 32.4119L212.377 31.372ZM212.161 19.6L210.534 20.7625L210.565 20.8068L210.599 20.8494L212.161 19.6ZM207.085 16.36L206.471 18.2634L206.507 18.275L206.544 18.2853L207.085 16.36ZM199.633 3.888C206.472 3.888 211.969 4.73666 216.201 6.34897L217.625 2.61102C212.786 0.767326 206.763 -0.112005 199.633 -0.112005V3.888ZM216.227 6.35871C220.428 7.89229 223.429 10.2035 225.385 13.233L228.745 11.0629C226.238 7.18044 222.47 4.37969 217.599 2.60128L216.227 6.35871ZM225.396 13.2492C227.359 16.2263 228.413 20.0991 228.413 25H232.413C232.413 19.5329 231.235 14.8377 228.735 11.0468L225.396 13.2492ZM228.413 25C228.413 28.2667 227.781 31.0393 226.582 33.3744L230.14 35.2016C231.677 32.2087 232.413 28.7893 232.413 25H228.413ZM226.572 33.3936C225.399 35.7394 223.807 37.7546 221.784 39.4516L224.354 42.5164C226.795 40.4694 228.731 38.0206 230.15 35.1824L226.572 33.3936ZM221.789 39.4476C219.763 41.1356 217.574 42.516 215.218 43.593L216.881 47.2309C219.565 46.004 222.055 44.4324 224.35 42.5204L221.789 39.4476ZM214.392 46.5312L237.072 80.1192L240.387 77.8808L217.707 44.2928L214.392 46.5312ZM238.729 77H220.585V81H238.729V77ZM222.285 77.9456L203.925 48.3536L200.526 50.4624L218.886 80.0544L222.285 77.9456ZM202.225 47.408H193.477V51.408H202.225V47.408ZM191.477 49.408V79H195.477V49.408H191.477ZM193.477 77H177.169V81H193.477V77ZM179.169 79V1.888H175.169V79H179.169ZM177.169 3.888H199.633V-0.112005H177.169V3.888ZM198.445 13.28H193.477V17.28H198.445V13.28ZM191.477 15.28V36.124H195.477V15.28H191.477ZM193.477 38.124H198.769V34.124H193.477V38.124ZM198.769 38.124C202.491 38.124 205.658 37.7179 208.186 36.8209L206.848 33.0511C204.912 33.7381 202.247 34.124 198.769 34.124V38.124ZM208.186 36.8209C210.727 35.9193 212.76 34.4953 214.065 32.4457L210.69 30.2982C209.978 31.4167 208.772 32.3687 206.848 33.0511L208.186 36.8209ZM214.086 32.4119C215.318 30.3879 215.889 28.0331 215.889 25.432H211.889C211.889 27.4389 211.453 29.0441 210.669 30.3321L214.086 32.4119ZM215.889 25.432C215.889 22.679 215.24 20.2464 213.723 18.3506L210.599 20.8494C211.387 21.8336 211.889 23.289 211.889 25.432H215.889ZM213.789 18.4375C212.376 16.4597 210.241 15.17 207.627 14.4347L206.544 18.2853C208.537 18.846 209.786 19.7163 210.534 20.7625L213.789 18.4375ZM207.699 14.4566C205.196 13.649 202.088 13.28 198.445 13.28V17.28C201.859 17.28 204.511 17.631 206.471 18.2634L207.699 14.4566ZM310.458 79V81H314.084L312.15 77.9331L310.458 79ZM291.882 79L290.183 80.0554L290.77 81H291.882V79ZM271.686 46.492L273.385 45.4366L272.256 43.6194L270.519 44.868L271.686 46.492ZM264.774 51.46L263.607 49.836L262.774 50.4345V51.46H264.774ZM264.774 79V81H266.774V79H264.774ZM248.466 79H246.466V81H248.466V79ZM248.466 1.888V-0.112005H246.466V1.888H248.466ZM264.774 1.888H266.774V-0.112005H264.774V1.888ZM264.774 37.204H262.774V43.4449L266.402 38.3665L264.774 37.204ZM268.014 32.668L269.642 33.8305L269.642 33.8305L268.014 32.668ZM271.254 28.132L269.688 26.8881L269.656 26.928L269.627 26.9695L271.254 28.132ZM292.098 1.888V-0.112005H291.133L290.532 0.644115L292.098 1.888ZM310.242 1.888L311.813 3.12583L314.364 -0.112005H310.242V1.888ZM283.35 36.016L281.779 34.7782L280.905 35.8879L281.658 37.0829L283.35 36.016ZM310.458 77H291.882V81H310.458V77ZM293.581 77.9446L273.385 45.4366L269.987 47.5474L290.183 80.0554L293.581 77.9446ZM270.519 44.868L263.607 49.836L265.941 53.084L272.853 48.116L270.519 44.868ZM262.774 51.46V79H266.774V51.46H262.774ZM264.774 77H248.466V81H264.774V77ZM250.466 79V1.888H246.466V79H250.466ZM248.466 3.888H264.774V-0.112005H248.466V3.888ZM262.774 1.888V37.204H266.774V1.888H262.774ZM266.402 38.3665C267.482 36.8545 268.562 35.3425 269.642 33.8305L266.387 31.5055C265.307 33.0175 264.227 34.5295 263.147 36.0415L266.402 38.3665ZM269.642 33.8305C270.722 32.3185 271.802 30.8065 272.882 29.2945L269.627 26.9695C268.547 28.4815 267.467 29.9935 266.387 31.5055L269.642 33.8305ZM272.82 29.3759L293.664 3.13188L290.532 0.644115L269.688 26.8881L272.82 29.3759ZM292.098 3.888H310.242V-0.112005H292.098V3.888ZM308.671 0.650158L281.779 34.7782L284.921 37.2538L311.813 3.12583L308.671 0.650158ZM281.658 37.0829L308.766 80.0669L312.15 77.9331L285.042 34.9491L281.658 37.0829ZM364.573 79V81H366.573V79H364.573ZM320.185 79H318.185V81H320.185V79ZM320.185 1.888V-0.112005H318.185V1.888H320.185ZM364.573 1.888H366.573V-0.112005H364.573V1.888ZM364.573 15.28V17.28H366.573V15.28H364.573ZM336.493 15.28V13.28H334.493V15.28H336.493ZM336.493 32.236H334.493V34.236H336.493V32.236ZM362.629 32.236H364.629V30.236H362.629V32.236ZM362.629 45.628V47.628H364.629V45.628H362.629ZM336.493 45.628V43.628H334.493V45.628H336.493ZM336.493 65.5H334.493V67.5H336.493V65.5ZM364.573 65.5H366.573V63.5H364.573V65.5ZM364.573 77H320.185V81H364.573V77ZM322.185 79V1.888H318.185V79H322.185ZM320.185 3.888H364.573V-0.112005H320.185V3.888ZM362.573 1.888V15.28H366.573V1.888H362.573ZM364.573 13.28H336.493V17.28H364.573V13.28ZM334.493 15.28V32.236H338.493V15.28H334.493ZM336.493 34.236H362.629V30.236H336.493V34.236ZM360.629 32.236V45.628H364.629V32.236H360.629ZM362.629 43.628H336.493V47.628H362.629V43.628ZM334.493 45.628V65.5H338.493V45.628H334.493ZM336.493 67.5H364.573V63.5H336.493V67.5ZM362.573 65.5V79H366.573V65.5H362.573ZM410.318 79V81H412.318V79H410.318ZM394.01 79H392.01V81H394.01V79ZM394.01 15.496H396.01V13.496H394.01V15.496ZM373.058 15.496H371.058V17.496H373.058V15.496ZM373.058 1.888V-0.112005H371.058V1.888H373.058ZM431.27 1.888H433.27V-0.112005H431.27V1.888ZM431.27 15.496V17.496H433.27V15.496H431.27ZM410.318 15.496V13.496H408.318V15.496H410.318ZM410.318 77H394.01V81H410.318V77ZM396.01 79V15.496H392.01V79H396.01ZM394.01 13.496H373.058V17.496H394.01V13.496ZM375.058 15.496V1.888H371.058V15.496H375.058ZM373.058 3.888H431.27V-0.112005H373.058V3.888ZM429.27 1.888V15.496H433.27V1.888H429.27ZM431.27 13.496H410.318V17.496H431.27V13.496ZM408.318 15.496V79H412.318V15.496H408.318ZM471.997 79V81H473.997V79H471.997ZM436.897 79H434.897V81H436.897V79ZM436.897 69.712L436.062 67.8949L434.897 68.4303V69.712H436.897ZM446.293 65.392L447.129 67.2091L448.293 66.6737V65.392H446.293ZM446.293 15.496H448.293V14.2143L447.129 13.6789L446.293 15.496ZM436.897 11.176H434.897V12.4577L436.062 12.9931L436.897 11.176ZM436.897 1.888V-0.112005H434.897V1.888H436.897ZM471.997 1.888H473.997V-0.112005H471.997V1.888ZM471.997 11.176L472.833 12.9931L473.997 12.4577V11.176H471.997ZM462.601 15.496L461.766 13.6789L460.601 14.2143V15.496H462.601ZM462.601 65.392H460.601V66.6737L461.766 67.2091L462.601 65.392ZM471.997 69.712H473.997V68.4303L472.833 67.8949L471.997 69.712ZM471.997 77H436.897V81H471.997V77ZM438.897 79V69.712H434.897V79H438.897ZM437.733 71.5291L447.129 67.2091L445.458 63.5749L436.062 67.8949L437.733 71.5291ZM448.293 65.392V15.496H444.293V65.392H448.293ZM447.129 13.6789L437.733 9.35886L436.062 12.9931L445.458 17.3131L447.129 13.6789ZM438.897 11.176V1.888H434.897V11.176H438.897ZM436.897 3.888H471.997V-0.112005H436.897V3.888ZM469.997 1.888V11.176H473.997V1.888H469.997ZM471.162 9.35886L461.766 13.6789L463.437 17.3131L472.833 12.9931L471.162 9.35886ZM460.601 15.496V65.392H464.601V15.496H460.601ZM461.766 67.2091L471.162 71.5291L472.833 67.8949L463.437 63.5749L461.766 67.2091ZM469.997 69.712V79H473.997V69.712H469.997ZM553.502 79V81H555.502V79H553.502ZM532.766 79L531.033 79.9981L531.61 81H532.766V79ZM499.178 20.68L500.911 19.6818L500.334 18.68H499.178V20.68ZM498.746 20.68V18.68H496.664L496.748 20.7599L498.746 20.68ZM498.962 26.188L496.963 26.2649L496.964 26.2679L498.962 26.188ZM499.178 31.696L497.179 31.7729L497.181 31.8142L497.184 31.8555L499.178 31.696ZM499.502 37.204L497.503 37.2809L497.504 37.2839L499.502 37.204ZM499.718 42.712H501.718V42.6735L501.716 42.6351L499.718 42.712ZM499.718 79V81H501.718V79H499.718ZM485.138 79H483.138V81H485.138V79ZM485.138 1.888V-0.112005H483.138V1.888H485.138ZM505.766 1.888L507.496 0.885285L506.919 -0.112005H505.766V1.888ZM539.246 59.668L537.515 60.6707L538.093 61.668H539.246V59.668ZM539.57 59.668V61.668H541.652L541.568 59.5881L539.57 59.668ZM539.354 54.376L537.356 54.4559L537.356 54.4593L539.354 54.376ZM539.138 49.084H537.138V49.1256L537.14 49.1673L539.138 49.084ZM539.03 43.792L537.032 43.8719L537.032 43.8753L539.03 43.792ZM538.814 38.392H536.814V38.432L536.816 38.4719L538.814 38.392ZM538.814 1.888V-0.112005H536.814V1.888H538.814ZM553.502 1.888H555.502V-0.112005H553.502V1.888ZM553.502 77H532.766V81H553.502V77ZM534.499 78.0019L500.911 19.6818L497.445 21.6781L531.033 79.9981L534.499 78.0019ZM499.178 18.68H498.746V22.68H499.178V18.68ZM496.748 20.7599C496.82 22.5589 496.891 24.3938 496.963 26.2649L500.96 26.1111C500.888 24.2381 500.816 22.4011 500.744 20.6001L496.748 20.7599ZM496.964 26.2679C497.036 28.0669 497.107 29.9018 497.179 31.7729L501.176 31.6191C501.104 29.7461 501.032 27.9091 500.96 26.1081L496.964 26.2679ZM497.184 31.8555C497.326 33.627 497.432 35.4354 497.503 37.2809L501.5 37.1271C501.427 35.2286 501.318 33.365 501.172 31.5365L497.184 31.8555ZM497.504 37.2839C497.576 39.0829 497.647 40.9178 497.719 42.7889L501.716 42.6351C501.644 40.7621 501.572 38.9251 501.5 37.1241L497.504 37.2839ZM497.718 42.712V79H501.718V42.712H497.718ZM499.718 77H485.138V81H499.718V77ZM487.138 79V1.888H483.138V79H487.138ZM485.138 3.888H505.766V-0.112005H485.138V3.888ZM504.035 2.8907L537.515 60.6707L540.976 58.6653L507.496 0.885285L504.035 2.8907ZM539.246 61.668H539.57V57.668H539.246V61.668ZM541.568 59.5881C541.496 57.787 541.424 56.0219 541.352 54.2927L537.356 54.4593C537.428 56.1861 537.5 57.949 537.572 59.7479L541.568 59.5881ZM541.352 54.2961C541.28 52.495 541.208 50.7299 541.136 49.0007L537.14 49.1673C537.212 50.8941 537.284 52.657 537.356 54.4559L541.352 54.2961ZM541.138 49.084C541.138 47.2574 541.101 45.4656 541.028 43.7087L537.032 43.8753C537.103 45.5744 537.138 47.3106 537.138 49.084H541.138ZM541.028 43.7121C540.956 41.9121 540.884 40.1121 540.812 38.3121L536.816 38.4719C536.888 40.2719 536.96 42.0719 537.032 43.8719L541.028 43.7121ZM540.814 38.392V1.888H536.814V38.392H540.814ZM538.814 3.888H553.502V-0.112005H538.814V3.888ZM551.502 1.888V79H555.502V1.888H551.502ZM602.261 35.692V33.692H600.261V35.692H602.261ZM632.825 35.692H634.825V33.692H632.825V35.692ZM632.825 75.652L633.468 77.546L634.825 77.0854V75.652H632.825ZM620.189 78.892L619.835 76.9237L619.829 76.9248L620.189 78.892ZM585.845 75.544L584.858 77.2834L584.868 77.289L585.845 75.544ZM573.641 62.152L571.827 62.9929L571.831 63.002L571.835 63.011L573.641 62.152ZM574.181 19.384L572.419 18.4384L572.415 18.4467L572.41 18.4552L574.181 19.384ZM621.917 2.104L621.491 4.05803L621.491 4.05803L621.917 2.104ZM632.717 5.56L634.566 6.3238L635.31 4.52351L633.53 3.73238L632.717 5.56ZM627.317 18.628L626.402 20.4059L628.335 21.4021L629.166 19.3918L627.317 18.628ZM619.217 15.604L618.711 17.5387L618.711 17.5387L619.217 15.604ZM597.293 17.656L596.249 15.9503L596.241 15.9551L596.233 15.96L597.293 17.656ZM589.193 26.836L587.398 25.9547L587.395 25.9615L587.391 25.9684L589.193 26.836ZM588.437 54.052L586.551 54.7158L586.551 54.7158L588.437 54.052ZM594.917 63.232L593.711 64.8273L593.724 64.8368L593.736 64.8461L594.917 63.232ZM610.577 66.364L610.702 68.3601L610.757 68.3567L610.811 68.3503L610.577 66.364ZM613.925 65.932L614.208 67.9119L614.277 67.9021L614.344 67.8876L613.925 65.932ZM616.841 65.392L617.146 67.3687L618.841 67.1078V65.392H616.841ZM616.841 49.3H618.841V47.3H616.841V49.3ZM602.261 49.3H600.261V51.3H602.261V49.3ZM602.261 37.692H632.825V33.692H602.261V37.692ZM630.825 35.692V75.652H634.825V35.692H630.825ZM632.183 73.758C628.249 75.0927 624.134 76.1485 619.835 76.9237L620.544 80.8603C625.029 80.0515 629.338 78.9473 633.468 77.546L632.183 73.758ZM619.829 76.9248C615.654 77.6902 610.846 78.08 605.393 78.08V82.08C611.029 82.08 616.085 81.6778 620.55 80.8592L619.829 76.9248ZM605.393 78.08C598.025 78.08 591.862 76.621 586.823 73.799L584.868 77.289C590.629 80.515 597.498 82.08 605.393 82.08V78.08ZM586.833 73.8046C581.886 70.997 578.092 66.8528 575.448 61.293L571.835 63.011C574.807 69.2592 579.149 74.043 584.858 77.2834L586.833 73.8046ZM575.456 61.3111C572.875 55.7421 571.537 48.7762 571.537 40.336H567.537C567.537 49.1758 568.936 56.7539 571.827 62.9929L575.456 61.3111ZM571.537 40.336C571.537 32.5284 573.035 25.8762 575.953 20.3128L572.41 18.4552C569.136 24.6998 567.537 32.0156 567.537 40.336H571.537ZM575.944 20.3296C578.924 14.7749 583.213 10.483 588.851 7.42621L586.944 3.90978C580.63 7.33299 575.775 12.1851 572.419 18.4384L575.944 20.3296ZM588.851 7.42621C594.465 4.38219 601.426 2.808 609.821 2.808V-1.192C600.937 -1.192 593.282 0.473801 586.944 3.90978L588.851 7.42621ZM609.821 2.808C613.784 2.808 617.673 3.22497 621.491 4.05803L622.344 0.149967C618.242 -0.744975 614.067 -1.192 609.821 -1.192V2.808ZM621.491 4.05803C625.337 4.89712 628.805 6.00991 631.905 7.38762L633.53 3.73238C630.15 2.23008 626.418 1.03887 622.344 0.149967L621.491 4.05803ZM630.869 4.7962L625.469 17.8642L629.166 19.3918L634.566 6.3238L630.869 4.7962ZM628.233 16.85C625.707 15.5488 622.867 14.4923 619.724 13.6693L618.711 17.5387C621.616 18.2997 624.176 19.2592 626.402 20.4059L628.233 16.85ZM619.724 13.6693C616.525 12.8314 613.186 12.416 609.713 12.416V16.416C612.865 16.416 615.862 16.7926 618.711 17.5387L619.724 13.6693ZM609.713 12.416C604.649 12.416 600.136 13.5706 596.249 15.9503L598.338 19.3617C601.507 17.4214 605.274 16.416 609.713 16.416V12.416ZM596.233 15.96C592.435 18.3339 589.492 21.6885 587.398 25.9547L590.989 27.7173C592.782 24.0635 595.24 21.2981 598.353 19.352L596.233 15.96ZM587.391 25.9684C585.362 30.183 584.385 35.1006 584.385 40.66H588.385C588.385 35.5634 589.281 31.265 590.995 27.7036L587.391 25.9684ZM584.385 40.66C584.385 45.8775 585.093 50.573 586.551 54.7158L590.324 53.3882C589.046 49.755 588.385 45.5225 588.385 40.66H584.385ZM586.551 54.7158C588.034 58.9307 590.411 62.3319 593.711 64.8273L596.124 61.6367C593.52 59.6681 591.577 56.9493 590.324 53.3882L586.551 54.7158ZM593.736 64.8461C597.121 67.3226 601.424 68.472 606.473 68.472V64.472C602.019 64.472 598.618 63.4614 596.098 61.6179L593.736 64.8461ZM606.473 68.472C608.085 68.472 609.497 68.4355 610.702 68.3601L610.453 64.3679C609.354 64.4365 608.03 64.472 606.473 64.472V68.472ZM610.811 68.3503C612.048 68.2048 613.181 68.0587 614.208 67.9119L613.643 63.9521C612.654 64.0933 611.555 64.2352 610.344 64.3777L610.811 68.3503ZM614.344 67.8876C615.318 67.6791 616.251 67.5063 617.146 67.3687L616.537 63.4153C615.56 63.5657 614.549 63.7529 613.506 63.9764L614.344 67.8876ZM618.841 65.392V49.3H614.841V65.392H618.841ZM616.841 47.3H602.261V51.3H616.841V47.3ZM604.261 49.3V35.692H600.261V49.3H604.261Z" fill="#2C507A" mask="url(#path-1-outside-1_1_3)"/>
</svg>
