<svg width="712" height="81" viewBox="0 0 712 81" fill="none" xmlns="http://www.w3.org/2000/svg">
<mask id="path-1-outside-1_1_4" maskUnits="userSpaceOnUse" x="-2" y="-2" width="717" height="85" fill="black">
<rect fill="white" x="-2" y="-2" width="717" height="85"/>
<path d="M25.344 1.888C35.28 1.888 42.516 4.048 47.052 8.368C51.66 12.616 53.964 18.484 53.964 25.972C53.964 29.356 53.46 32.596 52.452 35.692C51.444 38.716 49.752 41.452 47.376 43.9C45.072 46.276 42.012 48.148 38.196 49.516C34.38 50.884 29.664 51.568 24.048 51.568H17.028V79H0.72V1.888H25.344ZM24.48 15.28H17.028V38.176H22.428C25.524 38.176 28.188 37.78 30.42 36.988C32.652 36.196 34.38 34.936 35.604 33.208C36.828 31.48 37.44 29.248 37.44 26.512C37.44 22.696 36.396 19.888 34.308 18.088C32.22 16.216 28.944 15.28 24.48 15.28ZM114.004 57.616C114.004 62.152 112.888 66.112 110.656 69.496C108.424 72.88 105.184 75.508 100.936 77.38C96.7604 79.18 91.6484 80.08 85.6004 80.08C82.9364 80.08 80.3084 79.9 77.7164 79.54C75.1964 79.18 72.7484 78.676 70.3724 78.028C68.0684 77.308 65.8724 76.444 63.7844 75.436V60.208C67.4564 61.792 71.2364 63.268 75.1244 64.636C79.0844 65.932 83.0084 66.58 86.8964 66.58C89.5604 66.58 91.6844 66.22 93.2684 65.5C94.9244 64.78 96.1124 63.808 96.8324 62.584C97.6244 61.36 98.0204 59.956 98.0204 58.372C98.0204 56.428 97.3364 54.772 95.9684 53.404C94.6724 52.036 92.9084 50.776 90.6764 49.624C88.4444 48.4 85.8884 47.104 83.0084 45.736C81.2084 44.872 79.2644 43.864 77.1764 42.712C75.0884 41.488 73.0724 40.012 71.1284 38.284C69.2564 36.484 67.7084 34.324 66.4844 31.804C65.2604 29.284 64.6484 26.26 64.6484 22.732C64.6484 18.124 65.6924 14.2 67.7804 10.96C69.9404 7.64799 72.9644 5.12799 76.8524 3.39999C80.8124 1.672 85.4564 0.807996 90.7844 0.807996C94.8164 0.807996 98.6324 1.276 102.232 2.212C105.904 3.148 109.72 4.48 113.68 6.208L108.388 18.952C104.86 17.512 101.692 16.396 98.8844 15.604C96.0764 14.812 93.1964 14.416 90.2444 14.416C88.2284 14.416 86.5004 14.74 85.0604 15.388C83.6204 16.036 82.5044 16.936 81.7124 18.088C80.9924 19.24 80.6324 20.608 80.6324 22.192C80.6324 23.992 81.1724 25.54 82.2524 26.836C83.3324 28.06 84.9524 29.248 87.1124 30.4C89.2724 31.552 91.9724 32.92 95.2124 34.504C99.1724 36.376 102.52 38.32 105.256 40.336C108.064 42.352 110.224 44.728 111.736 47.464C113.248 50.2 114.004 53.584 114.004 57.616ZM151.997 33.64L168.089 1.888H185.693L160.097 48.976V79H143.897V49.516L118.301 1.888H136.013L151.997 33.64ZM226.03 14.416C222.934 14.416 220.162 15.028 217.714 16.252C215.338 17.476 213.322 19.24 211.666 21.544C210.01 23.776 208.75 26.512 207.886 29.752C207.094 32.992 206.698 36.628 206.698 40.66C206.698 46.132 207.346 50.812 208.642 54.7C210.01 58.516 212.134 61.432 215.014 63.448C217.894 65.464 221.566 66.472 226.03 66.472C229.198 66.472 232.33 66.112 235.426 65.392C238.594 64.672 242.014 63.664 245.686 62.368V76.084C242.302 77.452 238.954 78.46 235.642 79.108C232.33 79.756 228.622 80.08 224.518 80.08C216.598 80.08 210.046 78.46 204.862 75.22C199.75 71.908 195.97 67.3 193.522 61.396C191.074 55.42 189.85 48.472 189.85 40.552C189.85 34.72 190.642 29.392 192.226 24.568C193.81 19.672 196.114 15.46 199.138 11.932C202.234 8.404 206.014 5.668 210.478 3.724C215.014 1.78 220.198 0.807996 226.03 0.807996C229.846 0.807996 233.662 1.312 237.478 2.32C241.366 3.256 245.074 4.552 248.602 6.208L243.31 19.492C240.43 18.124 237.514 16.936 234.562 15.928C231.682 14.92 228.838 14.416 226.03 14.416ZM325.252 79H308.944V45.736H278.38V79H262.072V1.888H278.38V32.128H308.944V1.888H325.252V79ZM414.638 40.336C414.638 46.312 413.882 51.748 412.37 56.644C410.93 61.468 408.698 65.644 405.674 69.172C402.722 72.7 398.906 75.4 394.226 77.272C389.618 79.144 384.182 80.08 377.918 80.08C371.654 80.08 366.182 79.144 361.502 77.272C356.894 75.328 353.078 72.628 350.054 69.172C347.102 65.644 344.87 61.432 343.358 56.536C341.918 51.64 341.198 46.204 341.198 40.228C341.198 32.236 342.494 25.288 345.086 19.384C347.75 13.48 351.782 8.908 357.182 5.668C362.654 2.356 369.602 0.699997 378.026 0.699997C386.378 0.699997 393.254 2.356 398.654 5.668C404.054 8.908 408.05 13.516 410.642 19.492C413.306 25.396 414.638 32.344 414.638 40.336ZM358.37 40.336C358.37 45.736 359.054 50.38 360.422 54.268C361.79 58.156 363.914 61.144 366.794 63.232C369.674 65.32 373.382 66.364 377.918 66.364C382.598 66.364 386.342 65.32 389.15 63.232C392.03 61.144 394.118 58.156 395.414 54.268C396.782 50.38 397.466 45.736 397.466 40.336C397.466 32.2 395.954 25.828 392.93 21.22C389.906 16.612 384.938 14.308 378.026 14.308C373.418 14.308 369.674 15.352 366.794 17.44C363.914 19.528 361.79 22.516 360.422 26.404C359.054 30.292 358.37 34.936 358.37 40.336ZM430.611 79V1.888H446.919V65.5H478.239V79H430.611ZM559.552 40.336C559.552 46.312 558.796 51.748 557.284 56.644C555.844 61.468 553.612 65.644 550.588 69.172C547.636 72.7 543.82 75.4 539.14 77.272C534.532 79.144 529.096 80.08 522.832 80.08C516.568 80.08 511.096 79.144 506.416 77.272C501.808 75.328 497.992 72.628 494.968 69.172C492.016 65.644 489.784 61.432 488.272 56.536C486.832 51.64 486.112 46.204 486.112 40.228C486.112 32.236 487.408 25.288 490 19.384C492.664 13.48 496.696 8.908 502.096 5.668C507.568 2.356 514.516 0.699997 522.94 0.699997C531.292 0.699997 538.168 2.356 543.568 5.668C548.968 8.908 552.964 13.516 555.556 19.492C558.22 25.396 559.552 32.344 559.552 40.336ZM503.284 40.336C503.284 45.736 503.968 50.38 505.336 54.268C506.704 58.156 508.828 61.144 511.708 63.232C514.588 65.32 518.296 66.364 522.832 66.364C527.512 66.364 531.256 65.32 534.064 63.232C536.944 61.144 539.032 58.156 540.328 54.268C541.696 50.38 542.38 45.736 542.38 40.336C542.38 32.2 540.868 25.828 537.844 21.22C534.82 16.612 529.852 14.308 522.94 14.308C518.332 14.308 514.588 15.352 511.708 17.44C508.828 19.528 506.704 22.516 505.336 26.404C503.968 30.292 503.284 34.936 503.284 40.336ZM604.793 35.692H635.357V75.652C631.325 77.02 627.113 78.1 622.721 78.892C618.401 79.684 613.469 80.08 607.925 80.08C600.293 80.08 593.777 78.568 588.377 75.544C583.049 72.52 578.981 68.056 576.173 62.152C573.437 56.248 572.069 48.976 572.069 40.336C572.069 32.272 573.617 25.288 576.713 19.384C579.881 13.48 584.453 8.908 590.429 5.668C596.405 2.428 603.713 0.807996 612.353 0.807996C616.457 0.807996 620.489 1.24 624.449 2.104C628.409 2.968 632.009 4.12 635.249 5.56L629.849 18.628C627.473 17.404 624.773 16.396 621.749 15.604C618.725 14.812 615.557 14.416 612.245 14.416C607.493 14.416 603.353 15.496 599.825 17.656C596.369 19.816 593.669 22.876 591.725 26.836C589.853 30.724 588.917 35.332 588.917 40.66C588.917 45.7 589.601 50.164 590.969 54.052C592.337 57.94 594.497 61 597.449 63.232C600.401 65.392 604.253 66.472 609.005 66.472C610.589 66.472 611.957 66.436 613.109 66.364C614.333 66.22 615.449 66.076 616.457 65.932C617.465 65.716 618.437 65.536 619.373 65.392V49.3H604.793V35.692ZM677.653 33.64L693.745 1.888H711.349L685.753 48.976V79H669.553V49.516L643.957 1.888H661.669L677.653 33.64Z"/>
</mask>
<path d="M47.052 8.368L45.6727 9.81627L45.6845 9.82747L45.6964 9.83848L47.052 8.368ZM52.452 35.692L54.3494 36.3245L54.3537 36.3112L52.452 35.692ZM47.376 43.9L45.9408 42.507L45.9402 42.5077L47.376 43.9ZM38.196 49.516L38.8709 51.3987L38.8709 51.3987L38.196 49.516ZM17.028 51.568V49.568H15.028V51.568H17.028ZM17.028 79V81H19.028V79H17.028ZM0.72 79H-1.28V81H0.72V79ZM0.72 1.888V-0.112005H-1.28V1.888H0.72ZM17.028 15.28V13.28H15.028V15.28H17.028ZM17.028 38.176H15.028V40.176H17.028V38.176ZM30.42 36.988L29.7512 35.1031L29.7512 35.1031L30.42 36.988ZM35.604 33.208L33.972 32.052L33.972 32.052L35.604 33.208ZM34.308 18.088L32.9729 19.5771L32.9874 19.5901L33.0021 19.6028L34.308 18.088ZM25.344 3.888C35.0551 3.888 41.6751 6.00907 45.6727 9.81627L48.4313 6.91972C43.3569 2.08692 35.5049 -0.112005 25.344 -0.112005V3.888ZM45.6964 9.83848C49.8142 13.6345 51.964 18.9245 51.964 25.972H55.964C55.964 18.0435 53.5058 11.5974 48.4076 6.89751L45.6964 9.83848ZM51.964 25.972C51.964 29.1541 51.4906 32.1845 50.5503 35.0728L54.3537 36.3112C55.4294 33.0074 55.964 29.5579 55.964 25.972H51.964ZM50.5546 35.0595C49.6482 37.7788 48.1226 40.2592 45.9408 42.507L48.8112 45.2929C51.3814 42.6448 53.2398 39.6532 54.3494 36.3245L50.5546 35.0595ZM45.9402 42.5077C43.8915 44.6204 41.1129 46.3457 37.5211 47.6333L38.8709 51.3987C42.9111 49.9503 46.2525 47.9316 48.8118 45.2923L45.9402 42.5077ZM37.5211 47.6333C33.9874 48.9001 29.5161 49.568 24.048 49.568V53.568C29.8119 53.568 34.7726 52.8679 38.8709 51.3987L37.5211 47.6333ZM24.048 49.568H17.028V53.568H24.048V49.568ZM15.028 51.568V79H19.028V51.568H15.028ZM17.028 77H0.72V81H17.028V77ZM2.72 79V1.888H-1.28V79H2.72ZM0.72 3.888H25.344V-0.112005H0.72V3.888ZM24.48 13.28H17.028V17.28H24.48V13.28ZM15.028 15.28V38.176H19.028V15.28H15.028ZM17.028 40.176H22.428V36.176H17.028V40.176ZM22.428 40.176C25.6857 40.176 28.5875 39.7604 31.0888 38.8729L29.7512 35.1031C27.7885 35.7996 25.3623 36.176 22.428 36.176V40.176ZM31.0888 38.8729C33.6614 37.96 35.7459 36.4677 37.2361 34.364L33.972 32.052C33.0141 33.4043 31.6426 34.432 29.7512 35.1031L31.0888 38.8729ZM37.2361 34.364C38.7608 32.2114 39.44 29.5415 39.44 26.512H35.44C35.44 28.9545 34.8952 30.7486 33.972 32.052L37.2361 34.364ZM39.44 26.512C39.44 22.3475 38.293 18.8828 35.6139 16.5732L33.0021 19.6028C34.499 20.8932 35.44 23.0445 35.44 26.512H39.44ZM35.6431 16.5989C33.0242 14.2509 29.1599 13.28 24.48 13.28V17.28C28.7281 17.28 31.4158 18.1811 32.9729 19.5771L35.6431 16.5989ZM110.656 69.496L108.987 68.3948L108.987 68.3948L110.656 69.496ZM100.936 77.38L101.728 79.2166L101.736 79.2134L101.743 79.2102L100.936 77.38ZM77.7164 79.54L77.4336 81.5199L77.4413 81.521L77.7164 79.54ZM70.3724 78.028L69.7759 79.937L69.8108 79.9479L69.8462 79.9575L70.3724 78.028ZM63.7844 75.436H61.7844V76.6913L62.9149 77.2371L63.7844 75.436ZM63.7844 60.208L64.5766 58.3716L61.7844 57.1671V60.208H63.7844ZM75.1244 64.636L74.4606 66.5226L74.4814 66.5299L74.5023 66.5368L75.1244 64.636ZM93.2684 65.5L92.471 63.6659L92.4558 63.6724L92.4408 63.6793L93.2684 65.5ZM96.8324 62.584L95.1533 61.4975L95.1301 61.5333L95.1085 61.57L96.8324 62.584ZM95.9684 53.404L94.5165 54.7795L94.5351 54.7991L94.5542 54.8182L95.9684 53.404ZM90.6764 49.624L89.7147 51.3776L89.7368 51.3897L89.7591 51.4012L90.6764 49.624ZM83.0084 45.736L82.1429 47.5391L82.1503 47.5426L83.0084 45.736ZM77.1764 42.712L76.165 44.4374L76.1874 44.4506L76.2103 44.4632L77.1764 42.712ZM71.1284 38.284L69.7422 39.7257L69.7704 39.7528L69.7997 39.7788L71.1284 38.284ZM66.4844 31.804L64.6854 32.6778L64.6854 32.6778L66.4844 31.804ZM67.7804 10.96L66.1052 9.86744L66.0993 9.87659L67.7804 10.96ZM76.8524 3.39999L76.0525 1.56687L76.0401 1.57237L76.8524 3.39999ZM102.232 2.212L101.729 4.14766L101.738 4.15003L102.232 2.212ZM113.68 6.208L115.527 6.975L116.281 5.16064L114.48 4.37492L113.68 6.208ZM108.388 18.952L107.633 20.8037L109.473 21.5549L110.235 19.719L108.388 18.952ZM98.8844 15.604L98.3415 17.5289L98.3415 17.5289L98.8844 15.604ZM85.0604 15.388L85.8811 17.2118L85.8811 17.2118L85.0604 15.388ZM81.7124 18.088L80.0643 16.9549L80.0396 16.9909L80.0164 17.028L81.7124 18.088ZM82.2524 26.836L80.716 28.1164L80.734 28.1381L80.7527 28.1592L82.2524 26.836ZM87.1124 30.4L88.0536 28.6353L88.0536 28.6353L87.1124 30.4ZM95.2124 34.504L94.334 36.3008L94.3458 36.3065L94.3576 36.3121L95.2124 34.504ZM105.256 40.336L104.07 41.9461L104.08 41.9534L104.09 41.9606L105.256 40.336ZM111.736 47.464L109.986 48.4314L109.986 48.4314L111.736 47.464ZM112.004 57.616C112.004 61.8087 110.978 65.3757 108.987 68.3948L112.326 70.5972C114.799 66.8483 116.004 62.4953 116.004 57.616H112.004ZM108.987 68.3948C106.996 71.4133 104.079 73.8098 100.13 75.5498L101.743 79.2102C106.29 77.2062 109.853 74.3467 112.326 70.5972L108.987 68.3948ZM100.145 75.5434C96.2866 77.2063 91.4613 78.08 85.6004 78.08V82.08C91.8355 82.08 97.2342 81.1537 101.728 79.2166L100.145 75.5434ZM85.6004 78.08C83.0268 78.08 80.4908 77.9061 77.9915 77.559L77.4413 81.521C80.1261 81.8939 82.846 82.08 85.6004 82.08V78.08ZM77.9993 77.5601C75.5586 77.2114 73.192 76.7239 70.8986 76.0985L69.8462 79.9575C72.3048 80.6281 74.8342 81.1486 77.4336 81.5199L77.9993 77.5601ZM70.969 76.119C68.7546 75.4271 66.6502 74.5986 64.6539 73.6349L62.9149 77.2371C65.0947 78.2894 67.3822 79.1889 69.7759 79.937L70.969 76.119ZM65.7844 75.436V60.208H61.7844V75.436H65.7844ZM62.9922 62.0444C66.7077 63.6472 70.5306 65.1398 74.4606 66.5226L75.7882 62.7494C71.9423 61.3962 68.2051 59.9368 64.5766 58.3716L62.9922 62.0444ZM74.5023 66.5368C78.6487 67.8938 82.7825 68.58 86.8964 68.58V64.58C83.2343 64.58 79.5201 63.9702 75.7465 62.7352L74.5023 66.5368ZM86.8964 68.58C89.709 68.58 92.1512 68.2048 94.096 67.3207L92.4408 63.6793C91.2177 64.2352 89.4118 64.58 86.8964 64.58V68.58ZM94.0659 67.3341C96.0037 66.4916 97.57 65.2748 98.5563 63.598L95.1085 61.57C94.6549 62.3412 93.8451 63.0684 92.471 63.6659L94.0659 67.3341ZM98.5116 63.6705C99.5311 62.0948 100.02 60.3068 100.02 58.372H96.0204C96.0204 59.6052 95.7177 60.6252 95.1533 61.4975L98.5116 63.6705ZM100.02 58.372C100.02 55.9005 99.1277 53.7349 97.3826 51.9898L94.5542 54.8182C95.5451 55.8091 96.0204 56.9555 96.0204 58.372H100.02ZM97.4203 52.0285C95.9281 50.4534 93.9629 49.0696 91.5937 47.8468L89.7591 51.4012C91.8539 52.4824 93.4167 53.6186 94.5165 54.7795L97.4203 52.0285ZM91.6381 47.8704C89.3649 46.6238 86.7732 45.3101 83.8665 43.9294L82.1503 47.5426C85.0036 48.8979 87.5239 50.1762 89.7147 51.3776L91.6381 47.8704ZM83.8739 43.933C82.1137 43.0881 80.2036 42.098 78.1426 40.9608L76.2103 44.4632C78.3252 45.63 80.3031 46.6559 82.1429 47.539L83.8739 43.933ZM78.1878 40.9866C76.221 39.8336 74.3104 38.4365 72.4571 36.7892L69.7997 39.7788C71.8344 41.5875 73.9559 43.1424 76.165 44.4374L78.1878 40.9866ZM72.5146 36.8423C70.8256 35.2182 69.4125 33.2548 68.2834 30.9302L64.6854 32.6778C66.0043 35.3932 67.6872 37.7498 69.7422 39.7257L72.5146 36.8423ZM68.2834 30.9302C67.2214 28.7437 66.6484 26.0336 66.6484 22.732H62.6484C62.6484 26.4864 63.2994 29.8243 64.6854 32.6778L68.2834 30.9302ZM66.6484 22.732C66.6484 18.4322 67.6194 14.9019 69.4615 12.0434L66.0993 9.87659C63.7654 13.4981 62.6484 17.8158 62.6484 22.732H66.6484ZM69.4556 12.0525C71.3888 9.0884 74.1012 6.81138 77.6647 5.22762L76.0401 1.57237C71.8276 3.4446 68.4921 6.20759 66.1052 9.86746L69.4556 12.0525ZM77.6523 5.23307C81.3084 3.63766 85.6692 2.808 90.7844 2.808V-1.192C85.2436 -1.192 80.3164 -0.293672 76.0525 1.56692L77.6523 5.23307ZM90.7844 2.808C94.6607 2.808 98.3066 3.25779 101.729 4.14764L102.736 0.276352C98.9582 -0.705793 94.9721 -1.192 90.7844 -1.192V2.808ZM101.738 4.15003C105.292 5.05596 109.006 6.35039 112.881 8.04108L114.48 4.37492C110.435 2.60961 106.516 1.24003 102.726 0.273968L101.738 4.15003ZM111.833 5.44099L106.541 18.185L110.235 19.719L115.527 6.975L111.833 5.44099ZM109.144 17.1003C105.566 15.64 102.326 14.4965 99.4273 13.6791L98.3415 17.5289C101.059 18.2954 104.154 19.384 107.633 20.8037L109.144 17.1003ZM99.4273 13.6791C96.4406 12.8367 93.3778 12.416 90.2444 12.416V16.416C93.015 16.416 95.7123 16.7873 98.3415 17.5289L99.4273 13.6791ZM90.2444 12.416C88.0209 12.416 85.9986 12.7726 84.2397 13.5642L85.8811 17.2118C87.0022 16.7074 88.4359 16.416 90.2444 16.416V12.416ZM84.2397 13.5642C82.5102 14.3424 81.0896 15.4637 80.0643 16.9549L83.3605 19.2211C83.9192 18.4083 84.7307 17.7296 85.8811 17.2118L84.2397 13.5642ZM80.0164 17.028C79.0667 18.5476 78.6324 20.2965 78.6324 22.192H82.6324C82.6324 20.9195 82.9181 19.9324 83.4084 19.148L80.0164 17.028ZM78.6324 22.192C78.6324 24.4261 79.3155 26.4358 80.716 28.1164L83.7889 25.5556C83.0293 24.6442 82.6324 23.5579 82.6324 22.192H78.6324ZM80.7527 28.1592C82.0493 29.6287 83.8952 30.9508 86.1712 32.1647L88.0536 28.6353C86.0096 27.5452 84.6155 26.4913 83.7521 25.5128L80.7527 28.1592ZM86.1712 32.1647C88.3591 33.3316 91.0817 34.7108 94.334 36.3008L96.0908 32.7072C92.8631 31.1292 90.1857 29.7724 88.0536 28.6353L86.1712 32.1647ZM94.3576 36.3121C98.2325 38.1439 101.463 40.0249 104.07 41.9461L106.443 38.7259C103.578 36.6151 100.112 34.6081 96.0672 32.6959L94.3576 36.3121ZM104.09 41.9606C106.683 43.8221 108.632 45.9815 109.986 48.4314L113.487 46.4966C111.817 43.4745 109.446 40.8819 106.423 38.7114L104.09 41.9606ZM109.986 48.4314C111.294 50.7975 112.004 53.8268 112.004 57.616H116.004C116.004 53.3412 115.203 49.6025 113.487 46.4966L109.986 48.4314ZM151.997 33.64L150.21 34.5393L151.991 38.076L153.781 34.5441L151.997 33.64ZM168.089 1.888V-0.112005H166.86L166.305 0.983872L168.089 1.888ZM185.693 1.888L187.45 2.84316L189.056 -0.112005H185.693V1.888ZM160.097 48.976L158.34 48.0208L158.097 48.4676V48.976H160.097ZM160.097 79V81H162.097V79H160.097ZM143.897 79H141.897V81H143.897V79ZM143.897 49.516H145.897V49.0126L145.658 48.5692L143.897 49.516ZM118.301 1.888V-0.112005H114.955L116.539 2.83476L118.301 1.888ZM136.013 1.888L137.799 0.98871L137.245 -0.112005H136.013V1.888ZM153.781 34.5441L169.873 2.79212L166.305 0.983872L150.213 32.7359L153.781 34.5441ZM168.089 3.888H185.693V-0.112005H168.089V3.888ZM183.936 0.932833L158.34 48.0208L161.854 49.9312L187.45 2.84316L183.936 0.932833ZM158.097 48.976V79H162.097V48.976H158.097ZM160.097 77H143.897V81H160.097V77ZM145.897 79V49.516H141.897V79H145.897ZM145.658 48.5692L120.062 0.941225L116.539 2.83476L142.135 50.4628L145.658 48.5692ZM118.301 3.888H136.013V-0.112005H118.301V3.888ZM134.226 2.78728L150.21 34.5393L153.783 32.7407L137.799 0.98871L134.226 2.78728ZM217.714 16.252L216.82 14.4631L216.809 14.4685L216.798 14.474L217.714 16.252ZM211.666 21.544L213.272 22.7357L213.281 22.7236L213.29 22.7113L211.666 21.544ZM207.886 29.752L205.953 29.2367L205.948 29.2568L205.943 29.2771L207.886 29.752ZM208.642 54.7L206.745 55.3325L206.752 55.3538L206.759 55.3749L208.642 54.7ZM215.014 63.448L213.867 65.0865L213.867 65.0865L215.014 63.448ZM235.426 65.392L234.983 63.4417L234.973 63.444L235.426 65.392ZM245.686 62.368H247.686V59.5412L245.02 60.482L245.686 62.368ZM245.686 76.084L246.436 77.9382L247.686 77.4327V76.084H245.686ZM235.642 79.108L236.026 81.0708L236.026 81.0708L235.642 79.108ZM204.862 75.22L203.774 76.8985L203.788 76.9074L203.802 76.916L204.862 75.22ZM193.522 61.396L191.671 62.1541L191.674 62.162L193.522 61.396ZM192.226 24.568L194.126 25.1919L194.129 25.1836L192.226 24.568ZM199.138 11.932L197.635 10.6128L197.627 10.6216L197.619 10.6304L199.138 11.932ZM210.478 3.724L209.69 1.88568L209.679 1.89033L210.478 3.724ZM237.478 2.32L236.967 4.25367L236.988 4.25929L237.01 4.26444L237.478 2.32ZM248.602 6.208L250.46 6.94817L251.157 5.19802L249.452 4.39752L248.602 6.208ZM243.31 19.492L242.452 21.2986L244.379 22.2137L245.168 20.2322L243.31 19.492ZM234.562 15.928L233.901 17.8157L233.908 17.8182L233.916 17.8207L234.562 15.928ZM226.03 12.416C222.664 12.416 219.58 13.083 216.82 14.4631L218.608 18.0409C220.744 16.973 223.203 16.416 226.03 16.416V12.416ZM216.798 14.474C214.124 15.8517 211.871 17.8323 210.042 20.3767L213.29 22.7113C214.773 20.6477 216.552 19.1003 218.63 18.0299L216.798 14.474ZM210.06 20.3523C208.226 22.8243 206.869 25.8018 205.953 29.2367L209.818 30.2673C210.63 27.2222 211.794 24.7277 213.272 22.7357L210.06 20.3523ZM205.943 29.2771C205.106 32.7008 204.698 36.5 204.698 40.66H208.698C208.698 36.756 209.082 33.2832 209.829 30.2269L205.943 29.2771ZM204.698 40.66C204.698 46.2795 205.362 51.1851 206.745 55.3325L210.539 54.0675C209.33 50.4389 208.698 45.9845 208.698 40.66H204.698ZM206.759 55.3749C208.245 59.5188 210.598 62.7981 213.867 65.0865L216.161 61.8095C213.67 60.0659 211.775 57.5132 210.525 54.0251L206.759 55.3749ZM213.867 65.0865C217.164 67.3943 221.267 68.472 226.03 68.472V64.472C221.865 64.472 218.624 63.5337 216.161 61.8095L213.867 65.0865ZM226.03 68.472C229.351 68.472 232.635 68.0944 235.879 67.34L234.973 63.444C232.025 64.1296 229.045 64.472 226.03 64.472V68.472ZM235.869 67.3423C239.126 66.6022 242.621 65.5708 246.352 64.254L245.02 60.482C241.407 61.7572 238.062 62.7418 234.983 63.4417L235.869 67.3423ZM243.686 62.368V76.084H247.686V62.368H243.686ZM244.936 74.2298C241.661 75.5539 238.435 76.5236 235.258 77.1452L236.026 81.0708C239.473 80.3964 242.943 79.3501 246.436 77.9382L244.936 74.2298ZM235.258 77.1452C232.096 77.7638 228.52 78.08 224.518 78.08V82.08C228.724 82.08 232.564 81.7482 236.026 81.0708L235.258 77.1452ZM224.518 78.08C216.864 78.08 210.707 76.5146 205.922 73.524L203.802 76.916C209.385 80.4054 216.332 82.08 224.518 82.08V78.08ZM205.949 73.5415C201.195 70.4609 197.67 66.1794 195.369 60.63L191.674 62.162C194.269 68.4206 198.305 73.3551 203.774 76.8985L205.949 73.5415ZM195.373 60.6379C193.043 54.9503 191.85 48.2692 191.85 40.552H187.85C187.85 48.6748 189.105 55.8897 191.671 62.1541L195.373 60.6379ZM191.85 40.552C191.85 34.901 192.617 29.7872 194.126 25.1919L190.326 23.9441C188.667 28.9968 187.85 34.539 187.85 40.552H191.85ZM194.129 25.1836C195.64 20.5123 197.822 16.5401 200.656 13.2336L197.619 10.6304C194.406 14.3799 191.98 18.8316 190.323 23.9524L194.129 25.1836ZM200.641 13.2512C203.536 9.95278 207.072 7.38863 211.276 5.55767L209.679 1.89033C204.956 3.94736 200.932 6.85522 197.635 10.6128L200.641 13.2512ZM211.266 5.56229C215.512 3.74255 220.42 2.808 226.03 2.808V-1.192C219.976 -1.192 214.516 -0.182559 209.69 1.88571L211.266 5.56229ZM226.03 2.808C229.668 2.808 233.312 3.28819 236.967 4.25367L237.989 0.38632C234.012 -0.664195 230.024 -1.192 226.03 -1.192V2.808ZM237.01 4.26444C240.77 5.16963 244.35 6.4214 247.752 8.01847L249.452 4.39752C245.798 2.6826 241.962 1.34236 237.946 0.375549L237.01 4.26444ZM246.744 5.46782L241.452 18.7518L245.168 20.2322L250.46 6.94817L246.744 5.46782ZM244.168 17.6854C241.221 16.2854 238.234 15.0685 235.208 14.0353L233.916 17.8207C236.794 18.8035 239.639 19.9626 242.452 21.2986L244.168 17.6854ZM235.223 14.0403C232.149 12.9644 229.082 12.416 226.03 12.416V16.416C228.594 16.416 231.215 16.8756 233.901 17.8157L235.223 14.0403ZM325.252 79V81H327.252V79H325.252ZM308.944 79H306.944V81H308.944V79ZM308.944 45.736H310.944V43.736H308.944V45.736ZM278.38 45.736V43.736H276.38V45.736H278.38ZM278.38 79V81H280.38V79H278.38ZM262.072 79H260.072V81H262.072V79ZM262.072 1.888V-0.112005H260.072V1.888H262.072ZM278.38 1.888H280.38V-0.112005H278.38V1.888ZM278.38 32.128H276.38V34.128H278.38V32.128ZM308.944 32.128V34.128H310.944V32.128H308.944ZM308.944 1.888V-0.112005H306.944V1.888H308.944ZM325.252 1.888H327.252V-0.112005H325.252V1.888ZM325.252 77H308.944V81H325.252V77ZM310.944 79V45.736H306.944V79H310.944ZM308.944 43.736H278.38V47.736H308.944V43.736ZM276.38 45.736V79H280.38V45.736H276.38ZM278.38 77H262.072V81H278.38V77ZM264.072 79V1.888H260.072V79H264.072ZM262.072 3.888H278.38V-0.112005H262.072V3.888ZM276.38 1.888V32.128H280.38V1.888H276.38ZM278.38 34.128H308.944V30.128H278.38V34.128ZM310.944 32.128V1.888H306.944V32.128H310.944ZM308.944 3.888H325.252V-0.112005H308.944V3.888ZM323.252 1.888V79H327.252V1.888H323.252ZM412.37 56.644L410.459 56.0539L410.456 56.0629L410.453 56.0719L412.37 56.644ZM405.674 69.172L404.155 67.8704L404.147 67.8794L404.14 67.8886L405.674 69.172ZM394.226 77.272L393.483 75.415L393.473 75.4191L394.226 77.272ZM361.502 77.272L360.724 79.1147L360.741 79.122L360.759 79.129L361.502 77.272ZM350.054 69.172L348.52 70.4554L348.534 70.4724L348.548 70.489L350.054 69.172ZM343.358 56.536L341.439 57.1003L341.443 57.1133L341.447 57.1261L343.358 56.536ZM345.086 19.384L343.263 18.5614L343.258 18.5707L343.254 18.58L345.086 19.384ZM357.182 5.668L358.211 7.383L358.217 7.379L357.182 5.668ZM398.654 5.668L397.608 7.37287L397.616 7.37797L397.625 7.38298L398.654 5.668ZM410.642 19.492L408.807 20.2878L408.813 20.3012L408.819 20.3146L410.642 19.492ZM366.794 63.232L367.968 61.6128L367.968 61.6128L366.794 63.232ZM389.15 63.232L387.976 61.6128L387.966 61.6199L387.956 61.6271L389.15 63.232ZM395.414 54.268L393.527 53.6042L393.521 53.6198L393.516 53.6355L395.414 54.268ZM392.93 21.22L391.257 22.3173L391.257 22.3173L392.93 21.22ZM366.794 17.44L365.62 15.8208L365.62 15.8208L366.794 17.44ZM360.422 26.404L358.535 25.7402L360.422 26.404ZM412.638 40.336C412.638 46.1444 411.903 51.3777 410.459 56.0539L414.281 57.2341C415.86 52.1183 416.638 46.4796 416.638 40.336H412.638ZM410.453 56.0719C409.086 60.6502 406.982 64.5723 404.155 67.8704L407.192 70.4736C410.413 66.7157 412.773 62.2858 414.286 57.2161L410.453 56.0719ZM404.14 67.8886C401.42 71.1392 397.886 73.6538 393.483 75.415L394.968 79.129C399.925 77.1462 404.023 74.2608 407.207 70.4554L404.14 67.8886ZM393.473 75.4191C389.157 77.1723 383.988 78.08 377.918 78.08V82.08C384.375 82.08 390.078 81.1157 394.978 79.1249L393.473 75.4191ZM377.918 78.08C371.848 78.08 366.638 77.1727 362.244 75.415L360.759 79.129C365.725 81.1153 371.459 82.08 377.918 82.08V78.08ZM362.279 75.4293C357.925 73.5924 354.366 71.0631 351.559 67.855L348.548 70.489C351.789 74.1929 355.862 77.0636 360.724 79.1147L362.279 75.4293ZM351.587 67.8886C348.824 64.5863 346.711 60.6169 345.269 55.9459L341.447 57.1261C343.028 62.2471 345.379 66.7017 348.52 70.4554L351.587 67.8886ZM345.276 55.9717C343.899 51.2871 343.198 46.0447 343.198 40.228H339.198C339.198 46.3633 339.937 51.9929 341.439 57.1003L345.276 55.9717ZM343.198 40.228C343.198 32.4484 344.459 25.7856 346.917 20.188L343.254 18.58C340.528 24.7904 339.198 32.0236 339.198 40.228H343.198ZM346.909 20.2066C349.41 14.6627 353.17 10.4071 358.211 7.38298L356.153 3.95301C350.393 7.40894 346.089 12.2973 343.263 18.5614L346.909 20.2066ZM358.217 7.379C363.293 4.30701 369.854 2.7 378.026 2.7V-1.3C369.349 -1.3 362.015 0.404986 356.146 3.957L358.217 7.379ZM378.026 2.7C386.123 2.7 392.608 4.30612 397.608 7.37287L399.699 3.96312C393.899 0.405878 386.632 -1.3 378.026 -1.3V2.7ZM397.625 7.38298C402.654 10.4005 406.375 14.6808 408.807 20.2878L412.476 18.6962C409.724 12.3512 405.453 7.41554 399.683 3.95301L397.625 7.38298ZM408.819 20.3146C411.342 25.907 412.638 32.563 412.638 40.336H416.638C416.638 32.125 415.269 24.885 412.465 18.6694L408.819 20.3146ZM356.37 40.336C356.37 45.8959 357.073 50.776 358.535 54.9318L362.308 53.6042C361.034 49.984 360.37 45.5761 360.37 40.336H356.37ZM358.535 54.9318C360.016 59.1406 362.361 62.4884 365.62 64.8512L367.968 61.6128C365.467 59.7996 363.563 57.1713 362.308 53.6042L358.535 54.9318ZM365.62 64.8512C368.925 67.2473 373.076 68.364 377.918 68.364V64.364C373.687 64.364 370.423 63.3927 367.968 61.6128L365.62 64.8512ZM377.918 68.364C382.884 68.364 387.09 67.2557 390.343 64.8369L387.956 61.6271C385.593 63.3843 382.311 64.364 377.918 64.364V68.364ZM390.324 64.8512C393.591 62.4819 395.904 59.1224 397.311 54.9005L393.516 53.6355C392.332 57.1896 390.468 59.8061 387.976 61.6128L390.324 64.8512ZM397.3 54.9318C398.762 50.776 399.466 45.8959 399.466 40.336H395.466C395.466 45.5761 394.801 49.984 393.527 53.6042L397.3 54.9318ZM399.466 40.336C399.466 31.9851 397.919 25.1773 394.602 20.1227L391.257 22.3173C393.988 26.4787 395.466 32.4149 395.466 40.336H399.466ZM394.602 20.1227C391.113 14.8061 385.417 12.308 378.026 12.308V16.308C384.458 16.308 388.699 18.4179 391.257 22.3173L394.602 20.1227ZM378.026 12.308C373.12 12.308 368.93 13.4211 365.62 15.8208L367.968 19.0592C370.418 17.2829 373.715 16.308 378.026 16.308V12.308ZM365.62 15.8208C362.361 18.1836 360.016 21.5313 358.535 25.7402L362.308 27.0678C363.563 23.5006 365.467 20.8724 367.968 19.0592L365.62 15.8208ZM358.535 25.7402C357.073 29.896 356.37 34.7761 356.37 40.336H360.37C360.37 35.0959 361.034 30.688 362.308 27.0678L358.535 25.7402ZM430.611 79H428.611V81H430.611V79ZM430.611 1.888V-0.112005H428.611V1.888H430.611ZM446.919 1.888H448.919V-0.112005H446.919V1.888ZM446.919 65.5H444.919V67.5H446.919V65.5ZM478.239 65.5H480.239V63.5H478.239V65.5ZM478.239 79V81H480.239V79H478.239ZM432.611 79V1.888H428.611V79H432.611ZM430.611 3.888H446.919V-0.112005H430.611V3.888ZM444.919 1.888V65.5H448.919V1.888H444.919ZM446.919 67.5H478.239V63.5H446.919V67.5ZM476.239 65.5V79H480.239V65.5H476.239ZM478.239 77H430.611V81H478.239V77ZM557.284 56.644L555.373 56.0539L555.37 56.0629L555.367 56.0719L557.284 56.644ZM550.588 69.172L549.069 67.8704L549.061 67.8794L549.054 67.8886L550.588 69.172ZM539.14 77.272L538.397 75.415L538.387 75.4191L539.14 77.272ZM506.416 77.272L505.638 79.1147L505.655 79.122L505.673 79.129L506.416 77.272ZM494.968 69.172L493.434 70.4554L493.448 70.4724L493.463 70.489L494.968 69.172ZM488.272 56.536L486.353 57.1003L486.357 57.1133L486.361 57.1261L488.272 56.536ZM490 19.384L488.177 18.5614L488.172 18.5707L488.168 18.58L490 19.384ZM502.096 5.668L503.125 7.383L503.131 7.379L502.096 5.668ZM543.568 5.668L542.522 7.37287L542.53 7.37797L542.539 7.38298L543.568 5.668ZM555.556 19.492L553.721 20.2878L553.727 20.3012L553.733 20.3146L555.556 19.492ZM511.708 63.232L512.882 61.6128L512.882 61.6128L511.708 63.232ZM534.064 63.232L532.89 61.6128L532.88 61.6199L532.87 61.6271L534.064 63.232ZM540.328 54.268L538.441 53.6042L538.436 53.6198L538.43 53.6355L540.328 54.268ZM537.844 21.22L536.172 22.3173L536.172 22.3173L537.844 21.22ZM511.708 17.44L510.534 15.8208L510.534 15.8208L511.708 17.44ZM505.336 26.404L503.449 25.7402L505.336 26.404ZM557.552 40.336C557.552 46.1444 556.817 51.3777 555.373 56.0539L559.195 57.2341C560.775 52.1183 561.552 46.4796 561.552 40.336H557.552ZM555.367 56.0719C554.001 60.6502 551.896 64.5723 549.069 67.8704L552.106 70.4736C555.327 66.7157 557.687 62.2858 559.2 57.2161L555.367 56.0719ZM549.054 67.8886C546.334 71.1392 542.8 73.6538 538.397 75.415L539.882 79.129C544.839 77.1462 548.937 74.2608 552.122 70.4554L549.054 67.8886ZM538.387 75.4191C534.071 77.1723 528.902 78.08 522.832 78.08V82.08C529.289 82.08 534.992 81.1157 539.892 79.1249L538.387 75.4191ZM522.832 78.08C516.762 78.08 511.552 77.1727 507.158 75.415L505.673 79.129C510.639 81.1153 516.373 82.08 522.832 82.08V78.08ZM507.193 75.4293C502.839 73.5924 499.28 71.0631 496.473 67.855L493.463 70.489C496.703 74.1929 500.776 77.0636 505.638 79.1147L507.193 75.4293ZM496.502 67.8886C493.738 64.5863 491.625 60.6169 490.183 55.9459L486.361 57.1261C487.942 62.2471 490.293 66.7017 493.434 70.4554L496.502 67.8886ZM490.19 55.9717C488.813 51.2871 488.112 46.0447 488.112 40.228H484.112C484.112 46.3633 484.851 51.9929 486.353 57.1003L490.19 55.9717ZM488.112 40.228C488.112 32.4484 489.373 25.7856 491.831 20.188L488.168 18.58C485.442 24.7904 484.112 32.0236 484.112 40.228H488.112ZM491.823 20.2066C494.324 14.6627 498.085 10.4071 503.125 7.38298L501.067 3.95301C495.307 7.40894 491.003 12.2973 488.177 18.5614L491.823 20.2066ZM503.131 7.379C508.207 4.30701 514.768 2.7 522.94 2.7V-1.3C514.263 -1.3 506.929 0.404986 501.06 3.957L503.131 7.379ZM522.94 2.7C531.037 2.7 537.522 4.30612 542.522 7.37287L544.613 3.96312C538.813 0.405878 531.546 -1.3 522.94 -1.3V2.7ZM542.539 7.38298C547.568 10.4005 551.289 14.6808 553.721 20.2878L557.391 18.6962C554.638 12.3512 550.368 7.41554 544.597 3.95301L542.539 7.38298ZM553.733 20.3146C556.256 25.907 557.552 32.563 557.552 40.336H561.552C561.552 32.125 560.183 24.885 557.379 18.6694L553.733 20.3146ZM501.284 40.336C501.284 45.8959 501.987 50.776 503.449 54.9318L507.222 53.6042C505.949 49.984 505.284 45.5761 505.284 40.336H501.284ZM503.449 54.9318C504.93 59.1406 507.275 62.4884 510.534 64.8512L512.882 61.6128C510.381 59.7996 508.477 57.1713 507.222 53.6042L503.449 54.9318ZM510.534 64.8512C513.839 67.2473 517.991 68.364 522.832 68.364V64.364C518.601 64.364 515.337 63.3927 512.882 61.6128L510.534 64.8512ZM522.832 68.364C527.798 68.364 532.004 67.2557 535.257 64.8369L532.87 61.6271C530.507 63.3843 527.225 64.364 522.832 64.364V68.364ZM535.238 64.8512C538.506 62.4819 540.818 59.1224 542.225 54.9005L538.43 53.6355C537.246 57.1896 535.382 59.8061 532.89 61.6128L535.238 64.8512ZM542.214 54.9318C543.677 50.776 544.38 45.8959 544.38 40.336H540.38C540.38 45.5761 539.715 49.984 538.441 53.6042L542.214 54.9318ZM544.38 40.336C544.38 31.9851 542.833 25.1773 539.516 20.1227L536.172 22.3173C538.902 26.4787 540.38 32.4149 540.38 40.336H544.38ZM539.516 20.1227C536.027 14.8061 530.331 12.308 522.94 12.308V16.308C529.372 16.308 533.613 18.4179 536.172 22.3173L539.516 20.1227ZM522.94 12.308C518.034 12.308 513.844 13.4211 510.534 15.8208L512.882 19.0592C515.332 17.2829 518.629 16.308 522.94 16.308V12.308ZM510.534 15.8208C507.275 18.1836 504.93 21.5313 503.449 25.7402L507.222 27.0678C508.477 23.5006 510.381 20.8724 512.882 19.0592L510.534 15.8208ZM503.449 25.7402C501.987 29.896 501.284 34.7761 501.284 40.336H505.284C505.284 35.0959 505.949 30.688 507.222 27.0678L503.449 25.7402ZM604.793 35.692V33.692H602.793V35.692H604.793ZM635.357 35.692H637.357V33.692H635.357V35.692ZM635.357 75.652L635.999 77.546L637.357 77.0854V75.652H635.357ZM622.721 78.892L622.366 76.9237L622.36 76.9248L622.721 78.892ZM588.377 75.544L587.389 77.2834L587.399 77.289L588.377 75.544ZM576.173 62.152L574.358 62.9929L574.362 63.002L574.367 63.011L576.173 62.152ZM576.713 19.384L574.95 18.4384L574.946 18.4467L574.941 18.4552L576.713 19.384ZM624.449 2.104L624.022 4.05803L624.022 4.05803L624.449 2.104ZM635.249 5.56L637.097 6.3238L637.841 4.52351L636.061 3.73238L635.249 5.56ZM629.849 18.628L628.933 20.4059L630.866 21.4021L631.697 19.3918L629.849 18.628ZM621.749 15.604L621.242 17.5387L621.242 17.5387L621.749 15.604ZM599.825 17.656L598.78 15.9503L598.773 15.9551L598.765 15.96L599.825 17.656ZM591.725 26.836L589.929 25.9547L589.926 25.9615L589.923 25.9684L591.725 26.836ZM590.969 54.052L589.082 54.7158L589.082 54.7158L590.969 54.052ZM597.449 63.232L596.242 64.8273L596.255 64.8368L596.268 64.8461L597.449 63.232ZM613.109 66.364L613.233 68.3601L613.288 68.3567L613.342 68.3503L613.109 66.364ZM616.457 65.932L616.74 67.9119L616.808 67.9021L616.876 67.8876L616.457 65.932ZM619.373 65.392L619.677 67.3687L621.373 67.1078V65.392H619.373ZM619.373 49.3H621.373V47.3H619.373V49.3ZM604.793 49.3H602.793V51.3H604.793V49.3ZM604.793 37.692H635.357V33.692H604.793V37.692ZM633.357 35.692V75.652H637.357V35.692H633.357ZM634.714 73.758C630.78 75.0927 626.665 76.1485 622.366 76.9237L623.076 80.8603C627.561 80.0515 631.869 78.9473 635.999 77.546L634.714 73.758ZM622.36 76.9248C618.185 77.6902 613.378 78.08 607.925 78.08V82.08C613.56 82.08 618.616 81.6778 623.081 80.8592L622.36 76.9248ZM607.925 78.08C600.556 78.08 594.393 76.621 589.354 73.799L587.399 77.289C593.16 80.515 600.029 82.08 607.925 82.08V78.08ZM589.364 73.8046C584.417 70.997 580.623 66.8528 577.979 61.293L574.367 63.011C577.338 69.2592 581.68 74.043 587.389 77.2834L589.364 73.8046ZM577.987 61.3111C575.407 55.7421 574.069 48.7762 574.069 40.336H570.069C570.069 49.1758 571.467 56.7539 574.358 62.9929L577.987 61.3111ZM574.069 40.336C574.069 32.5284 575.567 25.8762 578.484 20.3128L574.941 18.4552C571.667 24.6998 570.069 32.0156 570.069 40.336H574.069ZM578.475 20.3296C581.456 14.7749 585.744 10.483 591.382 7.42621L589.475 3.90978C583.162 7.33299 578.306 12.1851 574.95 18.4384L578.475 20.3296ZM591.382 7.42621C596.996 4.38219 603.957 2.808 612.353 2.808V-1.192C603.468 -1.192 595.813 0.473801 589.475 3.90978L591.382 7.42621ZM612.353 2.808C616.315 2.808 620.204 3.22497 624.022 4.05803L624.875 0.149967C620.773 -0.744975 616.598 -1.192 612.353 -1.192V2.808ZM624.022 4.05803C627.868 4.89712 631.337 6.00991 634.436 7.38762L636.061 3.73238C632.681 2.23008 628.949 1.03887 624.875 0.149967L624.022 4.05803ZM633.4 4.7962L628 17.8642L631.697 19.3918L637.097 6.3238L633.4 4.7962ZM630.765 16.85C628.239 15.5488 625.398 14.4923 622.255 13.6693L621.242 17.5387C624.147 18.2997 626.707 19.2592 628.933 20.4059L630.765 16.85ZM622.255 13.6693C619.056 12.8314 615.718 12.416 612.245 12.416V16.416C615.396 16.416 618.393 16.7926 621.242 17.5387L622.255 13.6693ZM612.245 12.416C607.18 12.416 602.667 13.5706 598.78 15.9503L600.869 19.3617C604.038 17.4214 607.805 16.416 612.245 16.416V12.416ZM598.765 15.96C594.966 18.3339 592.024 21.6885 589.929 25.9547L593.52 27.7173C595.314 24.0635 597.771 21.2981 600.885 19.352L598.765 15.96ZM589.923 25.9684C587.893 30.183 586.917 35.1006 586.917 40.66H590.917C590.917 35.5634 591.812 31.265 593.527 27.7036L589.923 25.9684ZM586.917 40.66C586.917 45.8775 587.624 50.573 589.082 54.7158L592.855 53.3882C591.577 49.755 590.917 45.5225 590.917 40.66H586.917ZM589.082 54.7158C590.565 58.9307 592.942 62.3319 596.242 64.8273L598.655 61.6367C596.051 59.6681 594.108 56.9493 592.855 53.3882L589.082 54.7158ZM596.268 64.8461C599.652 67.3226 603.955 68.472 609.005 68.472V64.472C604.55 64.472 601.149 63.4614 598.63 61.6179L596.268 64.8461ZM609.005 68.472C610.616 68.472 612.028 68.4355 613.233 68.3601L612.984 64.3679C611.885 64.4365 610.561 64.472 609.005 64.472V68.472ZM613.342 68.3503C614.58 68.2048 615.712 68.0587 616.74 67.9119L616.174 63.9521C615.185 64.0933 614.086 64.2352 612.875 64.3777L613.342 68.3503ZM616.876 67.8876C617.849 67.6791 618.783 67.5063 619.677 67.3687L619.069 63.4153C618.091 63.5657 617.08 63.7529 616.038 63.9764L616.876 67.8876ZM621.373 65.392V49.3H617.373V65.392H621.373ZM619.373 47.3H604.793V51.3H619.373V47.3ZM606.793 49.3V35.692H602.793V49.3H606.793ZM677.653 33.64L675.867 34.5393L677.647 38.076L679.437 34.5441L677.653 33.64ZM693.745 1.888V-0.112005H692.516L691.961 0.983872L693.745 1.888ZM711.349 1.888L713.106 2.84316L714.713 -0.112005H711.349V1.888ZM685.753 48.976L683.996 48.0208L683.753 48.4676V48.976H685.753ZM685.753 79V81H687.753V79H685.753ZM669.553 79H667.553V81H669.553V79ZM669.553 49.516H671.553V49.0126L671.315 48.5692L669.553 49.516ZM643.957 1.888V-0.112005H640.612L642.195 2.83476L643.957 1.888ZM661.669 1.888L663.455 0.98871L662.901 -0.112005H661.669V1.888ZM679.437 34.5441L695.529 2.79212L691.961 0.983872L675.869 32.7359L679.437 34.5441ZM693.745 3.888H711.349V-0.112005H693.745V3.888ZM709.592 0.932833L683.996 48.0208L687.51 49.9312L713.106 2.84316L709.592 0.932833ZM683.753 48.976V79H687.753V48.976H683.753ZM685.753 77H669.553V81H685.753V77ZM671.553 79V49.516H667.553V79H671.553ZM671.315 48.5692L645.719 0.941225L642.195 2.83476L667.791 50.4628L671.315 48.5692ZM643.957 3.888H661.669V-0.112005H643.957V3.888ZM659.883 2.78728L675.867 34.5393L679.439 32.7407L663.455 0.98871L659.883 2.78728Z" fill="#2C507A" mask="url(#path-1-outside-1_1_4)"/>
</svg>
