<svg width="747" height="81" viewBox="0 0 747 81" fill="none" xmlns="http://www.w3.org/2000/svg">
<mask id="path-1-outside-1_1_4" maskUnits="userSpaceOnUse" x="-2" y="-2" width="752" height="85" fill="black">
<rect fill="white" x="-2" y="-2" width="752" height="85"/>
<path d="M50.2427 57.616C50.2427 62.152 49.1267 66.112 46.8947 69.496C44.6627 72.88 41.4227 75.508 37.1747 77.38C32.9987 79.18 27.8867 80.08 21.8387 80.08C19.1747 80.08 16.5467 79.9 13.9547 79.54C11.4347 79.18 8.98669 78.676 6.61069 78.028C4.30669 77.308 2.11069 76.444 0.0226879 75.436V60.208C3.69469 61.792 7.47469 63.268 11.3627 64.636C15.3227 65.932 19.2467 66.58 23.1347 66.58C25.7987 66.58 27.9227 66.22 29.5067 65.5C31.1627 64.78 32.3507 63.808 33.0707 62.584C33.8627 61.36 34.2587 59.956 34.2587 58.372C34.2587 56.428 33.5747 54.772 32.2067 53.404C30.9107 52.036 29.1467 50.776 26.9147 49.624C24.6827 48.4 22.1267 47.104 19.2467 45.736C17.4467 44.872 15.5027 43.864 13.4147 42.712C11.3267 41.488 9.31069 40.012 7.36669 38.284C5.49469 36.484 3.94669 34.324 2.72269 31.804C1.49869 29.284 0.886688 26.26 0.886688 22.732C0.886688 18.124 1.93069 14.2 4.01869 10.96C6.17869 7.64799 9.20269 5.12799 13.0907 3.39999C17.0507 1.672 21.6947 0.807996 27.0227 0.807996C31.0547 0.807996 34.8707 1.276 38.4707 2.212C42.1427 3.148 45.9587 4.48 49.9187 6.208L44.6267 18.952C41.0987 17.512 37.9307 16.396 35.1227 15.604C32.3147 14.812 29.4347 14.416 26.4827 14.416C24.4667 14.416 22.7387 14.74 21.2987 15.388C19.8587 16.036 18.7427 16.936 17.9507 18.088C17.2307 19.24 16.8707 20.608 16.8707 22.192C16.8707 23.992 17.4107 25.54 18.4907 26.836C19.5707 28.06 21.1907 29.248 23.3507 30.4C25.5107 31.552 28.2107 32.92 31.4507 34.504C35.4107 36.376 38.7587 38.32 41.4947 40.336C44.3027 42.352 46.4627 44.728 47.9747 47.464C49.4867 50.2 50.2427 53.584 50.2427 57.616ZM111.455 79L105.839 60.64H77.7591L72.1431 79H54.5391L81.7551 1.564H101.735L129.059 79H111.455ZM96.3351 28.996C95.9751 27.772 95.5071 26.224 94.9311 24.352C94.3551 22.48 93.7791 20.572 93.2031 18.628C92.6271 16.684 92.1591 14.992 91.7991 13.552C91.4391 14.992 90.9351 16.792 90.2871 18.952C89.7111 21.04 89.1351 23.056 88.5591 25C88.0551 26.872 87.6591 28.204 87.3711 28.996L81.8631 46.924H101.951L96.3351 28.996ZM138.825 79V1.888H155.133V65.5H186.453V79H138.825ZM244.28 79H199.892V1.888H244.28V15.28H216.2V32.236H242.336V45.628H216.2V65.5H244.28V79ZM305.793 57.616C305.793 62.152 304.677 66.112 302.445 69.496C300.213 72.88 296.973 75.508 292.725 77.38C288.549 79.18 283.437 80.08 277.389 80.08C274.725 80.08 272.097 79.9 269.505 79.54C266.985 79.18 264.537 78.676 262.161 78.028C259.857 77.308 257.661 76.444 255.573 75.436V60.208C259.245 61.792 263.025 63.268 266.913 64.636C270.873 65.932 274.797 66.58 278.685 66.58C281.349 66.58 283.473 66.22 285.057 65.5C286.713 64.78 287.901 63.808 288.621 62.584C289.413 61.36 289.809 59.956 289.809 58.372C289.809 56.428 289.125 54.772 287.757 53.404C286.461 52.036 284.697 50.776 282.465 49.624C280.233 48.4 277.677 47.104 274.797 45.736C272.997 44.872 271.053 43.864 268.965 42.712C266.877 41.488 264.861 40.012 262.917 38.284C261.045 36.484 259.497 34.324 258.273 31.804C257.049 29.284 256.437 26.26 256.437 22.732C256.437 18.124 257.481 14.2 259.569 10.96C261.729 7.64799 264.753 5.12799 268.641 3.39999C272.601 1.672 277.245 0.807996 282.573 0.807996C286.605 0.807996 290.421 1.276 294.021 2.212C297.693 3.148 301.509 4.48 305.469 6.208L300.177 18.952C296.649 17.512 293.481 16.396 290.673 15.604C287.865 14.812 284.985 14.416 282.033 14.416C280.017 14.416 278.289 14.74 276.849 15.388C275.409 16.036 274.293 16.936 273.501 18.088C272.781 19.24 272.421 20.608 272.421 22.192C272.421 23.992 272.961 25.54 274.041 26.836C275.121 28.06 276.741 29.248 278.901 30.4C281.061 31.552 283.761 32.92 287.001 34.504C290.961 36.376 294.309 38.32 297.045 40.336C299.853 42.352 302.013 44.728 303.525 47.464C305.037 50.2 305.793 53.584 305.793 57.616ZM382.209 1.888L353.481 79H338.901L367.629 1.888H382.209ZM466.001 57.616C466.001 62.152 464.885 66.112 462.653 69.496C460.421 72.88 457.181 75.508 452.933 77.38C448.757 79.18 443.645 80.08 437.597 80.08C434.933 80.08 432.305 79.9 429.713 79.54C427.193 79.18 424.745 78.676 422.369 78.028C420.065 77.308 417.869 76.444 415.781 75.436V60.208C419.453 61.792 423.233 63.268 427.121 64.636C431.081 65.932 435.005 66.58 438.893 66.58C441.557 66.58 443.681 66.22 445.265 65.5C446.921 64.78 448.109 63.808 448.829 62.584C449.621 61.36 450.017 59.956 450.017 58.372C450.017 56.428 449.333 54.772 447.965 53.404C446.669 52.036 444.905 50.776 442.673 49.624C440.441 48.4 437.885 47.104 435.005 45.736C433.205 44.872 431.261 43.864 429.173 42.712C427.085 41.488 425.069 40.012 423.125 38.284C421.253 36.484 419.705 34.324 418.481 31.804C417.257 29.284 416.645 26.26 416.645 22.732C416.645 18.124 417.689 14.2 419.777 10.96C421.937 7.64799 424.961 5.12799 428.849 3.39999C432.809 1.672 437.453 0.807996 442.781 0.807996C446.813 0.807996 450.629 1.276 454.229 2.212C457.901 3.148 461.717 4.48 465.677 6.208L460.385 18.952C456.857 17.512 453.689 16.396 450.881 15.604C448.073 14.812 445.193 14.416 442.241 14.416C440.225 14.416 438.497 14.74 437.057 15.388C435.617 16.036 434.501 16.936 433.709 18.088C432.989 19.24 432.629 20.608 432.629 22.192C432.629 23.992 433.169 25.54 434.249 26.836C435.329 28.06 436.949 29.248 439.109 30.4C441.269 31.552 443.969 32.92 447.209 34.504C451.169 36.376 454.517 38.32 457.253 40.336C460.061 42.352 462.221 44.728 463.733 47.464C465.245 50.2 466.001 53.584 466.001 57.616ZM512.633 79L494.057 18.52H493.625C493.697 19.96 493.805 22.12 493.949 25C494.093 27.88 494.237 30.976 494.381 34.288C494.525 37.528 494.597 40.48 494.597 43.144V79H480.017V1.888H502.265L520.517 60.856H520.841L540.173 1.888H562.421V79H547.193V42.496C547.193 40.048 547.229 37.24 547.301 34.072C547.445 30.904 547.553 27.916 547.625 25.108C547.769 22.228 547.877 20.068 547.949 18.628H547.517L527.645 79H512.633ZM614.516 79L595.94 18.52H595.508C595.58 19.96 595.688 22.12 595.832 25C595.976 27.88 596.12 30.976 596.264 34.288C596.408 37.528 596.48 40.48 596.48 43.144V79H581.9V1.888H604.148L622.4 60.856H622.724L642.056 1.888H664.304V79H649.076V42.496C649.076 40.048 649.112 37.24 649.184 34.072C649.328 30.904 649.436 27.916 649.508 25.108C649.652 22.228 649.76 20.068 649.832 18.628H649.4L629.528 79H614.516ZM746.181 1.888L717.453 79H702.873L731.601 1.888H746.181Z"/>
</mask>
<path d="M46.8947 69.496L45.2251 68.3948L45.2251 68.3948L46.8947 69.496ZM37.1747 77.38L37.9663 79.2166L37.9738 79.2134L37.9812 79.2102L37.1747 77.38ZM13.9547 79.54L13.6718 81.5199L13.6796 81.521L13.9547 79.54ZM6.61069 78.028L6.01414 79.937L6.04911 79.9479L6.08445 79.9575L6.61069 78.028ZM0.0226879 75.436H-1.97731V76.6913L-0.84681 77.2371L0.0226879 75.436ZM0.0226879 60.208L0.81487 58.3716L-1.97731 57.1671V60.208H0.0226879ZM11.3627 64.636L10.6989 66.5226L10.7197 66.5299L10.7406 66.5368L11.3627 64.636ZM29.5067 65.5L28.7092 63.6659L28.6941 63.6724L28.6791 63.6793L29.5067 65.5ZM33.0707 62.584L31.3915 61.4975L31.3684 61.5333L31.3468 61.57L33.0707 62.584ZM32.2067 53.404L30.7548 54.7795L30.7734 54.7991L30.7925 54.8182L32.2067 53.404ZM26.9147 49.624L25.953 51.3776L25.9751 51.3897L25.9974 51.4012L26.9147 49.624ZM19.2467 45.736L18.3812 47.5391L18.3886 47.5426L19.2467 45.736ZM13.4147 42.712L12.4032 44.4374L12.4257 44.4506L12.4485 44.4632L13.4147 42.712ZM7.36669 38.284L5.98047 39.7257L6.0087 39.7528L6.03796 39.7788L7.36669 38.284ZM2.72269 31.804L0.923671 32.6778L0.923672 32.6778L2.72269 31.804ZM4.01869 10.96L2.34344 9.86744L2.33755 9.87659L4.01869 10.96ZM13.0907 3.39999L12.2908 1.56687L12.2784 1.57237L13.0907 3.39999ZM38.4707 2.212L37.9674 4.14766L37.9767 4.15003L38.4707 2.212ZM49.9187 6.208L51.7658 6.975L52.5192 5.16064L50.7186 4.37492L49.9187 6.208ZM44.6267 18.952L43.8709 20.8037L45.7114 21.5549L46.4738 19.719L44.6267 18.952ZM35.1227 15.604L34.5798 17.5289L34.5798 17.5289L35.1227 15.604ZM21.2987 15.388L22.1194 17.2118L22.1194 17.2118L21.2987 15.388ZM17.9507 18.088L16.3026 16.9549L16.2779 16.9909L16.2547 17.028L17.9507 18.088ZM18.4907 26.836L16.9542 28.1164L16.9723 28.1381L16.991 28.1592L18.4907 26.836ZM23.3507 30.4L24.2919 28.6353L24.2919 28.6353L23.3507 30.4ZM31.4507 34.504L30.5723 36.3008L30.5841 36.3065L30.5959 36.3121L31.4507 34.504ZM41.4947 40.336L40.3083 41.9461L40.3182 41.9534L40.3283 41.9606L41.4947 40.336ZM47.9747 47.464L46.2242 48.4314L46.2242 48.4314L47.9747 47.464ZM48.2427 57.616C48.2427 61.8087 47.2165 65.3757 45.2251 68.3948L48.5642 70.5972C51.0369 66.8483 52.2427 62.4953 52.2427 57.616H48.2427ZM45.2251 68.3948C43.2342 71.4133 40.3168 73.8098 36.3682 75.5498L37.9812 79.2102C42.5286 77.2062 46.0911 74.3467 48.5642 70.5972L45.2251 68.3948ZM36.383 75.5434C32.5249 77.2063 27.6996 78.08 21.8387 78.08V82.08C28.0738 82.08 33.4725 81.1537 37.9663 79.2166L36.383 75.5434ZM21.8387 78.08C19.2651 78.08 16.729 77.9061 14.2298 77.559L13.6796 81.521C16.3643 81.8939 19.0843 82.08 21.8387 82.08V78.08ZM14.2375 77.5601C11.7969 77.2114 9.43028 76.7239 7.13692 76.0985L6.08445 79.9575C8.54309 80.6281 11.0725 81.1486 13.6718 81.5199L14.2375 77.5601ZM7.20724 76.119C4.99292 75.4271 2.88844 74.5986 0.892186 73.6349L-0.84681 77.2371C1.33294 78.2894 3.62046 79.1889 6.01414 79.937L7.20724 76.119ZM2.02269 75.436V60.208H-1.97731V75.436H2.02269ZM-0.769494 62.0444C2.94597 63.6472 6.76884 65.1398 10.6989 66.5226L12.0265 62.7494C8.18053 61.3962 4.4434 59.9368 0.81487 58.3716L-0.769494 62.0444ZM10.7406 66.5368C14.887 67.8938 19.0207 68.58 23.1347 68.58V64.58C19.4726 64.58 15.7584 63.9702 11.9848 62.7352L10.7406 66.5368ZM23.1347 68.58C25.9473 68.58 28.3894 68.2048 30.3343 67.3207L28.6791 63.6793C27.4559 64.2352 25.6501 64.58 23.1347 64.58V68.58ZM30.3041 67.3341C32.242 66.4916 33.8082 65.2748 34.7946 63.598L31.3468 61.57C30.8931 62.3412 30.0834 63.0684 28.7092 63.6659L30.3041 67.3341ZM34.7498 63.6705C35.7694 62.0948 36.2587 60.3068 36.2587 58.372H32.2587C32.2587 59.6052 31.956 60.6252 31.3915 61.4975L34.7498 63.6705ZM36.2587 58.372C36.2587 55.9005 35.366 53.7349 33.6209 51.9898L30.7925 54.8182C31.7834 55.8091 32.2587 56.9555 32.2587 58.372H36.2587ZM33.6586 52.0285C32.1664 50.4534 30.2012 49.0696 27.832 47.8468L25.9974 51.4012C28.0922 52.4824 29.655 53.6186 30.7548 54.7795L33.6586 52.0285ZM27.8764 47.8704C25.6032 46.6238 23.0115 45.3101 20.1048 43.9294L18.3886 47.5426C21.2418 48.8979 23.7622 50.1762 25.953 51.3776L27.8764 47.8704ZM20.1122 43.933C18.352 43.0881 16.4419 42.098 14.3808 40.9608L12.4485 44.4632C14.5635 45.63 16.5414 46.6559 18.3812 47.539L20.1122 43.933ZM14.4261 40.9866C12.4592 39.8336 10.5487 38.4365 8.69542 36.7892L6.03796 39.7788C8.07269 41.5875 10.1941 43.1424 12.4032 44.4374L14.4261 40.9866ZM8.75291 36.8423C7.06385 35.2182 5.65081 33.2548 4.5217 30.9302L0.923672 32.6778C2.24257 35.3932 3.92553 37.7498 5.98047 39.7257L8.75291 36.8423ZM4.5217 30.9302C3.45971 28.7437 2.88669 26.0336 2.88669 22.732H-1.11331C-1.11331 26.4864 -0.46233 29.8243 0.923671 32.6778L4.5217 30.9302ZM2.88669 22.732C2.88669 18.4322 3.85768 14.9019 5.69983 12.0434L2.33755 9.87659C0.00369813 13.4981 -1.11331 17.8158 -1.11331 22.732H2.88669ZM5.69391 12.0525C7.62704 9.0884 10.3395 6.81138 13.903 5.22762L12.2784 1.57237C8.06589 3.4446 4.73034 6.20759 2.34347 9.86746L5.69391 12.0525ZM13.8906 5.23307C17.5467 3.63766 21.9075 2.808 27.0227 2.808V-1.192C21.4818 -1.192 16.5546 -0.293672 12.2908 1.56692L13.8906 5.23307ZM27.0227 2.808C30.899 2.808 34.5449 3.25779 37.9674 4.14764L38.974 0.276352C35.1965 -0.705793 31.2104 -1.192 27.0227 -1.192V2.808ZM37.9767 4.15003C41.5307 5.05596 45.2443 6.35039 49.1188 8.04108L50.7186 4.37492C46.6731 2.60961 42.7546 1.24003 38.9647 0.273968L37.9767 4.15003ZM48.0716 5.44099L42.7796 18.185L46.4738 19.719L51.7658 6.975L48.0716 5.44099ZM45.3825 17.1003C41.8047 15.64 38.5638 14.4965 35.6656 13.6791L34.5798 17.5289C37.2975 18.2954 40.3927 19.384 43.8709 20.8037L45.3825 17.1003ZM35.6656 13.6791C32.6788 12.8367 29.6161 12.416 26.4827 12.416V16.416C29.2533 16.416 31.9505 16.7873 34.5798 17.5289L35.6656 13.6791ZM26.4827 12.416C24.2592 12.416 22.2369 12.7726 20.478 13.5642L22.1194 17.2118C23.2405 16.7074 24.6742 16.416 26.4827 16.416V12.416ZM20.478 13.5642C18.7484 14.3424 17.3279 15.4637 16.3026 16.9549L19.5988 19.2211C20.1575 18.4083 20.9689 17.7296 22.1194 17.2118L20.478 13.5642ZM16.2547 17.028C15.305 18.5476 14.8707 20.2965 14.8707 22.192H18.8707C18.8707 20.9195 19.1564 19.9324 19.6467 19.148L16.2547 17.028ZM14.8707 22.192C14.8707 24.4261 15.5538 26.4358 16.9542 28.1164L20.0271 25.5556C19.2676 24.6442 18.8707 23.5579 18.8707 22.192H14.8707ZM16.991 28.1592C18.2876 29.6287 20.1335 30.9508 22.4095 32.1647L24.2919 28.6353C22.2479 27.5452 20.8538 26.4913 19.9904 25.5128L16.991 28.1592ZM22.4095 32.1647C24.5974 33.3316 27.32 34.7108 30.5723 36.3008L32.3291 32.7072C29.1014 31.1292 26.424 29.7724 24.2919 28.6353L22.4095 32.1647ZM30.5959 36.3121C34.4708 38.1439 37.7009 40.0249 40.3083 41.9461L42.6811 38.7259C39.8164 36.6151 36.3506 34.6081 32.3054 32.6959L30.5959 36.3121ZM40.3283 41.9606C42.921 43.8221 44.8703 45.9815 46.2242 48.4314L49.7252 46.4966C48.0551 43.4745 45.6844 40.8819 42.6611 38.7114L40.3283 41.9606ZM46.2242 48.4314C47.5318 50.7975 48.2427 53.8268 48.2427 57.616H52.2427C52.2427 53.3412 51.4416 49.6025 49.7252 46.4966L46.2242 48.4314ZM111.455 79L109.543 79.585L109.975 81H111.455V79ZM105.839 60.64L107.752 60.055L107.319 58.64H105.839V60.64ZM77.7591 60.64V58.64H76.2794L75.8465 60.055L77.7591 60.64ZM72.1431 79V81H73.6228L74.0556 79.585L72.1431 79ZM54.5391 79L52.6522 78.3368L51.7162 81H54.5391V79ZM81.7551 1.564V-0.436001H80.3381L79.8682 0.900837L81.7551 1.564ZM101.735 1.564L103.621 0.898496L103.15 -0.436001H101.735V1.564ZM129.059 79V81H131.886L130.945 78.3345L129.059 79ZM96.3351 28.996L94.4163 29.5603L94.4213 29.5771L94.4265 29.5939L96.3351 28.996ZM94.9311 24.352L93.0195 24.9402L93.0195 24.9402L94.9311 24.352ZM93.2031 18.628L91.2855 19.1962L91.2855 19.1962L93.2031 18.628ZM91.7991 13.552L93.7394 13.0669L89.8588 13.0669L91.7991 13.552ZM90.2871 18.952L88.3714 18.3773L88.365 18.3986L88.3591 18.4201L90.2871 18.952ZM88.5591 25L86.6415 24.4318L86.6343 24.4559L86.6278 24.4801L88.5591 25ZM87.3711 28.996L85.4915 28.3125L85.4741 28.3602L85.4593 28.4086L87.3711 28.996ZM81.8631 46.924L79.9513 46.3366L79.1563 48.924H81.8631V46.924ZM101.951 46.924V48.924H104.673L103.86 46.3261L101.951 46.924ZM113.368 78.415L107.752 60.055L103.927 61.225L109.543 79.585L113.368 78.415ZM105.839 58.64H77.7591V62.64H105.839V58.64ZM75.8465 60.055L70.2305 78.415L74.0556 79.585L79.6716 61.225L75.8465 60.055ZM72.1431 77H54.5391V81H72.1431V77ZM56.4259 79.6632L83.6419 2.22716L79.8682 0.900837L52.6522 78.3368L56.4259 79.6632ZM81.7551 3.564H101.735V-0.436001H81.7551V3.564ZM99.849 2.2295L127.173 79.6655L130.945 78.3345L103.621 0.898496L99.849 2.2295ZM129.059 77H111.455V81H129.059V77ZM98.2538 28.4317C97.8906 27.1967 97.4199 25.6401 96.8426 23.7638L93.0195 24.9402C93.5942 26.8079 94.0596 28.3473 94.4163 29.5603L98.2538 28.4317ZM96.8426 23.7638C96.2687 21.8987 95.6948 19.9974 95.1207 18.0598L91.2855 19.1962C91.8634 21.1466 92.4414 23.0613 93.0195 24.9402L96.8426 23.7638ZM95.1207 18.0598C94.5501 16.1342 94.0904 14.4711 93.7394 13.0669L89.8588 14.0371C90.2277 15.5129 90.704 17.2338 91.2855 19.1962L95.1207 18.0598ZM89.8588 13.0669C89.5091 14.4657 89.0146 16.2335 88.3714 18.3773L92.2027 19.5267C92.8556 17.3505 93.3691 15.5183 93.7393 14.0371L89.8588 13.0669ZM88.3591 18.4201C87.7862 20.4968 87.2137 22.5007 86.6415 24.4318L90.4767 25.5682C91.0565 23.6113 91.6359 21.5832 92.2151 19.4839L88.3591 18.4201ZM86.6278 24.4801C86.1247 26.349 85.7475 27.6083 85.4915 28.3125L89.2507 29.6795C89.5706 28.7997 89.9855 27.395 90.4903 25.5199L86.6278 24.4801ZM85.4593 28.4086L79.9513 46.3366L83.7749 47.5114L89.2829 29.5834L85.4593 28.4086ZM81.8631 48.924H101.951V44.924H81.8631V48.924ZM103.86 46.3261L98.2436 28.3981L94.4265 29.5939L100.043 47.5219L103.86 46.3261ZM138.825 79H136.825V81H138.825V79ZM138.825 1.888V-0.112005H136.825V1.888H138.825ZM155.133 1.888H157.133V-0.112005H155.133V1.888ZM155.133 65.5H153.133V67.5H155.133V65.5ZM186.453 65.5H188.453V63.5H186.453V65.5ZM186.453 79V81H188.453V79H186.453ZM140.825 79V1.888H136.825V79H140.825ZM138.825 3.888H155.133V-0.112005H138.825V3.888ZM153.133 1.888V65.5H157.133V1.888H153.133ZM155.133 67.5H186.453V63.5H155.133V67.5ZM184.453 65.5V79H188.453V65.5H184.453ZM186.453 77H138.825V81H186.453V77ZM244.28 79V81H246.28V79H244.28ZM199.892 79H197.892V81H199.892V79ZM199.892 1.888V-0.112005H197.892V1.888H199.892ZM244.28 1.888H246.28V-0.112005H244.28V1.888ZM244.28 15.28V17.28H246.28V15.28H244.28ZM216.2 15.28V13.28H214.2V15.28H216.2ZM216.2 32.236H214.2V34.236H216.2V32.236ZM242.336 32.236H244.336V30.236H242.336V32.236ZM242.336 45.628V47.628H244.336V45.628H242.336ZM216.2 45.628V43.628H214.2V45.628H216.2ZM216.2 65.5H214.2V67.5H216.2V65.5ZM244.28 65.5H246.28V63.5H244.28V65.5ZM244.28 77H199.892V81H244.28V77ZM201.892 79V1.888H197.892V79H201.892ZM199.892 3.888H244.28V-0.112005H199.892V3.888ZM242.28 1.888V15.28H246.28V1.888H242.28ZM244.28 13.28H216.2V17.28H244.28V13.28ZM214.2 15.28V32.236H218.2V15.28H214.2ZM216.2 34.236H242.336V30.236H216.2V34.236ZM240.336 32.236V45.628H244.336V32.236H240.336ZM242.336 43.628H216.2V47.628H242.336V43.628ZM214.2 45.628V65.5H218.2V45.628H214.2ZM216.2 67.5H244.28V63.5H216.2V67.5ZM242.28 65.5V79H246.28V65.5H242.28ZM302.445 69.496L300.776 68.3948L300.776 68.3948L302.445 69.496ZM292.725 77.38L293.517 79.2166L293.525 79.2134L293.532 79.2102L292.725 77.38ZM269.505 79.54L269.223 81.5199L269.23 81.521L269.505 79.54ZM262.161 78.028L261.565 79.937L261.6 79.9479L261.635 79.9575L262.161 78.028ZM255.573 75.436H253.573V76.6913L254.704 77.2371L255.573 75.436ZM255.573 60.208L256.366 58.3716L253.573 57.1671V60.208H255.573ZM266.913 64.636L266.25 66.5226L266.27 66.5299L266.291 66.5368L266.913 64.636ZM285.057 65.5L284.26 63.6659L284.245 63.6724L284.23 63.6793L285.057 65.5ZM288.621 62.584L286.942 61.4975L286.919 61.5333L286.898 61.57L288.621 62.584ZM287.757 53.404L286.306 54.7795L286.324 54.7991L286.343 54.8182L287.757 53.404ZM282.465 49.624L281.504 51.3776L281.526 51.3897L281.548 51.4012L282.465 49.624ZM274.797 45.736L273.932 47.5391L273.939 47.5426L274.797 45.736ZM268.965 42.712L267.954 44.4374L267.977 44.4506L267.999 44.4632L268.965 42.712ZM262.917 38.284L261.531 39.7257L261.559 39.7528L261.589 39.7788L262.917 38.284ZM258.273 31.804L256.474 32.6778L256.474 32.6778L258.273 31.804ZM259.569 10.96L257.894 9.86744L257.888 9.87659L259.569 10.96ZM268.641 3.39999L267.842 1.56687L267.829 1.57237L268.641 3.39999ZM294.021 2.212L293.518 4.14766L293.527 4.15003L294.021 2.212ZM305.469 6.208L307.317 6.975L308.07 5.16064L306.269 4.37492L305.469 6.208ZM300.177 18.952L299.422 20.8037L301.262 21.5549L302.025 19.719L300.177 18.952ZM290.673 15.604L290.131 17.5289L290.131 17.5289L290.673 15.604ZM276.849 15.388L277.67 17.2118L277.67 17.2118L276.849 15.388ZM273.501 18.088L271.853 16.9549L271.829 16.9909L271.805 17.028L273.501 18.088ZM274.041 26.836L272.505 28.1164L272.523 28.1381L272.542 28.1592L274.041 26.836ZM278.901 30.4L279.843 28.6353L279.843 28.6353L278.901 30.4ZM287.001 34.504L286.123 36.3008L286.135 36.3065L286.147 36.3121L287.001 34.504ZM297.045 40.336L295.859 41.9461L295.869 41.9534L295.879 41.9606L297.045 40.336ZM303.525 47.464L301.775 48.4314L301.775 48.4314L303.525 47.464ZM303.793 57.616C303.793 61.8087 302.767 65.3757 300.776 68.3948L304.115 70.5972C306.588 66.8483 307.793 62.4953 307.793 57.616H303.793ZM300.776 68.3948C298.785 71.4133 295.868 73.8098 291.919 75.5498L293.532 79.2102C298.079 77.2062 301.642 74.3467 304.115 70.5972L300.776 68.3948ZM291.934 75.5434C288.076 77.2063 283.25 78.08 277.389 78.08V82.08C283.625 82.08 289.023 81.1537 293.517 79.2166L291.934 75.5434ZM277.389 78.08C274.816 78.08 272.28 77.9061 269.781 77.559L269.23 81.521C271.915 81.8939 274.635 82.08 277.389 82.08V78.08ZM269.788 77.5601C267.348 77.2114 264.981 76.7239 262.688 76.0985L261.635 79.9575C264.094 80.6281 266.623 81.1486 269.223 81.5199L269.788 77.5601ZM262.758 76.119C260.544 75.4271 258.439 74.5986 256.443 73.6349L254.704 77.2371C256.884 78.2894 259.171 79.1889 261.565 79.937L262.758 76.119ZM257.573 75.436V60.208H253.573V75.436H257.573ZM254.781 62.0444C258.497 63.6472 262.32 65.1398 266.25 66.5226L267.577 62.7494C263.731 61.3962 259.994 59.9368 256.366 58.3716L254.781 62.0444ZM266.291 66.5368C270.438 67.8938 274.572 68.58 278.685 68.58V64.58C275.023 64.58 271.309 63.9702 267.536 62.7352L266.291 66.5368ZM278.685 68.58C281.498 68.58 283.94 68.2048 285.885 67.3207L284.23 63.6793C283.007 64.2352 281.201 64.58 278.685 64.58V68.58ZM285.855 67.3341C287.793 66.4916 289.359 65.2748 290.345 63.598L286.898 61.57C286.444 62.3412 285.634 63.0684 284.26 63.6659L285.855 67.3341ZM290.301 63.6705C291.32 62.0948 291.809 60.3068 291.809 58.372H287.809C287.809 59.6052 287.507 60.6252 286.942 61.4975L290.301 63.6705ZM291.809 58.372C291.809 55.9005 290.917 53.7349 289.172 51.9898L286.343 54.8182C287.334 55.8091 287.809 56.9555 287.809 58.372H291.809ZM289.209 52.0285C287.717 50.4534 285.752 49.0696 283.383 47.8468L281.548 51.4012C283.643 52.4824 285.206 53.6186 286.306 54.7795L289.209 52.0285ZM283.427 47.8704C281.154 46.6238 278.562 45.3101 275.656 43.9294L273.939 47.5426C276.793 48.8979 279.313 50.1762 281.504 51.3776L283.427 47.8704ZM275.663 43.933C273.903 43.0881 271.993 42.098 269.932 40.9608L267.999 44.4632C270.114 45.63 272.092 46.6559 273.932 47.539L275.663 43.933ZM269.977 40.9866C268.01 39.8336 266.099 38.4365 264.246 36.7892L261.589 39.7788C263.623 41.5875 265.745 43.1424 267.954 44.4374L269.977 40.9866ZM264.304 36.8423C262.615 35.2182 261.202 33.2548 260.072 30.9302L256.474 32.6778C257.793 35.3932 259.476 37.7498 261.531 39.7257L264.304 36.8423ZM260.072 30.9302C259.01 28.7437 258.437 26.0336 258.437 22.732H254.437C254.437 26.4864 255.088 29.8243 256.474 32.6778L260.072 30.9302ZM258.437 22.732C258.437 18.4322 259.408 14.9019 261.251 12.0434L257.888 9.87659C255.554 13.4981 254.437 17.8158 254.437 22.732H258.437ZM261.245 12.0525C263.178 9.0884 265.89 6.81138 269.454 5.22762L267.829 1.57237C263.617 3.4446 260.281 6.20759 257.894 9.86746L261.245 12.0525ZM269.441 5.23307C273.098 3.63766 277.458 2.808 282.573 2.808V-1.192C277.033 -1.192 272.105 -0.293672 267.842 1.56692L269.441 5.23307ZM282.573 2.808C286.45 2.808 290.096 3.25779 293.518 4.14764L294.525 0.276352C290.747 -0.705793 286.761 -1.192 282.573 -1.192V2.808ZM293.527 4.15003C297.082 5.05596 300.795 6.35039 304.67 8.04108L306.269 4.37492C302.224 2.60961 298.305 1.24003 294.515 0.273968L293.527 4.15003ZM303.622 5.44099L298.33 18.185L302.025 19.719L307.317 6.975L303.622 5.44099ZM300.933 17.1003C297.355 15.64 294.115 14.4965 291.216 13.6791L290.131 17.5289C292.848 18.2954 295.943 19.384 299.422 20.8037L300.933 17.1003ZM291.216 13.6791C288.23 12.8367 285.167 12.416 282.033 12.416V16.416C284.804 16.416 287.501 16.7873 290.131 17.5289L291.216 13.6791ZM282.033 12.416C279.81 12.416 277.788 12.7726 276.029 13.5642L277.67 17.2118C278.791 16.7074 280.225 16.416 282.033 16.416V12.416ZM276.029 13.5642C274.299 14.3424 272.879 15.4637 271.853 16.9549L275.15 19.2211C275.708 18.4083 276.52 17.7296 277.67 17.2118L276.029 13.5642ZM271.805 17.028C270.856 18.5476 270.421 20.2965 270.421 22.192H274.421C274.421 20.9195 274.707 19.9324 275.197 19.148L271.805 17.028ZM270.421 22.192C270.421 24.4261 271.105 26.4358 272.505 28.1164L275.578 25.5556C274.818 24.6442 274.421 23.5579 274.421 22.192H270.421ZM272.542 28.1592C273.838 29.6287 275.684 30.9508 277.96 32.1647L279.843 28.6353C277.799 27.5452 276.405 26.4913 275.541 25.5128L272.542 28.1592ZM277.96 32.1647C280.148 33.3316 282.871 34.7108 286.123 36.3008L287.88 32.7072C284.652 31.1292 281.975 29.7724 279.843 28.6353L277.96 32.1647ZM286.147 36.3121C290.022 38.1439 293.252 40.0249 295.859 41.9461L298.232 38.7259C295.367 36.6151 291.901 34.6081 287.856 32.6959L286.147 36.3121ZM295.879 41.9606C298.472 43.8221 300.421 45.9815 301.775 48.4314L305.276 46.4966C303.606 43.4745 301.235 40.8819 298.212 38.7114L295.879 41.9606ZM301.775 48.4314C303.083 50.7975 303.793 53.8268 303.793 57.616H307.793C307.793 53.3412 306.992 49.6025 305.276 46.4966L301.775 48.4314ZM382.209 1.888L384.083 2.58621L385.088 -0.112005H382.209V1.888ZM353.481 79V81H354.87L355.355 79.6982L353.481 79ZM338.901 79L337.026 78.3018L336.021 81H338.901V79ZM367.629 1.888V-0.112005H366.239L365.754 1.18978L367.629 1.888ZM380.334 1.18978L351.606 78.3018L355.355 79.6982L384.083 2.58621L380.334 1.18978ZM353.481 77H338.901V81H353.481V77ZM340.775 79.6982L369.503 2.58621L365.754 1.18978L337.026 78.3018L340.775 79.6982ZM367.629 3.888H382.209V-0.112005H367.629V3.888ZM462.653 69.496L460.983 68.3948L460.983 68.3948L462.653 69.496ZM452.933 77.38L453.724 79.2166L453.732 79.2134L453.739 79.2102L452.933 77.38ZM429.713 79.54L429.43 81.5199L429.437 81.521L429.713 79.54ZM422.369 78.028L421.772 79.937L421.807 79.9479L421.842 79.9575L422.369 78.028ZM415.781 75.436H413.781V76.6913L414.911 77.2371L415.781 75.436ZM415.781 60.208L416.573 58.3716L413.781 57.1671V60.208H415.781ZM427.121 64.636L426.457 66.5226L426.477 66.5299L426.498 66.5368L427.121 64.636ZM445.265 65.5L444.467 63.6659L444.452 63.6724L444.437 63.6793L445.265 65.5ZM448.829 62.584L447.149 61.4975L447.126 61.5333L447.105 61.57L448.829 62.584ZM447.965 53.404L446.513 54.7795L446.531 54.7991L446.55 54.8182L447.965 53.404ZM442.673 49.624L441.711 51.3776L441.733 51.3897L441.755 51.4012L442.673 49.624ZM435.005 45.736L434.139 47.5391L434.146 47.5426L435.005 45.736ZM429.173 42.712L428.161 44.4374L428.184 44.4506L428.206 44.4632L429.173 42.712ZM423.125 38.284L421.738 39.7257L421.767 39.7528L421.796 39.7788L423.125 38.284ZM418.481 31.804L416.681 32.6778L416.681 32.6778L418.481 31.804ZM419.777 10.96L418.101 9.86744L418.095 9.87659L419.777 10.96ZM428.849 3.39999L428.049 1.56687L428.036 1.57237L428.849 3.39999ZM454.229 2.212L453.725 4.14766L453.734 4.15003L454.229 2.212ZM465.677 6.208L467.524 6.975L468.277 5.16064L466.476 4.37492L465.677 6.208ZM460.385 18.952L459.629 20.8037L461.469 21.5549L462.232 19.719L460.385 18.952ZM450.881 15.604L450.338 17.5289L450.338 17.5289L450.881 15.604ZM437.057 15.388L437.877 17.2118L437.877 17.2118L437.057 15.388ZM433.709 18.088L432.06 16.9549L432.036 16.9909L432.013 17.028L433.709 18.088ZM434.249 26.836L432.712 28.1164L432.73 28.1381L432.749 28.1592L434.249 26.836ZM439.109 30.4L440.05 28.6353L440.05 28.6353L439.109 30.4ZM447.209 34.504L446.33 36.3008L446.342 36.3065L446.354 36.3121L447.209 34.504ZM457.253 40.336L456.066 41.9461L456.076 41.9534L456.086 41.9606L457.253 40.336ZM463.733 47.464L461.982 48.4314L461.982 48.4314L463.733 47.464ZM464.001 57.616C464.001 61.8087 462.974 65.3757 460.983 68.3948L464.322 70.5972C466.795 66.8483 468.001 62.4953 468.001 57.616H464.001ZM460.983 68.3948C458.992 71.4133 456.075 73.8098 452.126 75.5498L453.739 79.2102C458.286 77.2062 461.849 74.3467 464.322 70.5972L460.983 68.3948ZM452.141 75.5434C448.283 77.2063 443.457 78.08 437.597 78.08V82.08C443.832 82.08 449.23 81.1537 453.724 79.2166L452.141 75.5434ZM437.597 78.08C435.023 78.08 432.487 77.9061 429.988 77.559L429.437 81.521C432.122 81.8939 434.842 82.08 437.597 82.08V78.08ZM429.995 77.5601C427.555 77.2114 425.188 76.7239 422.895 76.0985L421.842 79.9575C424.301 80.6281 426.83 81.1486 429.43 81.5199L429.995 77.5601ZM422.965 76.119C420.751 75.4271 418.646 74.5986 416.65 73.6349L414.911 77.2371C417.091 78.2894 419.378 79.1889 421.772 79.937L422.965 76.119ZM417.781 75.436V60.208H413.781V75.436H417.781ZM414.988 62.0444C418.704 63.6472 422.527 65.1398 426.457 66.5226L427.784 62.7494C423.938 61.3962 420.201 59.9368 416.573 58.3716L414.988 62.0444ZM426.498 66.5368C430.645 67.8938 434.779 68.58 438.893 68.58V64.58C435.23 64.58 431.516 63.9702 427.743 62.7352L426.498 66.5368ZM438.893 68.58C441.705 68.58 444.147 68.2048 446.092 67.3207L444.437 63.6793C443.214 64.2352 441.408 64.58 438.893 64.58V68.58ZM446.062 67.3341C448 66.4916 449.566 65.2748 450.552 63.598L447.105 61.57C446.651 62.3412 445.841 63.0684 444.467 63.6659L446.062 67.3341ZM450.508 63.6705C451.527 62.0948 452.017 60.3068 452.017 58.372H448.017C448.017 59.6052 447.714 60.6252 447.149 61.4975L450.508 63.6705ZM452.017 58.372C452.017 55.9005 451.124 53.7349 449.379 51.9898L446.55 54.8182C447.541 55.8091 448.017 56.9555 448.017 58.372H452.017ZM449.416 52.0285C447.924 50.4534 445.959 49.0696 443.59 47.8468L441.755 51.4012C443.85 52.4824 445.413 53.6186 446.513 54.7795L449.416 52.0285ZM443.634 47.8704C441.361 46.6238 438.769 45.3101 435.863 43.9294L434.146 47.5426C437 48.8979 439.52 50.1762 441.711 51.3776L443.634 47.8704ZM435.87 43.933C434.11 43.0881 432.2 42.098 430.139 40.9608L428.206 44.4632C430.321 45.63 432.299 46.6559 434.139 47.539L435.87 43.933ZM430.184 40.9866C428.217 39.8336 426.307 38.4365 424.453 36.7892L421.796 39.7788C423.83 41.5875 425.952 43.1424 428.161 44.4374L430.184 40.9866ZM424.511 36.8423C422.822 35.2182 421.409 33.2548 420.28 30.9302L416.681 32.6778C418 35.3932 419.683 37.7498 421.738 39.7257L424.511 36.8423ZM420.28 30.9302C419.218 28.7437 418.645 26.0336 418.645 22.732H414.645C414.645 26.4864 415.295 29.8243 416.681 32.6778L420.28 30.9302ZM418.645 22.732C418.645 18.4322 419.615 14.9019 421.458 12.0434L418.095 9.87659C415.762 13.4981 414.645 17.8158 414.645 22.732H418.645ZM421.452 12.0525C423.385 9.0884 426.097 6.81138 429.661 5.22762L428.036 1.57237C423.824 3.4446 420.488 6.20759 418.101 9.86746L421.452 12.0525ZM429.648 5.23307C433.305 3.63766 437.665 2.808 442.781 2.808V-1.192C437.24 -1.192 432.312 -0.293672 428.049 1.56692L429.648 5.23307ZM442.781 2.808C446.657 2.808 450.303 3.25779 453.725 4.14764L454.732 0.276352C450.954 -0.705793 446.968 -1.192 442.781 -1.192V2.808ZM453.734 4.15003C457.289 5.05596 461.002 6.35039 464.877 8.04108L466.476 4.37492C462.431 2.60961 458.512 1.24003 454.723 0.273968L453.734 4.15003ZM463.829 5.44099L458.537 18.185L462.232 19.719L467.524 6.975L463.829 5.44099ZM461.14 17.1003C457.562 15.64 454.322 14.4965 451.423 13.6791L450.338 17.5289C453.055 18.2954 456.151 19.384 459.629 20.8037L461.14 17.1003ZM451.423 13.6791C448.437 12.8367 445.374 12.416 442.241 12.416V16.416C445.011 16.416 447.708 16.7873 450.338 17.5289L451.423 13.6791ZM442.241 12.416C440.017 12.416 437.995 12.7726 436.236 13.5642L437.877 17.2118C438.998 16.7074 440.432 16.416 442.241 16.416V12.416ZM436.236 13.5642C434.506 14.3424 433.086 15.4637 432.06 16.9549L435.357 19.2211C435.915 18.4083 436.727 17.7296 437.877 17.2118L436.236 13.5642ZM432.013 17.028C431.063 18.5476 430.629 20.2965 430.629 22.192H434.629C434.629 20.9195 434.914 19.9324 435.404 19.148L432.013 17.028ZM430.629 22.192C430.629 24.4261 431.312 26.4358 432.712 28.1164L435.785 25.5556C435.025 24.6442 434.629 23.5579 434.629 22.192H430.629ZM432.749 28.1592C434.045 29.6287 435.891 30.9508 438.167 32.1647L440.05 28.6353C438.006 27.5452 436.612 26.4913 435.748 25.5128L432.749 28.1592ZM438.167 32.1647C440.355 33.3316 443.078 34.7108 446.33 36.3008L448.087 32.7072C444.859 31.1292 442.182 29.7724 440.05 28.6353L438.167 32.1647ZM446.354 36.3121C450.229 38.1439 453.459 40.0249 456.066 41.9461L458.439 38.7259C455.574 36.6151 452.108 34.6081 448.063 32.6959L446.354 36.3121ZM456.086 41.9606C458.679 43.8221 460.628 45.9815 461.982 48.4314L465.483 46.4966C463.813 43.4745 461.442 40.8819 458.419 38.7114L456.086 41.9606ZM461.982 48.4314C463.29 50.7975 464.001 53.8268 464.001 57.616H468.001C468.001 53.3412 467.199 49.6025 465.483 46.4966L461.982 48.4314ZM512.633 79L510.721 79.5872L511.155 81H512.633V79ZM494.057 18.52L495.969 17.9328L495.535 16.52H494.057V18.52ZM493.625 18.52V16.52H491.522L491.627 18.6199L493.625 18.52ZM493.949 25L491.951 25.0999L491.951 25.0999L493.949 25ZM494.381 34.288L492.383 34.3749L492.383 34.3768L494.381 34.288ZM494.597 79V81H496.597V79H494.597ZM480.017 79H478.017V81H480.017V79ZM480.017 1.888V-0.112005H478.017V1.888H480.017ZM502.265 1.888L504.175 1.29663L503.739 -0.112005H502.265V1.888ZM520.517 60.856L518.606 61.4474L519.042 62.856H520.517V60.856ZM520.841 60.856V62.856H522.29L522.741 61.479L520.841 60.856ZM540.173 1.888V-0.112005H538.724L538.272 1.26495L540.173 1.888ZM562.421 1.888H564.421V-0.112005H562.421V1.888ZM562.421 79V81H564.421V79H562.421ZM547.193 79H545.193V81H547.193V79ZM547.301 34.072L545.303 33.9812L545.302 34.0039L545.301 34.0266L547.301 34.072ZM547.625 25.108L545.627 25.0081L545.626 25.0324L545.626 25.0567L547.625 25.108ZM547.949 18.628L549.946 18.7279L550.051 16.628H547.949V18.628ZM547.517 18.628V16.628H546.07L545.617 18.0027L547.517 18.628ZM527.645 79V81H529.092L529.545 79.6253L527.645 79ZM514.545 78.4128L495.969 17.9328L492.145 19.1072L510.721 79.5872L514.545 78.4128ZM494.057 16.52H493.625V20.52H494.057V16.52ZM491.627 18.6199C491.699 20.0599 491.807 22.2199 491.951 25.0999L495.946 24.9001C495.802 22.0201 495.694 19.8601 495.622 18.4201L491.627 18.6199ZM491.951 25.0999C492.095 27.975 492.239 31.0666 492.383 34.3749L496.379 34.2011C496.235 30.8854 496.091 27.785 495.946 24.9001L491.951 25.0999ZM492.383 34.3768C492.526 37.5933 492.597 40.5151 492.597 43.144H496.597C496.597 40.4449 496.524 37.4627 496.379 34.1992L492.383 34.3768ZM492.597 43.144V79H496.597V43.144H492.597ZM494.597 77H480.017V81H494.597V77ZM482.017 79V1.888H478.017V79H482.017ZM480.017 3.888H502.265V-0.112005H480.017V3.888ZM500.354 2.47936L518.606 61.4474L522.427 60.2646L504.175 1.29663L500.354 2.47936ZM520.517 62.856H520.841V58.856H520.517V62.856ZM522.741 61.479L542.073 2.51104L538.272 1.26495L518.94 60.2329L522.741 61.479ZM540.173 3.888H562.421V-0.112005H540.173V3.888ZM560.421 1.888V79H564.421V1.888H560.421ZM562.421 77H547.193V81H562.421V77ZM549.193 79V42.496H545.193V79H549.193ZM549.193 42.496C549.193 40.0668 549.229 37.2744 549.3 34.1174L545.301 34.0266C545.229 37.2056 545.193 40.0292 545.193 42.496H549.193ZM549.299 34.1628C549.443 30.9833 549.552 27.982 549.624 25.1593L545.626 25.0567C545.554 27.85 545.446 30.8247 545.303 33.9812L549.299 34.1628ZM549.622 25.2079C549.766 22.3279 549.874 20.1679 549.946 18.7279L545.951 18.5281C545.879 19.9681 545.771 22.1281 545.627 25.0081L549.622 25.2079ZM547.949 16.628H547.517V20.628H547.949V16.628ZM545.617 18.0027L525.745 78.3747L529.545 79.6253L549.417 19.2533L545.617 18.0027ZM527.645 77H512.633V81H527.645V77ZM614.516 79L612.604 79.5872L613.038 81H614.516V79ZM595.94 18.52L597.852 17.9328L597.418 16.52H595.94V18.52ZM595.508 18.52V16.52H593.405L593.51 18.6199L595.508 18.52ZM595.832 25L593.834 25.0999L593.834 25.0999L595.832 25ZM596.264 34.288L594.266 34.3749L594.266 34.3768L596.264 34.288ZM596.48 79V81H598.48V79H596.48ZM581.9 79H579.9V81H581.9V79ZM581.9 1.888V-0.112005H579.9V1.888H581.9ZM604.148 1.888L606.058 1.29663L605.622 -0.112005H604.148V1.888ZM622.4 60.856L620.489 61.4474L620.925 62.856H622.4V60.856ZM622.724 60.856V62.856H624.173L624.624 61.479L622.724 60.856ZM642.056 1.888V-0.112005H640.607L640.155 1.26495L642.056 1.888ZM664.304 1.888H666.304V-0.112005H664.304V1.888ZM664.304 79V81H666.304V79H664.304ZM649.076 79H647.076V81H649.076V79ZM649.184 34.072L647.186 33.9812L647.185 34.0039L647.184 34.0266L649.184 34.072ZM649.508 25.108L647.51 25.0081L647.509 25.0324L647.508 25.0567L649.508 25.108ZM649.832 18.628L651.829 18.7279L651.934 16.628H649.832V18.628ZM649.4 18.628V16.628H647.952L647.5 18.0027L649.4 18.628ZM629.528 79V81H630.975L631.427 79.6253L629.528 79ZM616.428 78.4128L597.852 17.9328L594.028 19.1072L612.604 79.5872L616.428 78.4128ZM595.94 16.52H595.508V20.52H595.94V16.52ZM593.51 18.6199C593.582 20.0599 593.69 22.2199 593.834 25.0999L597.829 24.9001C597.685 22.0201 597.577 19.8601 597.505 18.4201L593.51 18.6199ZM593.834 25.0999C593.978 27.975 594.122 31.0666 594.266 34.3749L598.262 34.2011C598.118 30.8854 597.973 27.785 597.829 24.9001L593.834 25.0999ZM594.266 34.3768C594.409 37.5933 594.48 40.5151 594.48 43.144H598.48C598.48 40.4449 598.407 37.4627 598.262 34.1992L594.266 34.3768ZM594.48 43.144V79H598.48V43.144H594.48ZM596.48 77H581.9V81H596.48V77ZM583.9 79V1.888H579.9V79H583.9ZM581.9 3.888H604.148V-0.112005H581.9V3.888ZM602.237 2.47936L620.489 61.4474L624.31 60.2646L606.058 1.29663L602.237 2.47936ZM622.4 62.856H622.724V58.856H622.4V62.856ZM624.624 61.479L643.956 2.51104L640.155 1.26495L620.823 60.2329L624.624 61.479ZM642.056 3.888H664.304V-0.112005H642.056V3.888ZM662.304 1.888V79H666.304V1.888H662.304ZM664.304 77H649.076V81H664.304V77ZM651.076 79V42.496H647.076V79H651.076ZM651.076 42.496C651.076 40.0668 651.111 37.2744 651.183 34.1174L647.184 34.0266C647.112 37.2056 647.076 40.0292 647.076 42.496H651.076ZM651.182 34.1628C651.326 30.9833 651.435 27.982 651.507 25.1593L647.508 25.0567C647.437 27.85 647.329 30.8247 647.186 33.9812L651.182 34.1628ZM651.505 25.2079C651.649 22.3279 651.757 20.1679 651.829 18.7279L647.834 18.5281C647.762 19.9681 647.654 22.1281 647.51 25.0081L651.505 25.2079ZM649.832 16.628H649.4V20.628H649.832V16.628ZM647.5 18.0027L627.628 78.3747L631.427 79.6253L651.299 19.2533L647.5 18.0027ZM629.528 77H614.516V81H629.528V77ZM746.181 1.888L748.055 2.58621L749.061 -0.112005H746.181V1.888ZM717.453 79V81H718.842L719.327 79.6982L717.453 79ZM702.873 79L700.999 78.3018L699.994 81H702.873V79ZM731.601 1.888V-0.112005H730.212L729.727 1.18978L731.601 1.888ZM744.307 1.18978L715.579 78.3018L719.327 79.6982L748.055 2.58621L744.307 1.18978ZM717.453 77H702.873V81H717.453V77ZM704.747 79.6982L733.475 2.58621L729.727 1.18978L700.999 78.3018L704.747 79.6982ZM731.601 3.888H746.181V-0.112005H731.601V3.888Z" fill="#2C507A" mask="url(#path-1-outside-1_1_4)"/>
</svg>
