<svg width="568" height="78" viewBox="0 0 568 78" fill="none" xmlns="http://www.w3.org/2000/svg">
<mask id="path-1-outside-1_1_4" maskUnits="userSpaceOnUse" x="-2" y="-2" width="572" height="82" fill="black">
<rect fill="white" x="-2" y="-2" width="572" height="82"/>
<path d="M37.42 78H21.112V14.496H0.16V0.887995H58.372V14.496H37.42V78ZM114.651 78H70.263V0.887995H114.651V14.28H86.571V31.236H112.707V44.628H86.571V64.5H114.651V78ZM177.893 78L172.277 59.64H144.197L138.581 78H120.977L148.193 0.563999H168.173L195.497 78H177.893ZM162.773 27.996C162.413 26.772 161.945 25.224 161.369 23.352C160.793 21.48 160.217 19.572 159.641 17.628C159.065 15.684 158.597 13.992 158.237 12.552C157.877 13.992 157.373 15.792 156.725 17.952C156.149 20.04 155.573 22.056 154.997 24C154.493 25.872 154.097 27.204 153.809 27.996L148.301 45.924H168.389L162.773 27.996ZM237.879 78L219.303 17.52H218.871C218.943 18.96 219.051 21.12 219.195 24C219.339 26.88 219.483 29.976 219.627 33.288C219.771 36.528 219.843 39.48 219.843 42.144V78H205.263V0.887995H227.511L245.763 59.856H246.087L265.419 0.887995H287.667V78H272.439V41.496C272.439 39.048 272.475 36.24 272.547 33.072C272.691 29.904 272.799 26.916 272.871 24.108C273.015 21.228 273.123 19.068 273.195 17.628H272.763L252.891 78H237.879ZM307.146 78V0.887995H323.454V64.5H354.774V78H307.146ZM412.6 78H368.212V0.887995H412.6V14.28H384.52V31.236H410.656V44.628H384.52V64.5H412.6V78ZM475.842 78L470.226 59.64H442.146L436.53 78H418.926L446.142 0.563999H466.122L493.446 78H475.842ZM460.722 27.996C460.362 26.772 459.894 25.224 459.318 23.352C458.742 21.48 458.166 19.572 457.59 17.628C457.014 15.684 456.546 13.992 456.186 12.552C455.826 13.992 455.322 15.792 454.674 17.952C454.098 20.04 453.522 22.056 452.946 24C452.442 25.872 452.046 27.204 451.758 27.996L446.25 45.924H466.338L460.722 27.996ZM567.148 38.688C567.148 47.328 565.492 54.564 562.18 60.396C558.868 66.228 554.044 70.62 547.708 73.572C541.444 76.524 533.884 78 525.028 78H503.212V0.887995H527.404C535.468 0.887995 542.452 2.328 548.356 5.208C554.332 8.088 558.94 12.336 562.18 17.952C565.492 23.496 567.148 30.408 567.148 38.688ZM550.192 39.12C550.192 33.432 549.364 28.752 547.708 25.08C546.052 21.408 543.568 18.708 540.256 16.98C537.016 15.18 533.02 14.28 528.268 14.28H519.52V64.5H526.54C534.532 64.5 540.472 62.376 544.36 58.128C548.248 53.88 550.192 47.544 550.192 39.12Z"/>
</mask>
<path d="M37.42 78V80H39.42V78H37.42ZM21.112 78H19.112V80H21.112V78ZM21.112 14.496H23.112V12.496H21.112V14.496ZM0.16 14.496H-1.84V16.496H0.16V14.496ZM0.16 0.887995V-1.112H-1.84V0.887995H0.16ZM58.372 0.887995H60.372V-1.112H58.372V0.887995ZM58.372 14.496V16.496H60.372V14.496H58.372ZM37.42 14.496V12.496H35.42V14.496H37.42ZM37.42 76H21.112V80H37.42V76ZM23.112 78V14.496H19.112V78H23.112ZM21.112 12.496H0.16V16.496H21.112V12.496ZM2.16 14.496V0.887995H-1.84V14.496H2.16ZM0.16 2.888H58.372V-1.112H0.16V2.888ZM56.372 0.887995V14.496H60.372V0.887995H56.372ZM58.372 12.496H37.42V16.496H58.372V12.496ZM35.42 14.496V78H39.42V14.496H35.42ZM114.651 78V80H116.651V78H114.651ZM70.263 78H68.263V80H70.263V78ZM70.263 0.887995V-1.112H68.263V0.887995H70.263ZM114.651 0.887995H116.651V-1.112H114.651V0.887995ZM114.651 14.28V16.28H116.651V14.28H114.651ZM86.571 14.28V12.28H84.571V14.28H86.571ZM86.571 31.236H84.571V33.236H86.571V31.236ZM112.707 31.236H114.707V29.236H112.707V31.236ZM112.707 44.628V46.628H114.707V44.628H112.707ZM86.571 44.628V42.628H84.571V44.628H86.571ZM86.571 64.5H84.571V66.5H86.571V64.5ZM114.651 64.5H116.651V62.5H114.651V64.5ZM114.651 76H70.263V80H114.651V76ZM72.263 78V0.887995H68.263V78H72.263ZM70.263 2.888H114.651V-1.112H70.263V2.888ZM112.651 0.887995V14.28H116.651V0.887995H112.651ZM114.651 12.28H86.571V16.28H114.651V12.28ZM84.571 14.28V31.236H88.571V14.28H84.571ZM86.571 33.236H112.707V29.236H86.571V33.236ZM110.707 31.236V44.628H114.707V31.236H110.707ZM112.707 42.628H86.571V46.628H112.707V42.628ZM84.571 44.628V64.5H88.571V44.628H84.571ZM86.571 66.5H114.651V62.5H86.571V66.5ZM112.651 64.5V78H116.651V64.5H112.651ZM177.893 78L175.98 78.585L176.413 80H177.893V78ZM172.277 59.64L174.189 59.055L173.756 57.64H172.277V59.64ZM144.197 59.64V57.64H142.717L142.284 59.055L144.197 59.64ZM138.581 78V80H140.06L140.493 78.585L138.581 78ZM120.977 78L119.09 77.3368L118.154 80H120.977V78ZM148.193 0.563999V-1.436H146.776L146.306 -0.0991627L148.193 0.563999ZM168.173 0.563999L170.059 -0.101504L169.588 -1.436H168.173V0.563999ZM195.497 78V80H198.323L197.383 77.3345L195.497 78ZM162.773 27.996L160.854 28.5603L160.859 28.5771L160.864 28.5939L162.773 27.996ZM161.369 23.352L159.457 23.9402L159.457 23.9402L161.369 23.352ZM159.641 17.628L157.723 18.1962L157.723 18.1962L159.641 17.628ZM158.237 12.552L160.177 12.0669L156.296 12.0669L158.237 12.552ZM156.725 17.952L154.809 17.3773L154.803 17.3986L154.797 17.4201L156.725 17.952ZM154.997 24L153.079 23.4318L153.072 23.4559L153.065 23.4801L154.997 24ZM153.809 27.996L151.929 27.3125L151.912 27.3602L151.897 27.4086L153.809 27.996ZM148.301 45.924L146.389 45.3366L145.594 47.924H148.301V45.924ZM168.389 45.924V47.924H171.111L170.297 45.3261L168.389 45.924ZM179.805 77.415L174.189 59.055L170.364 60.225L175.98 78.585L179.805 77.415ZM172.277 57.64H144.197V61.64H172.277V57.64ZM142.284 59.055L136.668 77.415L140.493 78.585L146.109 60.225L142.284 59.055ZM138.581 76H120.977V80H138.581V76ZM122.863 78.6632L150.079 1.22716L146.306 -0.0991627L119.09 77.3368L122.863 78.6632ZM148.193 2.564H168.173V-1.436H148.193V2.564ZM166.287 1.2295L193.611 78.6655L197.383 77.3345L170.059 -0.101504L166.287 1.2295ZM195.497 76H177.893V80H195.497V76ZM164.691 27.4317C164.328 26.1967 163.857 24.6401 163.28 22.7638L159.457 23.9402C160.032 25.8079 160.497 27.3473 160.854 28.5603L164.691 27.4317ZM163.28 22.7638C162.706 20.8987 162.132 18.9974 161.558 17.0598L157.723 18.1962C158.301 20.1466 158.879 22.0613 159.457 23.9402L163.28 22.7638ZM161.558 17.0598C160.988 15.1342 160.528 13.4711 160.177 12.0669L156.296 13.0371C156.665 14.5129 157.142 16.2338 157.723 18.1962L161.558 17.0598ZM156.296 12.0669C155.947 13.4657 155.452 15.2335 154.809 17.3773L158.64 18.5267C159.293 16.3505 159.807 14.5183 160.177 13.0371L156.296 12.0669ZM154.797 17.4201C154.224 19.4968 153.651 21.5007 153.079 23.4318L156.914 24.5682C157.494 22.6113 158.073 20.5832 158.653 18.4839L154.797 17.4201ZM153.065 23.4801C152.562 25.349 152.185 26.6083 151.929 27.3125L155.688 28.6795C156.008 27.7997 156.423 26.395 156.928 24.5199L153.065 23.4801ZM151.897 27.4086L146.389 45.3366L150.212 46.5114L155.72 28.5834L151.897 27.4086ZM148.301 47.924H168.389V43.924H148.301V47.924ZM170.297 45.3261L164.681 27.3981L160.864 28.5939L166.48 46.5219L170.297 45.3261ZM237.879 78L235.967 78.5872L236.401 80H237.879V78ZM219.303 17.52L221.215 16.9328L220.781 15.52H219.303V17.52ZM218.871 17.52V15.52H216.768L216.873 17.6199L218.871 17.52ZM219.195 24L217.197 24.0999L217.197 24.0999L219.195 24ZM219.627 33.288L217.629 33.3749L217.629 33.3768L219.627 33.288ZM219.843 78V80H221.843V78H219.843ZM205.263 78H203.263V80H205.263V78ZM205.263 0.887995V-1.112H203.263V0.887995H205.263ZM227.511 0.887995L229.422 0.296627L228.986 -1.112H227.511V0.887995ZM245.763 59.856L243.852 60.4474L244.288 61.856H245.763V59.856ZM246.087 59.856V61.856H247.536L247.987 60.479L246.087 59.856ZM265.419 0.887995V-1.112H263.97L263.518 0.264945L265.419 0.887995ZM287.667 0.887995H289.667V-1.112H287.667V0.887995ZM287.667 78V80H289.667V78H287.667ZM272.439 78H270.439V80H272.439V78ZM272.547 33.072L270.549 32.9812L270.548 33.0039L270.547 33.0266L272.547 33.072ZM272.871 24.108L270.873 24.0081L270.872 24.0324L270.872 24.0567L272.871 24.108ZM273.195 17.628L275.192 17.7279L275.297 15.628H273.195V17.628ZM272.763 17.628V15.628H271.316L270.863 17.0027L272.763 17.628ZM252.891 78V80H254.338L254.791 78.6253L252.891 78ZM239.791 77.4128L221.215 16.9328L217.391 18.1072L235.967 78.5872L239.791 77.4128ZM219.303 15.52H218.871V19.52H219.303V15.52ZM216.873 17.6199C216.945 19.0599 217.053 21.2199 217.197 24.0999L221.192 23.9001C221.048 21.0201 220.94 18.8601 220.868 17.4201L216.873 17.6199ZM217.197 24.0999C217.341 26.975 217.485 30.0666 217.629 33.3749L221.625 33.2011C221.481 29.8854 221.337 26.785 221.192 23.9001L217.197 24.0999ZM217.629 33.3768C217.772 36.5933 217.843 39.5151 217.843 42.144H221.843C221.843 39.4449 221.77 36.4627 221.625 33.1992L217.629 33.3768ZM217.843 42.144V78H221.843V42.144H217.843ZM219.843 76H205.263V80H219.843V76ZM207.263 78V0.887995H203.263V78H207.263ZM205.263 2.888H227.511V-1.112H205.263V2.888ZM225.6 1.47936L243.852 60.4474L247.674 59.2646L229.422 0.296627L225.6 1.47936ZM245.763 61.856H246.087V57.856H245.763V61.856ZM247.987 60.479L267.319 1.51104L263.518 0.264945L244.186 59.2329L247.987 60.479ZM265.419 2.888H287.667V-1.112H265.419V2.888ZM285.667 0.887995V78H289.667V0.887995H285.667ZM287.667 76H272.439V80H287.667V76ZM274.439 78V41.496H270.439V78H274.439ZM274.439 41.496C274.439 39.0668 274.475 36.2744 274.546 33.1174L270.547 33.0266C270.475 36.2056 270.439 39.0292 270.439 41.496H274.439ZM274.545 33.1628C274.689 29.9833 274.798 26.982 274.87 24.1593L270.872 24.0567C270.8 26.85 270.693 29.8247 270.549 32.9812L274.545 33.1628ZM274.868 24.2079C275.012 21.3279 275.12 19.1679 275.192 17.7279L271.197 17.5281C271.125 18.9681 271.017 21.1281 270.873 24.0081L274.868 24.2079ZM273.195 15.628H272.763V19.628H273.195V15.628ZM270.863 17.0027L250.991 77.3747L254.791 78.6253L274.663 18.2533L270.863 17.0027ZM252.891 76H237.879V80H252.891V76ZM307.146 78H305.146V80H307.146V78ZM307.146 0.887995V-1.112H305.146V0.887995H307.146ZM323.454 0.887995H325.454V-1.112H323.454V0.887995ZM323.454 64.5H321.454V66.5H323.454V64.5ZM354.774 64.5H356.774V62.5H354.774V64.5ZM354.774 78V80H356.774V78H354.774ZM309.146 78V0.887995H305.146V78H309.146ZM307.146 2.888H323.454V-1.112H307.146V2.888ZM321.454 0.887995V64.5H325.454V0.887995H321.454ZM323.454 66.5H354.774V62.5H323.454V66.5ZM352.774 64.5V78H356.774V64.5H352.774ZM354.774 76H307.146V80H354.774V76ZM412.6 78V80H414.6V78H412.6ZM368.212 78H366.212V80H368.212V78ZM368.212 0.887995V-1.112H366.212V0.887995H368.212ZM412.6 0.887995H414.6V-1.112H412.6V0.887995ZM412.6 14.28V16.28H414.6V14.28H412.6ZM384.52 14.28V12.28H382.52V14.28H384.52ZM384.52 31.236H382.52V33.236H384.52V31.236ZM410.656 31.236H412.656V29.236H410.656V31.236ZM410.656 44.628V46.628H412.656V44.628H410.656ZM384.52 44.628V42.628H382.52V44.628H384.52ZM384.52 64.5H382.52V66.5H384.52V64.5ZM412.6 64.5H414.6V62.5H412.6V64.5ZM412.6 76H368.212V80H412.6V76ZM370.212 78V0.887995H366.212V78H370.212ZM368.212 2.888H412.6V-1.112H368.212V2.888ZM410.6 0.887995V14.28H414.6V0.887995H410.6ZM412.6 12.28H384.52V16.28H412.6V12.28ZM382.52 14.28V31.236H386.52V14.28H382.52ZM384.52 33.236H410.656V29.236H384.52V33.236ZM408.656 31.236V44.628H412.656V31.236H408.656ZM410.656 42.628H384.52V46.628H410.656V42.628ZM382.52 44.628V64.5H386.52V44.628H382.52ZM384.52 66.5H412.6V62.5H384.52V66.5ZM410.6 64.5V78H414.6V64.5H410.6ZM475.842 78L473.929 78.585L474.362 80H475.842V78ZM470.226 59.64L472.138 59.055L471.705 57.64H470.226V59.64ZM442.146 59.64V57.64H440.666L440.233 59.055L442.146 59.64ZM436.53 78V80H438.009L438.442 78.585L436.53 78ZM418.926 78L417.039 77.3368L416.103 80H418.926V78ZM446.142 0.563999V-1.436H444.725L444.255 -0.0991627L446.142 0.563999ZM466.122 0.563999L468.008 -0.101504L467.537 -1.436H466.122V0.563999ZM493.446 78V80H496.272L495.332 77.3345L493.446 78ZM460.722 27.996L458.803 28.5603L458.808 28.5771L458.813 28.5939L460.722 27.996ZM459.318 23.352L457.406 23.9402L457.406 23.9402L459.318 23.352ZM457.59 17.628L455.672 18.1962L455.672 18.1962L457.59 17.628ZM456.186 12.552L458.126 12.0669L454.246 12.0669L456.186 12.552ZM454.674 17.952L452.758 17.3773L452.752 17.3986L452.746 17.4201L454.674 17.952ZM452.946 24L451.028 23.4318L451.021 23.4559L451.015 23.4801L452.946 24ZM451.758 27.996L449.878 27.3125L449.861 27.3602L449.846 27.4086L451.758 27.996ZM446.25 45.924L444.338 45.3366L443.543 47.924H446.25V45.924ZM466.338 45.924V47.924H469.06L468.246 45.3261L466.338 45.924ZM477.754 77.415L472.138 59.055L468.313 60.225L473.929 78.585L477.754 77.415ZM470.226 57.64H442.146V61.64H470.226V57.64ZM440.233 59.055L434.617 77.415L438.442 78.585L444.058 60.225L440.233 59.055ZM436.53 76H418.926V80H436.53V76ZM420.813 78.6632L448.029 1.22716L444.255 -0.0991627L417.039 77.3368L420.813 78.6632ZM446.142 2.564H466.122V-1.436H446.142V2.564ZM464.236 1.2295L491.56 78.6655L495.332 77.3345L468.008 -0.101504L464.236 1.2295ZM493.446 76H475.842V80H493.446V76ZM462.641 27.4317C462.277 26.1967 461.807 24.6401 461.229 22.7638L457.406 23.9402C457.981 25.8079 458.446 27.3473 458.803 28.5603L462.641 27.4317ZM461.229 22.7638C460.655 20.8987 460.081 18.9974 459.507 17.0598L455.672 18.1962C456.25 20.1466 456.828 22.0613 457.406 23.9402L461.229 22.7638ZM459.507 17.0598C458.937 15.1342 458.477 13.4711 458.126 12.0669L454.245 13.0371C454.614 14.5129 455.091 16.2338 455.672 18.1962L459.507 17.0598ZM454.246 12.0669C453.896 13.4657 453.401 15.2335 452.758 17.3773L456.589 18.5267C457.242 16.3505 457.756 14.5183 458.126 13.0371L454.246 12.0669ZM452.746 17.4201C452.173 19.4968 451.6 21.5007 451.028 23.4318L454.863 24.5682C455.443 22.6113 456.023 20.5832 456.602 18.4839L452.746 17.4201ZM451.015 23.4801C450.511 25.349 450.134 26.6083 449.878 27.3125L453.637 28.6795C453.957 27.7997 454.372 26.395 454.877 24.5199L451.015 23.4801ZM449.846 27.4086L444.338 45.3366L448.162 46.5114L453.67 28.5834L449.846 27.4086ZM446.25 47.924H466.338V43.924H446.25V47.924ZM468.246 45.3261L462.63 27.3981L458.813 28.5939L464.429 46.5219L468.246 45.3261ZM562.18 60.396L563.919 61.3836L563.919 61.3836L562.18 60.396ZM547.708 73.572L546.864 71.7591L546.856 71.7628L547.708 73.572ZM503.212 78H501.212V80H503.212V78ZM503.212 0.887995V-1.112H501.212V0.887995H503.212ZM548.356 5.208L547.479 7.00555L547.488 7.00969L548.356 5.208ZM562.18 17.952L560.448 18.9514L560.455 18.9646L560.463 18.9777L562.18 17.952ZM547.708 25.08L549.531 24.2578L547.708 25.08ZM540.256 16.98L539.285 18.7283L539.308 18.741L539.331 18.7532L540.256 16.98ZM519.52 14.28V12.28H517.52V14.28H519.52ZM519.52 64.5H517.52V66.5H519.52V64.5ZM544.36 58.128L542.885 56.7777L542.885 56.7777L544.36 58.128ZM565.148 38.688C565.148 47.0792 563.54 53.9522 560.441 59.4083L563.919 61.3836C567.445 55.1758 569.148 47.5768 569.148 38.688H565.148ZM560.441 59.4083C557.343 64.8631 552.84 68.9747 546.864 71.7591L548.553 75.3849C555.249 72.2653 560.393 67.5929 563.919 61.3836L560.441 59.4083ZM546.856 71.7628C540.922 74.5592 533.669 76 525.028 76V80C534.1 80 541.967 78.4888 548.561 75.3812L546.856 71.7628ZM525.028 76H503.212V80H525.028V76ZM505.212 78V0.887995H501.212V78H505.212ZM503.212 2.888H527.404V-1.112H503.212V2.888ZM527.404 2.888C535.232 2.888 541.903 4.28561 547.479 7.00553L549.233 3.41046C543.001 0.370384 535.704 -1.112 527.404 -1.112V2.888ZM547.488 7.00969C553.111 9.71948 557.414 13.6921 560.448 18.9514L563.913 16.9525C560.467 10.9799 555.554 6.45651 549.224 3.40631L547.488 7.00969ZM560.463 18.9777C563.545 24.1357 565.148 30.669 565.148 38.688H569.148C569.148 30.147 567.44 22.8563 563.897 16.9263L560.463 18.9777ZM552.192 39.12C552.192 33.2572 551.342 28.2717 549.531 24.2578L545.885 25.9022C547.387 29.2323 548.192 33.6068 548.192 39.12H552.192ZM549.531 24.2578C547.706 20.2113 544.923 17.1589 541.181 15.2068L539.331 18.7532C542.214 20.2571 544.398 22.6047 545.885 25.9022L549.531 24.2578ZM541.227 15.2317C537.618 13.2264 533.266 12.28 528.268 12.28V16.28C532.774 16.28 536.414 17.1336 539.285 18.7283L541.227 15.2317ZM528.268 12.28H519.52V16.28H528.268V12.28ZM517.52 14.28V64.5H521.52V14.28H517.52ZM519.52 66.5H526.54V62.5H519.52V66.5ZM526.54 66.5C534.869 66.5 541.44 64.2812 545.836 59.4783L542.885 56.7777C539.505 60.4708 534.196 62.5 526.54 62.5V66.5ZM545.836 59.4783C550.188 54.7223 552.192 47.816 552.192 39.12H548.192C548.192 47.272 546.308 53.0377 542.885 56.7777L545.836 59.4783Z" fill="#2C507A" mask="url(#path-1-outside-1_1_4)"/>
</svg>
