<svg width="740" height="81" viewBox="0 0 740 81" fill="none" xmlns="http://www.w3.org/2000/svg">
<mask id="path-1-outside-1_1_3" maskUnits="userSpaceOnUse" x="-2" y="-2" width="744" height="85" fill="black">
<rect fill="white" x="-2" y="-2" width="744" height="85"/>
<path d="M63.468 51.784C63.468 57.112 62.28 61.936 59.904 66.256C57.6 70.504 54.072 73.888 49.32 76.408C44.64 78.856 38.7 80.08 31.5 80.08C21.276 80.08 13.5 77.488 8.172 72.304C2.844 67.048 0.18 60.136 0.18 51.568V1.888H16.488V49.084C16.488 55.42 17.784 59.884 20.376 62.476C22.968 65.068 26.82 66.364 31.932 66.364C35.532 66.364 38.448 65.752 40.68 64.528C42.912 63.304 44.532 61.396 45.54 58.804C46.62 56.212 47.16 52.936 47.16 48.976V1.888H63.468V51.784ZM144.669 79H125.985L108.057 49.84L90.1288 79H72.6328L98.2288 39.256L74.2528 1.888H92.2888L108.921 29.644L125.229 1.888H142.833L118.641 40.12L144.669 79ZM188.732 1.888L160.004 79H145.424L174.152 1.888H188.732ZM261.749 51.784C261.749 57.112 260.561 61.936 258.185 66.256C255.881 70.504 252.353 73.888 247.601 76.408C242.921 78.856 236.981 80.08 229.781 80.08C219.557 80.08 211.781 77.488 206.453 72.304C201.125 67.048 198.461 60.136 198.461 51.568V1.888H214.769V49.084C214.769 55.42 216.065 59.884 218.657 62.476C221.249 65.068 225.101 66.364 230.213 66.364C233.813 66.364 236.729 65.752 238.961 64.528C241.193 63.304 242.813 61.396 243.821 58.804C244.901 56.212 245.441 52.936 245.441 48.976V1.888H261.749V51.784ZM309.47 79H274.37V69.712L283.766 65.392V15.496L274.37 11.176V1.888H309.47V11.176L300.074 15.496V65.392L309.47 69.712V79ZM414.601 39.688C414.601 48.328 412.945 55.564 409.633 61.396C406.321 67.228 401.497 71.62 395.161 74.572C388.897 77.524 381.337 79 372.481 79H350.665V1.888H374.857C382.921 1.888 389.905 3.328 395.809 6.208C401.785 9.088 406.393 13.336 409.633 18.952C412.945 24.496 414.601 31.408 414.601 39.688ZM397.645 40.12C397.645 34.432 396.817 29.752 395.161 26.08C393.505 22.408 391.021 19.708 387.709 17.98C384.469 16.18 380.473 15.28 375.721 15.28H366.973V65.5H373.993C381.985 65.5 387.925 63.376 391.813 59.128C395.701 54.88 397.645 48.544 397.645 40.12ZM474.999 79H430.611V1.888H474.999V15.28H446.919V32.236H473.055V45.628H446.919V65.5H474.999V79ZM536.512 57.616C536.512 62.152 535.396 66.112 533.164 69.496C530.932 72.88 527.692 75.508 523.444 77.38C519.268 79.18 514.156 80.08 508.108 80.08C505.444 80.08 502.816 79.9 500.224 79.54C497.704 79.18 495.256 78.676 492.88 78.028C490.576 77.308 488.38 76.444 486.292 75.436V60.208C489.964 61.792 493.744 63.268 497.632 64.636C501.592 65.932 505.516 66.58 509.404 66.58C512.068 66.58 514.192 66.22 515.776 65.5C517.432 64.78 518.62 63.808 519.34 62.584C520.132 61.36 520.528 59.956 520.528 58.372C520.528 56.428 519.844 54.772 518.476 53.404C517.18 52.036 515.416 50.776 513.184 49.624C510.952 48.4 508.396 47.104 505.516 45.736C503.716 44.872 501.772 43.864 499.684 42.712C497.596 41.488 495.58 40.012 493.636 38.284C491.764 36.484 490.216 34.324 488.992 31.804C487.768 29.284 487.156 26.26 487.156 22.732C487.156 18.124 488.2 14.2 490.288 10.96C492.448 7.64799 495.472 5.12799 499.36 3.39999C503.32 1.672 507.964 0.807996 513.292 0.807996C517.324 0.807996 521.14 1.276 524.74 2.212C528.412 3.148 532.228 4.48 536.188 6.208L530.896 18.952C527.368 17.512 524.2 16.396 521.392 15.604C518.584 14.812 515.704 14.416 512.752 14.416C510.736 14.416 509.008 14.74 507.568 15.388C506.128 16.036 505.012 16.936 504.22 18.088C503.5 19.24 503.14 20.608 503.14 22.192C503.14 23.992 503.68 25.54 504.76 26.836C505.84 28.06 507.46 29.248 509.62 30.4C511.78 31.552 514.48 32.92 517.72 34.504C521.68 36.376 525.028 38.32 527.764 40.336C530.572 42.352 532.732 44.728 534.244 47.464C535.756 50.2 536.512 53.584 536.512 57.616ZM579.365 79H544.265V69.712L553.661 65.392V15.496L544.265 11.176V1.888H579.365V11.176L569.969 15.496V65.392L579.365 69.712V79ZM621.773 35.692H652.337V75.652C648.305 77.02 644.093 78.1 639.701 78.892C635.381 79.684 630.449 80.08 624.905 80.08C617.273 80.08 610.757 78.568 605.357 75.544C600.029 72.52 595.961 68.056 593.153 62.152C590.417 56.248 589.049 48.976 589.049 40.336C589.049 32.272 590.597 25.288 593.693 19.384C596.861 13.48 601.433 8.908 607.409 5.668C613.385 2.428 620.693 0.807996 629.333 0.807996C633.437 0.807996 637.469 1.24 641.429 2.104C645.389 2.968 648.989 4.12 652.229 5.56L646.829 18.628C644.453 17.404 641.753 16.396 638.729 15.604C635.705 14.812 632.537 14.416 629.225 14.416C624.473 14.416 620.333 15.496 616.805 17.656C613.349 19.816 610.649 22.876 608.705 26.836C606.833 30.724 605.897 35.332 605.897 40.66C605.897 45.7 606.581 50.164 607.949 54.052C609.317 57.94 611.477 61 614.429 63.232C617.381 65.392 621.233 66.472 625.985 66.472C627.569 66.472 628.937 66.436 630.089 66.364C631.313 66.22 632.429 66.076 633.437 65.932C634.445 65.716 635.417 65.536 636.353 65.392V49.3H621.773V35.692ZM739.022 79H718.286L684.698 20.68H684.266C684.338 22.48 684.41 24.316 684.482 26.188C684.554 27.988 684.626 29.824 684.698 31.696C684.842 33.496 684.95 35.332 685.022 37.204C685.094 39.004 685.166 40.84 685.238 42.712V79H670.658V1.888H691.286L724.766 59.668H725.09C725.018 57.868 724.946 56.104 724.874 54.376C724.802 52.576 724.73 50.812 724.658 49.084C724.658 47.284 724.622 45.52 724.55 43.792C724.478 41.992 724.406 40.192 724.334 38.392V1.888H739.022V79Z"/>
</mask>
<path d="M59.904 66.256L58.1515 65.2921L58.1459 65.3025L59.904 66.256ZM49.32 76.408L50.247 78.1802L50.257 78.1749L49.32 76.408ZM8.172 72.304L6.76741 73.7278L6.77729 73.7375L8.172 72.304ZM0.18 1.888V-0.112005H-1.82V1.888H0.18ZM16.488 1.888H18.488V-0.112005H16.488V1.888ZM20.376 62.476L18.9618 63.8902L18.9618 63.8902L20.376 62.476ZM40.68 64.528L39.7183 62.7744L39.7183 62.7744L40.68 64.528ZM45.54 58.804L43.6938 58.0348L43.6847 58.0568L43.676 58.0791L45.54 58.804ZM47.16 1.888V-0.112005H45.16V1.888H47.16ZM63.468 1.888H65.468V-0.112005H63.468V1.888ZM61.468 51.784C61.468 56.8029 60.3522 61.291 58.1516 65.2922L61.6564 67.2198C64.2078 62.581 65.468 57.4211 65.468 51.784H61.468ZM58.1459 65.3025C56.0505 69.166 52.828 72.2839 48.383 74.6411L50.257 78.1749C55.316 75.4921 59.1495 71.842 61.6621 67.2095L58.1459 65.3025ZM48.393 74.6358C44.0839 76.8898 38.4888 78.08 31.5 78.08V82.08C38.9113 82.08 45.1961 80.8222 50.247 78.1802L48.393 74.6358ZM31.5 78.08C21.598 78.08 14.3996 75.5728 9.56671 70.8705L6.77729 73.7375C12.6004 79.4032 20.954 82.08 31.5 82.08V78.08ZM9.57656 70.8802C4.68565 66.0554 2.18 59.6852 2.18 51.568H-1.82C-1.82 60.5868 1.00235 68.0406 6.76744 73.7278L9.57656 70.8802ZM2.18 51.568V1.888H-1.82V51.568H2.18ZM0.18 3.888H16.488V-0.112005H0.18V3.888ZM14.488 1.888V49.084H18.488V1.888H14.488ZM14.488 49.084C14.488 55.5909 15.8002 60.7287 18.9618 63.8902L21.7902 61.0618C19.7678 59.0393 18.488 55.2491 18.488 49.084H14.488ZM18.9618 63.8902C22.0564 66.9848 26.5023 68.364 31.932 68.364V64.364C27.1377 64.364 23.8796 63.1512 21.7902 61.0618L18.9618 63.8902ZM31.932 68.364C35.7369 68.364 39.018 67.7204 41.6417 66.2816L39.7183 62.7744C37.878 63.7836 35.3271 64.364 31.932 64.364V68.364ZM41.6417 66.2816C44.3252 64.81 46.2425 62.5157 47.404 59.5289L43.676 58.0791C42.8215 60.2763 41.4988 61.798 39.7183 62.7744L41.6417 66.2816ZM47.3862 59.5732C48.6003 56.6594 49.16 53.0997 49.16 48.976H45.16C45.16 52.7723 44.6397 55.7646 43.6938 58.0348L47.3862 59.5732ZM49.16 48.976V1.888H45.16V48.976H49.16ZM47.16 3.888H63.468V-0.112005H47.16V3.888ZM61.468 1.888V51.784H65.468V1.888H61.468ZM144.669 79V81H148.414L146.331 77.8874L144.669 79ZM125.985 79L124.281 80.0475L124.867 81H125.985V79ZM108.057 49.84L109.761 48.7925L108.057 46.0213L106.353 48.7925L108.057 49.84ZM90.1288 79V81H91.2469L91.8326 80.0475L90.1288 79ZM72.6328 79L70.9513 77.9171L68.9659 81H72.6328V79ZM98.2288 39.256L99.9103 40.3389L100.606 39.258L99.9121 38.176L98.2288 39.256ZM74.2528 1.888V-0.112005H70.5933L72.5695 2.96803L74.2528 1.888ZM92.2888 1.888L94.0044 0.859985L93.422 -0.112005H92.2888V1.888ZM108.921 29.644L107.205 30.672L108.938 33.5632L110.645 30.6572L108.921 29.644ZM125.229 1.888V-0.112005H124.084L123.504 0.874835L125.229 1.888ZM142.833 1.888L144.523 2.95742L146.465 -0.112005H142.833V1.888ZM118.641 40.12L116.951 39.0506L116.255 40.1507L116.979 41.2326L118.641 40.12ZM144.669 77H125.985V81H144.669V77ZM127.689 77.9525L109.761 48.7925L106.353 50.8875L124.281 80.0475L127.689 77.9525ZM106.353 48.7925L88.4251 77.9525L91.8326 80.0475L109.761 50.8875L106.353 48.7925ZM90.1288 77H72.6328V81H90.1288V77ZM74.3143 80.0829L99.9103 40.3389L96.5473 38.1731L70.9513 77.9171L74.3143 80.0829ZM99.9121 38.176L75.9361 0.807956L72.5695 2.96803L96.5455 40.336L99.9121 38.176ZM74.2528 3.888H92.2888V-0.112005H74.2528V3.888ZM90.5732 2.916L107.205 30.672L110.636 28.616L94.0044 0.859985L90.5732 2.916ZM110.645 30.6572L126.953 2.90116L123.504 0.874835L107.196 28.6308L110.645 30.6572ZM125.229 3.888H142.833V-0.112005H125.229V3.888ZM141.143 0.818572L116.951 39.0506L120.331 41.1894L144.523 2.95742L141.143 0.818572ZM116.979 41.2326L143.007 80.1126L146.331 77.8874L120.303 39.0074L116.979 41.2326ZM188.732 1.888L190.606 2.58621L191.611 -0.112005H188.732V1.888ZM160.004 79V81H161.393L161.878 79.6982L160.004 79ZM145.424 79L143.55 78.3018L142.545 81H145.424V79ZM174.152 1.888V-0.112005H172.763L172.278 1.18978L174.152 1.888ZM186.858 1.18978L158.13 78.3018L161.878 79.6982L190.606 2.58621L186.858 1.18978ZM160.004 77H145.424V81H160.004V77ZM147.298 79.6982L176.026 2.58621L172.278 1.18978L143.55 78.3018L147.298 79.6982ZM174.152 3.888H188.732V-0.112005H174.152V3.888ZM258.185 66.256L256.433 65.2921L256.427 65.3025L258.185 66.256ZM247.601 76.408L248.528 78.1802L248.538 78.1749L247.601 76.408ZM206.453 72.304L205.049 73.7278L205.059 73.7375L206.453 72.304ZM198.461 1.888V-0.112005H196.461V1.888H198.461ZM214.769 1.888H216.769V-0.112005H214.769V1.888ZM218.657 62.476L217.243 63.8902L217.243 63.8902L218.657 62.476ZM238.961 64.528L238 62.7744L238 62.7744L238.961 64.528ZM243.821 58.804L241.975 58.0348L241.966 58.0568L241.957 58.0791L243.821 58.804ZM245.441 1.888V-0.112005H243.441V1.888H245.441ZM261.749 1.888H263.749V-0.112005H261.749V1.888ZM259.749 51.784C259.749 56.8029 258.633 61.291 256.433 65.2922L259.938 67.2198C262.489 62.581 263.749 57.4211 263.749 51.784H259.749ZM256.427 65.3025C254.332 69.166 251.109 72.2839 246.664 74.6411L248.538 78.1749C253.597 75.4921 257.431 71.842 259.943 67.2095L256.427 65.3025ZM246.674 74.6358C242.365 76.8898 236.77 78.08 229.781 78.08V82.08C237.193 82.08 243.477 80.8222 248.528 78.1802L246.674 74.6358ZM229.781 78.08C219.879 78.08 212.681 75.5728 207.848 70.8705L205.059 73.7375C210.882 79.4032 219.235 82.08 229.781 82.08V78.08ZM207.858 70.8802C202.967 66.0554 200.461 59.6852 200.461 51.568H196.461C196.461 60.5868 199.284 68.0406 205.049 73.7278L207.858 70.8802ZM200.461 51.568V1.888H196.461V51.568H200.461ZM198.461 3.888H214.769V-0.112005H198.461V3.888ZM212.769 1.888V49.084H216.769V1.888H212.769ZM212.769 49.084C212.769 55.5909 214.081 60.7287 217.243 63.8902L220.071 61.0618C218.049 59.0393 216.769 55.2491 216.769 49.084H212.769ZM217.243 63.8902C220.338 66.9848 224.784 68.364 230.213 68.364V64.364C225.419 64.364 222.161 63.1512 220.071 61.0618L217.243 63.8902ZM230.213 68.364C234.018 68.364 237.299 67.7204 239.923 66.2816L238 62.7744C236.159 63.7836 233.608 64.364 230.213 64.364V68.364ZM239.923 66.2816C242.606 64.81 244.524 62.5157 245.685 59.5289L241.957 58.0791C241.103 60.2763 239.78 61.798 238 62.7744L239.923 66.2816ZM245.667 59.5732C246.882 56.6594 247.441 53.0997 247.441 48.976H243.441C243.441 52.7723 242.921 55.7646 241.975 58.0348L245.667 59.5732ZM247.441 48.976V1.888H243.441V48.976H247.441ZM245.441 3.888H261.749V-0.112005H245.441V3.888ZM259.749 1.888V51.784H263.749V1.888H259.749ZM309.47 79V81H311.47V79H309.47ZM274.37 79H272.37V81H274.37V79ZM274.37 69.712L273.535 67.8949L272.37 68.4303V69.712H274.37ZM283.766 65.392L284.602 67.2091L285.766 66.6737V65.392H283.766ZM283.766 15.496H285.766V14.2143L284.602 13.6789L283.766 15.496ZM274.37 11.176H272.37V12.4577L273.535 12.9931L274.37 11.176ZM274.37 1.888V-0.112005H272.37V1.888H274.37ZM309.47 1.888H311.47V-0.112005H309.47V1.888ZM309.47 11.176L310.306 12.9931L311.47 12.4577V11.176H309.47ZM300.074 15.496L299.239 13.6789L298.074 14.2143V15.496H300.074ZM300.074 65.392H298.074V66.6737L299.239 67.2091L300.074 65.392ZM309.47 69.712H311.47V68.4303L310.306 67.8949L309.47 69.712ZM309.47 77H274.37V81H309.47V77ZM276.37 79V69.712H272.37V79H276.37ZM275.206 71.5291L284.602 67.2091L282.931 63.5749L273.535 67.8949L275.206 71.5291ZM285.766 65.392V15.496H281.766V65.392H285.766ZM284.602 13.6789L275.206 9.35886L273.535 12.9931L282.931 17.3131L284.602 13.6789ZM276.37 11.176V1.888H272.37V11.176H276.37ZM274.37 3.888H309.47V-0.112005H274.37V3.888ZM307.47 1.888V11.176H311.47V1.888H307.47ZM308.635 9.35886L299.239 13.6789L300.91 17.3131L310.306 12.9931L308.635 9.35886ZM298.074 15.496V65.392H302.074V15.496H298.074ZM299.239 67.2091L308.635 71.5291L310.306 67.8949L300.91 63.5749L299.239 67.2091ZM307.47 69.712V79H311.47V69.712H307.47ZM409.633 61.396L411.372 62.3836L411.372 62.3836L409.633 61.396ZM395.161 74.572L394.317 72.7591L394.309 72.7628L395.161 74.572ZM350.665 79H348.665V81H350.665V79ZM350.665 1.888V-0.112005H348.665V1.888H350.665ZM395.809 6.208L394.932 8.00555L394.941 8.00969L395.809 6.208ZM409.633 18.952L407.901 19.9514L407.909 19.9646L407.916 19.9777L409.633 18.952ZM395.161 26.08L396.984 25.2578L395.161 26.08ZM387.709 17.98L386.738 19.7283L386.761 19.741L386.784 19.7532L387.709 17.98ZM366.973 15.28V13.28H364.973V15.28H366.973ZM366.973 65.5H364.973V67.5H366.973V65.5ZM391.813 59.128L390.338 57.7777L390.338 57.7777L391.813 59.128ZM412.601 39.688C412.601 48.0792 410.993 54.9522 407.894 60.4083L411.372 62.3836C414.898 56.1758 416.601 48.5768 416.601 39.688H412.601ZM407.894 60.4083C404.796 65.8631 400.293 69.9747 394.317 72.7591L396.006 76.3849C402.702 73.2653 407.846 68.5929 411.372 62.3836L407.894 60.4083ZM394.309 72.7628C388.375 75.5592 381.122 77 372.481 77V81C381.553 81 389.42 79.4888 396.014 76.3812L394.309 72.7628ZM372.481 77H350.665V81H372.481V77ZM352.665 79V1.888H348.665V79H352.665ZM350.665 3.888H374.857V-0.112005H350.665V3.888ZM374.857 3.888C382.685 3.888 389.357 5.28561 394.932 8.00553L396.686 4.41046C390.454 1.37038 383.157 -0.112005 374.857 -0.112005V3.888ZM394.941 8.00969C400.564 10.7195 404.867 14.6921 407.901 19.9514L411.366 17.9525C407.92 11.9799 403.007 7.45651 396.678 4.40631L394.941 8.00969ZM407.916 19.9777C410.998 25.1357 412.601 31.669 412.601 39.688H416.601C416.601 31.147 414.893 23.8563 411.35 17.9263L407.916 19.9777ZM399.645 40.12C399.645 34.2572 398.795 29.2717 396.984 25.2578L393.338 26.9022C394.84 30.2323 395.645 34.6068 395.645 40.12H399.645ZM396.984 25.2578C395.16 21.2113 392.376 18.1589 388.634 16.2068L386.784 19.7532C389.667 21.2571 391.851 23.6047 393.338 26.9022L396.984 25.2578ZM388.681 16.2317C385.071 14.2264 380.72 13.28 375.721 13.28V17.28C380.227 17.28 383.867 18.1336 386.738 19.7283L388.681 16.2317ZM375.721 13.28H366.973V17.28H375.721V13.28ZM364.973 15.28V65.5H368.973V15.28H364.973ZM366.973 67.5H373.993V63.5H366.973V67.5ZM373.993 67.5C382.322 67.5 388.893 65.2812 393.289 60.4783L390.338 57.7777C386.958 61.4708 381.649 63.5 373.993 63.5V67.5ZM393.289 60.4783C397.642 55.7223 399.645 48.816 399.645 40.12H395.645C395.645 48.272 393.761 54.0377 390.338 57.7777L393.289 60.4783ZM474.999 79V81H476.999V79H474.999ZM430.611 79H428.611V81H430.611V79ZM430.611 1.888V-0.112005H428.611V1.888H430.611ZM474.999 1.888H476.999V-0.112005H474.999V1.888ZM474.999 15.28V17.28H476.999V15.28H474.999ZM446.919 15.28V13.28H444.919V15.28H446.919ZM446.919 32.236H444.919V34.236H446.919V32.236ZM473.055 32.236H475.055V30.236H473.055V32.236ZM473.055 45.628V47.628H475.055V45.628H473.055ZM446.919 45.628V43.628H444.919V45.628H446.919ZM446.919 65.5H444.919V67.5H446.919V65.5ZM474.999 65.5H476.999V63.5H474.999V65.5ZM474.999 77H430.611V81H474.999V77ZM432.611 79V1.888H428.611V79H432.611ZM430.611 3.888H474.999V-0.112005H430.611V3.888ZM472.999 1.888V15.28H476.999V1.888H472.999ZM474.999 13.28H446.919V17.28H474.999V13.28ZM444.919 15.28V32.236H448.919V15.28H444.919ZM446.919 34.236H473.055V30.236H446.919V34.236ZM471.055 32.236V45.628H475.055V32.236H471.055ZM473.055 43.628H446.919V47.628H473.055V43.628ZM444.919 45.628V65.5H448.919V45.628H444.919ZM446.919 67.5H474.999V63.5H446.919V67.5ZM472.999 65.5V79H476.999V65.5H472.999ZM533.164 69.496L531.495 68.3948L531.495 68.3948L533.164 69.496ZM523.444 77.38L524.236 79.2166L524.243 79.2134L524.251 79.2102L523.444 77.38ZM500.224 79.54L499.941 81.5199L499.949 81.521L500.224 79.54ZM492.88 78.028L492.284 79.937L492.319 79.9479L492.354 79.9575L492.88 78.028ZM486.292 75.436H484.292V76.6913L485.423 77.2371L486.292 75.436ZM486.292 60.208L487.084 58.3716L484.292 57.1671V60.208H486.292ZM497.632 64.636L496.968 66.5226L496.989 66.5299L497.01 66.5368L497.632 64.636ZM515.776 65.5L514.979 63.6659L514.964 63.6724L514.949 63.6793L515.776 65.5ZM519.34 62.584L517.661 61.4975L517.638 61.5333L517.616 61.57L519.34 62.584ZM518.476 53.404L517.024 54.7795L517.043 54.7991L517.062 54.8182L518.476 53.404ZM513.184 49.624L512.223 51.3776L512.245 51.3897L512.267 51.4012L513.184 49.624ZM505.516 45.736L504.651 47.5391L504.658 47.5426L505.516 45.736ZM499.684 42.712L498.673 44.4374L498.695 44.4506L498.718 44.4632L499.684 42.712ZM493.636 38.284L492.25 39.7257L492.278 39.7528L492.307 39.7788L493.636 38.284ZM488.992 31.804L487.193 32.6778L487.193 32.6778L488.992 31.804ZM490.288 10.96L488.613 9.86744L488.607 9.87659L490.288 10.96ZM499.36 3.39999L498.56 1.56687L498.548 1.57237L499.36 3.39999ZM524.74 2.212L524.237 4.14766L524.246 4.15003L524.74 2.212ZM536.188 6.208L538.035 6.975L538.789 5.16064L536.988 4.37492L536.188 6.208ZM530.896 18.952L530.14 20.8037L531.981 21.5549L532.743 19.719L530.896 18.952ZM521.392 15.604L520.849 17.5289L520.849 17.5289L521.392 15.604ZM507.568 15.388L508.389 17.2118L508.389 17.2118L507.568 15.388ZM504.22 18.088L502.572 16.9549L502.547 16.9909L502.524 17.028L504.22 18.088ZM504.76 26.836L503.224 28.1164L503.242 28.1381L503.261 28.1592L504.76 26.836ZM509.62 30.4L510.561 28.6353L510.561 28.6353L509.62 30.4ZM517.72 34.504L516.842 36.3008L516.854 36.3065L516.865 36.3121L517.72 34.504ZM527.764 40.336L526.578 41.9461L526.588 41.9534L526.598 41.9606L527.764 40.336ZM534.244 47.464L532.494 48.4314L532.494 48.4314L534.244 47.464ZM534.512 57.616C534.512 61.8087 533.486 65.3757 531.495 68.3948L534.834 70.5972C537.306 66.8483 538.512 62.4953 538.512 57.616H534.512ZM531.495 68.3948C529.504 71.4133 526.586 73.8098 522.638 75.5498L524.251 79.2102C528.798 77.2062 532.361 74.3467 534.834 70.5972L531.495 68.3948ZM522.653 75.5434C518.794 77.2063 513.969 78.08 508.108 78.08V82.08C514.343 82.08 519.742 81.1537 524.236 79.2166L522.653 75.5434ZM508.108 78.08C505.535 78.08 502.999 77.9061 500.499 77.559L499.949 81.521C502.634 81.8939 505.354 82.08 508.108 82.08V78.08ZM500.507 77.5601C498.066 77.2114 495.7 76.7239 493.406 76.0985L492.354 79.9575C494.813 80.6281 497.342 81.1486 499.941 81.5199L500.507 77.5601ZM493.477 76.119C491.262 75.4271 489.158 74.5986 487.162 73.6349L485.423 77.2371C487.602 78.2894 489.89 79.1889 492.284 79.937L493.477 76.119ZM488.292 75.436V60.208H484.292V75.436H488.292ZM485.5 62.0444C489.216 63.6472 493.038 65.1398 496.968 66.5226L498.296 62.7494C494.45 61.3962 490.713 59.9368 487.084 58.3716L485.5 62.0444ZM497.01 66.5368C501.157 67.8938 505.29 68.58 509.404 68.58V64.58C505.742 64.58 502.028 63.9702 498.254 62.7352L497.01 66.5368ZM509.404 68.58C512.217 68.58 514.659 68.2048 516.604 67.3207L514.949 63.6793C513.725 64.2352 511.92 64.58 509.404 64.58V68.58ZM516.574 67.3341C518.511 66.4916 520.078 65.2748 521.064 63.598L517.616 61.57C517.163 62.3412 516.353 63.0684 514.979 63.6659L516.574 67.3341ZM521.019 63.6705C522.039 62.0948 522.528 60.3068 522.528 58.372H518.528C518.528 59.6052 518.226 60.6252 517.661 61.4975L521.019 63.6705ZM522.528 58.372C522.528 55.9005 521.636 53.7349 519.89 51.9898L517.062 54.8182C518.053 55.8091 518.528 56.9555 518.528 58.372H522.528ZM519.928 52.0285C518.436 50.4534 516.471 49.0696 514.102 47.8468L512.267 51.4012C514.362 52.4824 515.924 53.6186 517.024 54.7795L519.928 52.0285ZM514.146 47.8704C511.873 46.6238 509.281 45.3101 506.374 43.9294L504.658 47.5426C507.511 48.8979 510.032 50.1762 512.223 51.3776L514.146 47.8704ZM506.382 43.933C504.621 43.0881 502.711 42.098 500.65 40.9608L498.718 44.4632C500.833 45.63 502.811 46.6559 504.651 47.539L506.382 43.933ZM500.696 40.9866C498.729 39.8336 496.818 38.4365 494.965 36.7892L492.307 39.7788C494.342 41.5875 496.464 43.1424 498.673 44.4374L500.696 40.9866ZM495.022 36.8423C493.333 35.2182 491.92 33.2548 490.791 30.9302L487.193 32.6778C488.512 35.3932 490.195 37.7498 492.25 39.7257L495.022 36.8423ZM490.791 30.9302C489.729 28.7437 489.156 26.0336 489.156 22.732H485.156C485.156 26.4864 485.807 29.8243 487.193 32.6778L490.791 30.9302ZM489.156 22.732C489.156 18.4322 490.127 14.9019 491.969 12.0434L488.607 9.87659C486.273 13.4981 485.156 17.8158 485.156 22.732H489.156ZM491.963 12.0525C493.897 9.0884 496.609 6.81138 500.172 5.22762L498.548 1.57237C494.335 3.4446 491 6.20759 488.613 9.86746L491.963 12.0525ZM500.16 5.23307C503.816 3.63766 508.177 2.808 513.292 2.808V-1.192C507.751 -1.192 502.824 -0.293672 498.56 1.56692L500.16 5.23307ZM513.292 2.808C517.169 2.808 520.814 3.25779 524.237 4.14764L525.243 0.276352C521.466 -0.705793 517.48 -1.192 513.292 -1.192V2.808ZM524.246 4.15003C527.8 5.05596 531.514 6.35039 535.388 8.04108L536.988 4.37492C532.943 2.60961 529.024 1.24003 525.234 0.273968L524.246 4.15003ZM534.341 5.44099L529.049 18.185L532.743 19.719L538.035 6.975L534.341 5.44099ZM531.652 17.1003C528.074 15.64 524.833 14.4965 521.935 13.6791L520.849 17.5289C523.567 18.2954 526.662 19.384 530.14 20.8037L531.652 17.1003ZM521.935 13.6791C518.948 12.8367 515.886 12.416 512.752 12.416V16.416C515.523 16.416 518.22 16.7873 520.849 17.5289L521.935 13.6791ZM512.752 12.416C510.529 12.416 508.506 12.7726 506.747 13.5642L508.389 17.2118C509.51 16.7074 510.944 16.416 512.752 16.416V12.416ZM506.747 13.5642C505.018 14.3424 503.597 15.4637 502.572 16.9549L505.868 19.2211C506.427 18.4083 507.238 17.7296 508.389 17.2118L506.747 13.5642ZM502.524 17.028C501.574 18.5476 501.14 20.2965 501.14 22.192H505.14C505.14 20.9195 505.426 19.9324 505.916 19.148L502.524 17.028ZM501.14 22.192C501.14 24.4261 501.823 26.4358 503.224 28.1164L506.297 25.5556C505.537 24.6442 505.14 23.5579 505.14 22.192H501.14ZM503.261 28.1592C504.557 29.6287 506.403 30.9508 508.679 32.1647L510.561 28.6353C508.517 27.5452 507.123 26.4913 506.26 25.5128L503.261 28.1592ZM508.679 32.1647C510.867 33.3316 513.59 34.7108 516.842 36.3008L518.599 32.7072C515.371 31.1292 512.693 29.7724 510.561 28.6353L508.679 32.1647ZM516.865 36.3121C520.74 38.1439 523.97 40.0249 526.578 41.9461L528.951 38.7259C526.086 36.6151 522.62 34.6081 518.575 32.6959L516.865 36.3121ZM526.598 41.9606C529.191 43.8221 531.14 45.9815 532.494 48.4314L535.995 46.4966C534.325 43.4745 531.954 40.8819 528.931 38.7114L526.598 41.9606ZM532.494 48.4314C533.801 50.7975 534.512 53.8268 534.512 57.616H538.512C538.512 53.3412 537.711 49.6025 535.995 46.4966L532.494 48.4314ZM579.365 79V81H581.365V79H579.365ZM544.265 79H542.265V81H544.265V79ZM544.265 69.712L543.429 67.8949L542.265 68.4303V69.712H544.265ZM553.661 65.392L554.496 67.2091L555.661 66.6737V65.392H553.661ZM553.661 15.496H555.661V14.2143L554.496 13.6789L553.661 15.496ZM544.265 11.176H542.265V12.4577L543.429 12.9931L544.265 11.176ZM544.265 1.888V-0.112005H542.265V1.888H544.265ZM579.365 1.888H581.365V-0.112005H579.365V1.888ZM579.365 11.176L580.2 12.9931L581.365 12.4577V11.176H579.365ZM569.969 15.496L569.133 13.6789L567.969 14.2143V15.496H569.969ZM569.969 65.392H567.969V66.6737L569.133 67.2091L569.969 65.392ZM579.365 69.712H581.365V68.4303L580.2 67.8949L579.365 69.712ZM579.365 77H544.265V81H579.365V77ZM546.265 79V69.712H542.265V79H546.265ZM545.1 71.5291L554.496 67.2091L552.825 63.5749L543.429 67.8949L545.1 71.5291ZM555.661 65.392V15.496H551.661V65.392H555.661ZM554.496 13.6789L545.1 9.35886L543.429 12.9931L552.825 17.3131L554.496 13.6789ZM546.265 11.176V1.888H542.265V11.176H546.265ZM544.265 3.888H579.365V-0.112005H544.265V3.888ZM577.365 1.888V11.176H581.365V1.888H577.365ZM578.529 9.35886L569.133 13.6789L570.804 17.3131L580.2 12.9931L578.529 9.35886ZM567.969 15.496V65.392H571.969V15.496H567.969ZM569.133 67.2091L578.529 71.5291L580.2 67.8949L570.804 63.5749L569.133 67.2091ZM577.365 69.712V79H581.365V69.712H577.365ZM621.773 35.692V33.692H619.773V35.692H621.773ZM652.337 35.692H654.337V33.692H652.337V35.692ZM652.337 75.652L652.98 77.546L654.337 77.0854V75.652H652.337ZM639.701 78.892L639.346 76.9237L639.341 76.9248L639.701 78.892ZM605.357 75.544L604.37 77.2834L604.38 77.289L605.357 75.544ZM593.153 62.152L591.339 62.9929L591.343 63.002L591.347 63.011L593.153 62.152ZM593.693 19.384L591.931 18.4384L591.926 18.4467L591.922 18.4552L593.693 19.384ZM641.429 2.104L641.003 4.05803L641.003 4.05803L641.429 2.104ZM652.229 5.56L654.078 6.3238L654.821 4.52351L653.041 3.73238L652.229 5.56ZM646.829 18.628L645.913 20.4059L647.847 21.4021L648.678 19.3918L646.829 18.628ZM638.729 15.604L638.222 17.5387L638.222 17.5387L638.729 15.604ZM616.805 17.656L615.761 15.9503L615.753 15.9551L615.745 15.96L616.805 17.656ZM608.705 26.836L606.91 25.9547L606.906 25.9615L606.903 25.9684L608.705 26.836ZM607.949 54.052L606.063 54.7158L606.063 54.7158L607.949 54.052ZM614.429 63.232L613.223 64.8273L613.235 64.8368L613.248 64.8461L614.429 63.232ZM630.089 66.364L630.214 68.3601L630.269 68.3567L630.323 68.3503L630.089 66.364ZM633.437 65.932L633.72 67.9119L633.789 67.9021L633.856 67.8876L633.437 65.932ZM636.353 65.392L636.657 67.3687L638.353 67.1078V65.392H636.353ZM636.353 49.3H638.353V47.3H636.353V49.3ZM621.773 49.3H619.773V51.3H621.773V49.3ZM621.773 37.692H652.337V33.692H621.773V37.692ZM650.337 35.692V75.652H654.337V35.692H650.337ZM651.695 73.758C647.761 75.0927 643.645 76.1485 639.346 76.9237L640.056 80.8603C644.541 80.0515 648.849 78.9473 652.98 77.546L651.695 73.758ZM639.341 76.9248C635.166 77.6902 630.358 78.08 624.905 78.08V82.08C630.54 82.08 635.597 81.6778 640.062 80.8592L639.341 76.9248ZM624.905 78.08C617.536 78.08 611.374 76.621 606.334 73.799L604.38 77.289C610.141 80.515 617.01 82.08 624.905 82.08V78.08ZM606.344 73.8046C601.398 70.997 597.604 66.8528 594.959 61.293L591.347 63.011C594.319 69.2592 598.661 74.043 604.37 77.2834L606.344 73.8046ZM594.968 61.3111C592.387 55.7421 591.049 48.7762 591.049 40.336H587.049C587.049 49.1758 588.447 56.7539 591.339 62.9929L594.968 61.3111ZM591.049 40.336C591.049 32.5284 592.547 25.8762 595.464 20.3128L591.922 18.4552C588.647 24.6998 587.049 32.0156 587.049 40.336H591.049ZM595.455 20.3296C598.436 14.7749 602.724 10.483 608.362 7.42621L606.456 3.90978C600.142 7.33299 595.286 12.1851 591.931 18.4384L595.455 20.3296ZM608.362 7.42621C613.977 4.38219 620.938 2.808 629.333 2.808V-1.192C620.448 -1.192 612.793 0.473801 606.456 3.90978L608.362 7.42621ZM629.333 2.808C633.296 2.808 637.185 3.22497 641.003 4.05803L641.855 0.149967C637.754 -0.744975 633.579 -1.192 629.333 -1.192V2.808ZM641.003 4.05803C644.849 4.89712 648.317 6.00991 651.417 7.38762L653.041 3.73238C649.661 2.23008 645.93 1.03887 641.855 0.149967L641.003 4.05803ZM650.381 4.7962L644.981 17.8642L648.678 19.3918L654.078 6.3238L650.381 4.7962ZM647.745 16.85C645.219 15.5488 642.378 14.4923 639.236 13.6693L638.222 17.5387C641.128 18.2997 643.687 19.2592 645.913 20.4059L647.745 16.85ZM639.236 13.6693C636.037 12.8314 632.698 12.416 629.225 12.416V16.416C632.376 16.416 635.373 16.7926 638.222 17.5387L639.236 13.6693ZM629.225 12.416C624.16 12.416 619.648 13.5706 615.761 15.9503L617.849 19.3617C621.019 17.4214 624.786 16.416 629.225 16.416V12.416ZM615.745 15.96C611.947 18.3339 609.004 21.6885 606.91 25.9547L610.5 27.7173C612.294 24.0635 614.751 21.2981 617.865 19.352L615.745 15.96ZM606.903 25.9684C604.874 30.183 603.897 35.1006 603.897 40.66H607.897C607.897 35.5634 608.792 31.265 610.507 27.7036L606.903 25.9684ZM603.897 40.66C603.897 45.8775 604.605 50.573 606.063 54.7158L609.836 53.3882C608.557 49.755 607.897 45.5225 607.897 40.66H603.897ZM606.063 54.7158C607.546 58.9307 609.923 62.3319 613.223 64.8273L615.635 61.6367C613.032 59.6681 611.089 56.9493 609.836 53.3882L606.063 54.7158ZM613.248 64.8461C616.633 67.3226 620.935 68.472 625.985 68.472V64.472C621.531 64.472 618.13 63.4614 615.61 61.6179L613.248 64.8461ZM625.985 68.472C627.597 68.472 629.008 68.4355 630.214 68.3601L629.964 64.3679C628.866 64.4365 627.542 64.472 625.985 64.472V68.472ZM630.323 68.3503C631.56 68.2048 632.693 68.0587 633.72 67.9119L633.154 63.9521C632.166 64.0933 631.066 64.2352 629.855 64.3777L630.323 68.3503ZM633.856 67.8876C634.829 67.6791 635.763 67.5063 636.657 67.3687L636.049 63.4153C635.071 63.5657 634.061 63.7529 633.018 63.9764L633.856 67.8876ZM638.353 65.392V49.3H634.353V65.392H638.353ZM636.353 47.3H621.773V51.3H636.353V47.3ZM623.773 49.3V35.692H619.773V49.3H623.773ZM739.022 79V81H741.022V79H739.022ZM718.286 79L716.552 79.9981L717.129 81H718.286V79ZM684.698 20.68L686.431 19.6818L685.854 18.68H684.698V20.68ZM684.266 20.68V18.68H682.184L682.267 20.7599L684.266 20.68ZM684.482 26.188L682.483 26.2649L682.483 26.2679L684.482 26.188ZM684.698 31.696L682.699 31.7729L682.701 31.8142L682.704 31.8555L684.698 31.696ZM685.022 37.204L683.023 37.2809L683.023 37.2839L685.022 37.204ZM685.238 42.712H687.238V42.6735L687.236 42.6351L685.238 42.712ZM685.238 79V81H687.238V79H685.238ZM670.658 79H668.658V81H670.658V79ZM670.658 1.888V-0.112005H668.658V1.888H670.658ZM691.286 1.888L693.016 0.885285L692.438 -0.112005H691.286V1.888ZM724.766 59.668L723.035 60.6707L723.613 61.668H724.766V59.668ZM725.09 59.668V61.668H727.171L727.088 59.5881L725.09 59.668ZM724.874 54.376L722.875 54.4559L722.875 54.4593L724.874 54.376ZM724.658 49.084H722.658V49.1256L722.659 49.1673L724.658 49.084ZM724.55 43.792L722.551 43.8719L722.551 43.8753L724.55 43.792ZM724.334 38.392H722.334V38.432L722.335 38.4719L724.334 38.392ZM724.334 1.888V-0.112005H722.334V1.888H724.334ZM739.022 1.888H741.022V-0.112005H739.022V1.888ZM739.022 77H718.286V81H739.022V77ZM720.019 78.0019L686.431 19.6818L682.964 21.6781L716.552 79.9981L720.019 78.0019ZM684.698 18.68H684.266V22.68H684.698V18.68ZM682.267 20.7599C682.339 22.5589 682.411 24.3938 682.483 26.2649L686.48 26.1111C686.408 24.2381 686.336 22.4011 686.264 20.6001L682.267 20.7599ZM682.483 26.2679C682.555 28.0669 682.627 29.9018 682.699 31.7729L686.696 31.6191C686.624 29.7461 686.552 27.9091 686.48 26.1081L682.483 26.2679ZM682.704 31.8555C682.846 33.627 682.952 35.4354 683.023 37.2809L687.02 37.1271C686.947 35.2286 686.837 33.365 686.691 31.5365L682.704 31.8555ZM683.023 37.2839C683.095 39.0829 683.167 40.9178 683.239 42.7889L687.236 42.6351C687.164 40.7621 687.092 38.9251 687.02 37.1241L683.023 37.2839ZM683.238 42.712V79H687.238V42.712H683.238ZM685.238 77H670.658V81H685.238V77ZM672.658 79V1.888H668.658V79H672.658ZM670.658 3.888H691.286V-0.112005H670.658V3.888ZM689.555 2.8907L723.035 60.6707L726.496 58.6653L693.016 0.885285L689.555 2.8907ZM724.766 61.668H725.09V57.668H724.766V61.668ZM727.088 59.5881C727.016 57.787 726.944 56.0219 726.872 54.2927L722.875 54.4593C722.947 56.1861 723.019 57.949 723.091 59.7479L727.088 59.5881ZM726.872 54.2961C726.8 52.495 726.728 50.7299 726.656 49.0007L722.659 49.1673C722.731 50.8941 722.803 52.657 722.875 54.4559L726.872 54.2961ZM726.658 49.084C726.658 47.2574 726.621 45.4656 726.548 43.7087L722.551 43.8753C722.622 45.5744 722.658 47.3106 722.658 49.084H726.658ZM726.548 43.7121C726.476 41.9121 726.404 40.1121 726.332 38.3121L722.335 38.4719C722.407 40.2719 722.479 42.0719 722.551 43.8719L726.548 43.7121ZM726.334 38.392V1.888H722.334V38.392H726.334ZM724.334 3.888H739.022V-0.112005H724.334V3.888ZM737.022 1.888V79H741.022V1.888H737.022Z" fill="#2C507A" mask="url(#path-1-outside-1_1_3)"/>
</svg>
