<svg width="69" height="69" viewBox="0 0 69 69" fill="none" xmlns="http://www.w3.org/2000/svg">
<path d="M11.7349 33.3688H19.1002V0.0608194C19.5368 0.0382295 19.8509 0.0069509 20.1651 0.0069509C35.9003 0.00347553 51.6355 0 67.3708 0C68.6557 0 69 0.338849 69 1.5952C69 23.4883 69 45.3831 68.9965 67.2762C68.9965 68.6976 68.6859 68.9948 67.211 68.9948C45.383 68.9965 23.5531 68.9983 1.72509 69C0.344308 69 0.00709929 68.6716 0.00709929 67.2953C0.00177495 45.3432 0 23.3927 0 1.44054C0 0.274554 0.271541 0.0104266 1.46065 0.00868896C4.56652 0.00173822 7.67238 0.00347582 10.7783 0.00521351C11.0658 0.00521351 11.3533 0.034754 11.7331 0.0573439V33.3688H11.7349ZM42.2185 43.5916C42.5043 43.4908 42.7421 43.3883 42.9888 43.3205C50.8635 41.1849 55.0573 33.44 52.436 25.8654C50.7552 21.0051 45.8054 17.1301 40.5573 16.8834C36.2198 16.6783 31.868 16.7791 27.5233 16.7495C27.4115 16.7495 27.2997 16.7965 27.1489 16.8295V23.9105C27.5659 23.9105 27.9156 23.9105 28.2652 23.9105C31.9603 23.9158 35.6572 23.8723 39.3523 23.9384C44.059 24.0218 47.1311 28.7587 45.2108 32.9708C44.1797 35.2316 42.3126 36.481 39.7818 36.5244C35.9092 36.5904 32.0348 36.5331 28.1623 36.5279C27.8233 36.5279 27.4843 36.5279 27.1489 36.5279V43.4821H31.8964C37.3485 48.8863 42.8078 54.2992 48.1144 59.5592H58.2927C52.9045 54.2088 47.5979 48.9367 42.2185 43.5933V43.5916ZM11.7952 59.5696H41.8476C39.386 56.9752 37.0841 54.5512 34.7786 52.1219H19.1197V43.7202H11.797V59.5696H11.7952Z" fill="#274C77"/>
</svg>
